%TF.GenerationSoftware,KiCad,Pcbnew,10.0.0*%
%TF.CreationDate,2026-05-28T21:37:53+02:00*%
%TF.ProjectId,bt-rc-tx,62742d72-632d-4747-982e-6b696361645f,A*%
%TF.SameCoordinates,Original*%
%TF.FileFunction,Profile,NP*%
%FSLAX46Y46*%
G04 Gerber Fmt 4.6, Leading zero omitted, Abs format (unit mm)*
G04 Created by KiCad (PCBNEW 10.0.0) date 2026-05-28 21:37:53*
%MOMM*%
%LPD*%
G01*
G04 APERTURE LIST*
%TA.AperFunction,Profile*%
%ADD10C,0.050000*%
%TD*%
G04 APERTURE END LIST*
D10*
X85000000Y-55000000D02*
X85000000Y-107000000D01*
X85000000Y-55000000D02*
X86500000Y-55000000D01*
X85000000Y-107000000D02*
X86500000Y-107000000D01*
X86500000Y-107000000D02*
G75*
G02*
X89000000Y-109500000I0J-2500000D01*
G01*
X89000000Y-51000000D02*
X89000000Y-52500000D01*
X89000000Y-51000000D02*
X161000000Y-51000000D01*
X89000000Y-52500000D02*
G75*
G02*
X86500000Y-55000000I-2500000J0D01*
G01*
X89000000Y-111000000D02*
X89000000Y-109500000D01*
X89000000Y-111000000D02*
X161000000Y-111000000D01*
X147500000Y-76000000D02*
X147500000Y-86000000D01*
X147500000Y-76000000D02*
G75*
G02*
X152500000Y-76000000I2500000J0D01*
G01*
X152500000Y-76000000D02*
X152500000Y-86000000D01*
X152500000Y-86000000D02*
G75*
G02*
X147500000Y-86000000I-2500000J0D01*
G01*
X161000000Y-51000000D02*
X161000000Y-52500000D01*
X161000000Y-109500000D02*
G75*
G02*
X163500000Y-107000000I2500000J0D01*
G01*
X161000000Y-111000000D02*
X161000000Y-109500000D01*
X163500000Y-55000000D02*
G75*
G02*
X161000000Y-52500000I0J2500000D01*
G01*
X165000000Y-55000000D02*
X163500000Y-55000000D01*
X165000000Y-107000000D02*
X163500000Y-107000000D01*
X165000000Y-107000000D02*
X165000000Y-55000000D01*
M02*
