%TF.GenerationSoftware,KiCad,Pcbnew,10.0.0*%
%TF.CreationDate,2026-05-28T21:37:53+02:00*%
%TF.ProjectId,bt-rc-tx,62742d72-632d-4747-982e-6b696361645f,A*%
%TF.SameCoordinates,Original*%
%TF.FileFunction,Legend,Bot*%
%TF.FilePolarity,Positive*%
%FSLAX46Y46*%
G04 Gerber Fmt 4.6, Leading zero omitted, Abs format (unit mm)*
G04 Created by KiCad (PCBNEW 10.0.0) date 2026-05-28 21:37:53*
%MOMM*%
%LPD*%
G01*
G04 APERTURE LIST*
%ADD10C,0.150000*%
%ADD11C,0.120000*%
G04 APERTURE END LIST*
D10*
X139718333Y-99224819D02*
X139718333Y-99939104D01*
X139718333Y-99939104D02*
X139765952Y-100081961D01*
X139765952Y-100081961D02*
X139861190Y-100177200D01*
X139861190Y-100177200D02*
X140004047Y-100224819D01*
X140004047Y-100224819D02*
X140099285Y-100224819D01*
X138718333Y-100224819D02*
X139289761Y-100224819D01*
X139004047Y-100224819D02*
X139004047Y-99224819D01*
X139004047Y-99224819D02*
X139099285Y-99367676D01*
X139099285Y-99367676D02*
X139194523Y-99462914D01*
X139194523Y-99462914D02*
X139289761Y-99510533D01*
X139718333Y-84264819D02*
X139718333Y-84979104D01*
X139718333Y-84979104D02*
X139765952Y-85121961D01*
X139765952Y-85121961D02*
X139861190Y-85217200D01*
X139861190Y-85217200D02*
X140004047Y-85264819D01*
X140004047Y-85264819D02*
X140099285Y-85264819D01*
X138813571Y-84598152D02*
X138813571Y-85264819D01*
X139051666Y-84217200D02*
X139289761Y-84931485D01*
X139289761Y-84931485D02*
X138670714Y-84931485D01*
X139718333Y-68344819D02*
X139718333Y-69059104D01*
X139718333Y-69059104D02*
X139765952Y-69201961D01*
X139765952Y-69201961D02*
X139861190Y-69297200D01*
X139861190Y-69297200D02*
X140004047Y-69344819D01*
X140004047Y-69344819D02*
X140099285Y-69344819D01*
X139337380Y-68344819D02*
X138718333Y-68344819D01*
X138718333Y-68344819D02*
X139051666Y-68725771D01*
X139051666Y-68725771D02*
X138908809Y-68725771D01*
X138908809Y-68725771D02*
X138813571Y-68773390D01*
X138813571Y-68773390D02*
X138765952Y-68821009D01*
X138765952Y-68821009D02*
X138718333Y-68916247D01*
X138718333Y-68916247D02*
X138718333Y-69154342D01*
X138718333Y-69154342D02*
X138765952Y-69249580D01*
X138765952Y-69249580D02*
X138813571Y-69297200D01*
X138813571Y-69297200D02*
X138908809Y-69344819D01*
X138908809Y-69344819D02*
X139194523Y-69344819D01*
X139194523Y-69344819D02*
X139289761Y-69297200D01*
X139289761Y-69297200D02*
X139337380Y-69249580D01*
%TO.C,J1*%
D11*
X133730000Y-97500000D02*
X133730000Y-98770000D01*
X133730000Y-98770000D02*
X135000000Y-98770000D01*
X136077358Y-94530000D02*
X136390000Y-94530000D01*
X136077358Y-95390000D02*
X136390000Y-95390000D01*
X136160000Y-97070000D02*
X136390000Y-97070000D01*
X136160000Y-97930000D02*
X136390000Y-97930000D01*
X136390000Y-96230000D02*
X139150000Y-96230000D01*
X139150000Y-95390000D02*
X145150000Y-95390000D01*
X145150000Y-94530000D02*
X139150000Y-94530000D01*
X145150000Y-95390000D02*
X145150000Y-94530000D01*
X136390000Y-93580000D02*
X139150000Y-93580000D01*
X139150000Y-98880000D01*
X136390000Y-98880000D01*
X136390000Y-93580000D01*
X139150000Y-97070000D02*
X145150000Y-97070000D01*
X145150000Y-97930000D01*
X139150000Y-97930000D01*
X139150000Y-97070000D01*
G36*
X139150000Y-97070000D02*
G01*
X145150000Y-97070000D01*
X145150000Y-97930000D01*
X139150000Y-97930000D01*
X139150000Y-97070000D01*
G37*
%TO.C,J4*%
X133730000Y-82540000D02*
X133730000Y-83810000D01*
X133730000Y-83810000D02*
X135000000Y-83810000D01*
X136077358Y-79570000D02*
X136390000Y-79570000D01*
X136077358Y-80430000D02*
X136390000Y-80430000D01*
X136160000Y-82110000D02*
X136390000Y-82110000D01*
X136160000Y-82970000D02*
X136390000Y-82970000D01*
X136390000Y-81270000D02*
X139150000Y-81270000D01*
X139150000Y-80430000D02*
X145150000Y-80430000D01*
X145150000Y-79570000D02*
X139150000Y-79570000D01*
X145150000Y-80430000D02*
X145150000Y-79570000D01*
X136390000Y-78620000D02*
X139150000Y-78620000D01*
X139150000Y-83920000D01*
X136390000Y-83920000D01*
X136390000Y-78620000D01*
X139150000Y-82110000D02*
X145150000Y-82110000D01*
X145150000Y-82970000D01*
X139150000Y-82970000D01*
X139150000Y-82110000D01*
G36*
X139150000Y-82110000D02*
G01*
X145150000Y-82110000D01*
X145150000Y-82970000D01*
X139150000Y-82970000D01*
X139150000Y-82110000D01*
G37*
%TO.C,J3*%
X133730000Y-66620000D02*
X133730000Y-67890000D01*
X133730000Y-67890000D02*
X135000000Y-67890000D01*
X136077358Y-56030000D02*
X136390000Y-56030000D01*
X136077358Y-56890000D02*
X136390000Y-56890000D01*
X136077358Y-58570000D02*
X136390000Y-58570000D01*
X136077358Y-59430000D02*
X136390000Y-59430000D01*
X136077358Y-61110000D02*
X136390000Y-61110000D01*
X136077358Y-61970000D02*
X136390000Y-61970000D01*
X136077358Y-63650000D02*
X136390000Y-63650000D01*
X136077358Y-64510000D02*
X136390000Y-64510000D01*
X136160000Y-66190000D02*
X136390000Y-66190000D01*
X136160000Y-67050000D02*
X136390000Y-67050000D01*
X136390000Y-57730000D02*
X139150000Y-57730000D01*
X136390000Y-60270000D02*
X139150000Y-60270000D01*
X136390000Y-62810000D02*
X139150000Y-62810000D01*
X136390000Y-65350000D02*
X139150000Y-65350000D01*
X139150000Y-56890000D02*
X145150000Y-56890000D01*
X139150000Y-59430000D02*
X145150000Y-59430000D01*
X139150000Y-61970000D02*
X145150000Y-61970000D01*
X139150000Y-64510000D02*
X145150000Y-64510000D01*
X145150000Y-56030000D02*
X139150000Y-56030000D01*
X145150000Y-56890000D02*
X145150000Y-56030000D01*
X145150000Y-58570000D02*
X139150000Y-58570000D01*
X145150000Y-59430000D02*
X145150000Y-58570000D01*
X145150000Y-61110000D02*
X139150000Y-61110000D01*
X145150000Y-61970000D02*
X145150000Y-61110000D01*
X145150000Y-63650000D02*
X139150000Y-63650000D01*
X145150000Y-64510000D02*
X145150000Y-63650000D01*
X136390000Y-55080000D02*
X139150000Y-55080000D01*
X139150000Y-68000000D01*
X136390000Y-68000000D01*
X136390000Y-55080000D01*
X139150000Y-66190000D02*
X145150000Y-66190000D01*
X145150000Y-67050000D01*
X139150000Y-67050000D01*
X139150000Y-66190000D01*
G36*
X139150000Y-66190000D02*
G01*
X145150000Y-66190000D01*
X145150000Y-67050000D01*
X139150000Y-67050000D01*
X139150000Y-66190000D01*
G37*
%TD*%
M02*
