M48
; DRILL file KiCad 10.0.0 date 2026-05-28T21:37:59
; FORMAT={-:-/ absolute / metric / decimal}
; #@! TF.CreationDate,2026-05-28T21:37:59+02:00
; #@! TF.GenerationSoftware,Kicad,Pcbnew,10.0.0
; #@! TF.FileFunction,Plated,1,2,PTH
FMAT,2
METRIC
; #@! TA.AperFunction,Plated,PTH,ViaDrill
T1C0.300
; #@! TA.AperFunction,Plated,PTH,ComponentDrill
T2C0.900
; #@! TA.AperFunction,Plated,PTH,ComponentDrill
T3C1.000
; #@! TA.AperFunction,Plated,PTH,ComponentDrill
T4C1.100
%
G90
G05
T1
X89.9Y-75.5
X94.5Y-80.375
X95.0Y-74.5
X96.0Y-84.5
X100.5Y-71.4
X101.0Y-76.566
X101.0Y-77.5
X101.0Y-78.5
X101.0Y-79.5
X101.0Y-80.4
X101.0Y-84.5
X101.5Y-74.0
X101.5Y-82.5
X127.5Y-65.5
X127.9Y-72.0
X128.5Y-60.5
X129.5Y-74.0
X129.5Y-82.5
T2
X87.96Y-67.5
X87.96Y-94.5
X90.5Y-67.5
X90.5Y-94.5
T3
X115.394Y-86.83
X117.934Y-86.83
X120.474Y-86.83
X135.0Y-56.46
X135.0Y-59.0
X135.0Y-61.54
X135.0Y-64.08
X135.0Y-66.62
X135.0Y-80.0
X135.0Y-82.54
X135.0Y-94.96
X135.0Y-97.5
T4
X94.5Y-65.0
X94.5Y-69.5
X94.5Y-92.5
X94.5Y-97.0
X101.0Y-65.0
X101.0Y-69.5
X101.0Y-92.5
X101.0Y-97.0
M30
