%TF.GenerationSoftware,KiCad,Pcbnew,10.0.0*%
%TF.CreationDate,2026-05-28T21:37:59+02:00*%
%TF.ProjectId,bt-rc-tx,62742d72-632d-4747-982e-6b696361645f,A*%
%TF.SameCoordinates,Original*%
%TF.FileFunction,Drillmap*%
%TF.FilePolarity,Positive*%
%FSLAX45Y45*%
G04 Gerber Fmt 4.5, Leading zero omitted, Abs format (unit mm)*
G04 Created by KiCad (PCBNEW 10.0.0) date 2026-05-28 21:37:59*
%MOMM*%
%LPD*%
G01*
G04 APERTURE LIST*
%ADD10C,0.050000*%
%ADD11C,0.200000*%
%ADD12C,0.185000*%
%ADD13C,0.220000*%
%ADD14C,0.250000*%
G04 APERTURE END LIST*
D10*
X8500000Y-5500000D02*
X8500000Y-10700000D01*
X8500000Y-5500000D02*
X8650000Y-5500000D01*
X8500000Y-10700000D02*
X8650000Y-10700000D01*
X8650000Y-10700000D02*
G75*
G02*
X8900000Y-10950000I0J-250000D01*
G01*
X8900000Y-5100000D02*
X8900000Y-5250000D01*
X8900000Y-5100000D02*
X16100000Y-5100000D01*
X8900000Y-5250000D02*
G75*
G02*
X8650000Y-5500000I-250000J0D01*
G01*
X8900000Y-11100000D02*
X8900000Y-10950000D01*
X8900000Y-11100000D02*
X16100000Y-11100000D01*
X14750000Y-7600000D02*
X14750000Y-8600000D01*
X14750000Y-7600000D02*
G75*
G02*
X15250000Y-7600000I250000J0D01*
G01*
X15250000Y-7600000D02*
X15250000Y-8600000D01*
X15250000Y-8600000D02*
G75*
G02*
X14750000Y-8600000I-250000J0D01*
G01*
X16100000Y-5100000D02*
X16100000Y-5250000D01*
X16100000Y-10950000D02*
G75*
G02*
X16350000Y-10700000I250000J0D01*
G01*
X16100000Y-11100000D02*
X16100000Y-10950000D01*
X16350000Y-5500000D02*
G75*
G02*
X16100000Y-5250000I0J250000D01*
G01*
X16500000Y-5500000D02*
X16350000Y-5500000D01*
X16500000Y-10700000D02*
X16350000Y-10700000D01*
X16500000Y-10700000D02*
X16500000Y-5500000D01*
D11*
D12*
X11146000Y-5923500D02*
X11331000Y-6108500D01*
X11331000Y-5923500D02*
X11146000Y-6108500D01*
X11631000Y-5923500D02*
X11816000Y-6108500D01*
X11816000Y-5923500D02*
X11631000Y-6108500D01*
D13*
X11318500Y-5713000D02*
G75*
G02*
X11098500Y-5713000I-110000J0D01*
G01*
X11098500Y-5713000D02*
G75*
G02*
X11318500Y-5713000I110000J0D01*
G01*
X11863500Y-5713000D02*
G75*
G02*
X11643500Y-5713000I-110000J0D01*
G01*
X11643500Y-5713000D02*
G75*
G02*
X11863500Y-5713000I110000J0D01*
G01*
D14*
X9700000Y-5475000D02*
X9700000Y-5725000D01*
X9575000Y-5600000D02*
X9825000Y-5600000D01*
X9700000Y-10475000D02*
X9700000Y-10725000D01*
X9575000Y-10600000D02*
X9825000Y-10600000D01*
X13000000Y-5475000D02*
X13000000Y-5725000D01*
X12875000Y-5600000D02*
X13125000Y-5600000D01*
X13000000Y-10475000D02*
X13000000Y-10725000D01*
X12875000Y-10600000D02*
X13125000Y-10600000D01*
X13600000Y-7275000D02*
X13600000Y-7525000D01*
X13475000Y-7400000D02*
X13725000Y-7400000D01*
X13600000Y-8675000D02*
X13600000Y-8925000D01*
X13475000Y-8800000D02*
X13725000Y-8800000D01*
D11*
X8758277Y-11413984D02*
X8758277Y-11213984D01*
X8758277Y-11213984D02*
X8805896Y-11213984D01*
X8805896Y-11213984D02*
X8834467Y-11223508D01*
X8834467Y-11223508D02*
X8853515Y-11242555D01*
X8853515Y-11242555D02*
X8863039Y-11261603D01*
X8863039Y-11261603D02*
X8872563Y-11299698D01*
X8872563Y-11299698D02*
X8872563Y-11328269D01*
X8872563Y-11328269D02*
X8863039Y-11366365D01*
X8863039Y-11366365D02*
X8853515Y-11385412D01*
X8853515Y-11385412D02*
X8834467Y-11404460D01*
X8834467Y-11404460D02*
X8805896Y-11413984D01*
X8805896Y-11413984D02*
X8758277Y-11413984D01*
X8958277Y-11413984D02*
X8958277Y-11280650D01*
X8958277Y-11318746D02*
X8967801Y-11299698D01*
X8967801Y-11299698D02*
X8977324Y-11290174D01*
X8977324Y-11290174D02*
X8996372Y-11280650D01*
X8996372Y-11280650D02*
X9015420Y-11280650D01*
X9082086Y-11413984D02*
X9082086Y-11280650D01*
X9082086Y-11213984D02*
X9072563Y-11223508D01*
X9072563Y-11223508D02*
X9082086Y-11233031D01*
X9082086Y-11233031D02*
X9091610Y-11223508D01*
X9091610Y-11223508D02*
X9082086Y-11213984D01*
X9082086Y-11213984D02*
X9082086Y-11233031D01*
X9205896Y-11413984D02*
X9186848Y-11404460D01*
X9186848Y-11404460D02*
X9177324Y-11385412D01*
X9177324Y-11385412D02*
X9177324Y-11213984D01*
X9310658Y-11413984D02*
X9291610Y-11404460D01*
X9291610Y-11404460D02*
X9282086Y-11385412D01*
X9282086Y-11385412D02*
X9282086Y-11213984D01*
X9539229Y-11413984D02*
X9539229Y-11213984D01*
X9539229Y-11213984D02*
X9605896Y-11356841D01*
X9605896Y-11356841D02*
X9672563Y-11213984D01*
X9672563Y-11213984D02*
X9672563Y-11413984D01*
X9853515Y-11413984D02*
X9853515Y-11309222D01*
X9853515Y-11309222D02*
X9843991Y-11290174D01*
X9843991Y-11290174D02*
X9824944Y-11280650D01*
X9824944Y-11280650D02*
X9786848Y-11280650D01*
X9786848Y-11280650D02*
X9767801Y-11290174D01*
X9853515Y-11404460D02*
X9834467Y-11413984D01*
X9834467Y-11413984D02*
X9786848Y-11413984D01*
X9786848Y-11413984D02*
X9767801Y-11404460D01*
X9767801Y-11404460D02*
X9758277Y-11385412D01*
X9758277Y-11385412D02*
X9758277Y-11366365D01*
X9758277Y-11366365D02*
X9767801Y-11347317D01*
X9767801Y-11347317D02*
X9786848Y-11337793D01*
X9786848Y-11337793D02*
X9834467Y-11337793D01*
X9834467Y-11337793D02*
X9853515Y-11328269D01*
X9948753Y-11280650D02*
X9948753Y-11480650D01*
X9948753Y-11290174D02*
X9967801Y-11280650D01*
X9967801Y-11280650D02*
X10005896Y-11280650D01*
X10005896Y-11280650D02*
X10024944Y-11290174D01*
X10024944Y-11290174D02*
X10034467Y-11299698D01*
X10034467Y-11299698D02*
X10043991Y-11318746D01*
X10043991Y-11318746D02*
X10043991Y-11375888D01*
X10043991Y-11375888D02*
X10034467Y-11394936D01*
X10034467Y-11394936D02*
X10024944Y-11404460D01*
X10024944Y-11404460D02*
X10005896Y-11413984D01*
X10005896Y-11413984D02*
X9967801Y-11413984D01*
X9967801Y-11413984D02*
X9948753Y-11404460D01*
X10129705Y-11394936D02*
X10139229Y-11404460D01*
X10139229Y-11404460D02*
X10129705Y-11413984D01*
X10129705Y-11413984D02*
X10120182Y-11404460D01*
X10120182Y-11404460D02*
X10129705Y-11394936D01*
X10129705Y-11394936D02*
X10129705Y-11413984D01*
X10129705Y-11290174D02*
X10139229Y-11299698D01*
X10139229Y-11299698D02*
X10129705Y-11309222D01*
X10129705Y-11309222D02*
X10120182Y-11299698D01*
X10120182Y-11299698D02*
X10129705Y-11290174D01*
X10129705Y-11290174D02*
X10129705Y-11309222D01*
D12*
X8312500Y-11650000D02*
X8497500Y-11835000D01*
X8497500Y-11650000D02*
X8312500Y-11835000D01*
D11*
X8863039Y-11833984D02*
X8748753Y-11833984D01*
X8805896Y-11833984D02*
X8805896Y-11633984D01*
X8805896Y-11633984D02*
X8786848Y-11662555D01*
X8786848Y-11662555D02*
X8767801Y-11681603D01*
X8767801Y-11681603D02*
X8748753Y-11691127D01*
X8958277Y-11824460D02*
X8958277Y-11833984D01*
X8958277Y-11833984D02*
X8948753Y-11853031D01*
X8948753Y-11853031D02*
X8939229Y-11862555D01*
X9072563Y-11719698D02*
X9053515Y-11710174D01*
X9053515Y-11710174D02*
X9043991Y-11700650D01*
X9043991Y-11700650D02*
X9034467Y-11681603D01*
X9034467Y-11681603D02*
X9034467Y-11672079D01*
X9034467Y-11672079D02*
X9043991Y-11653031D01*
X9043991Y-11653031D02*
X9053515Y-11643508D01*
X9053515Y-11643508D02*
X9072563Y-11633984D01*
X9072563Y-11633984D02*
X9110658Y-11633984D01*
X9110658Y-11633984D02*
X9129705Y-11643508D01*
X9129705Y-11643508D02*
X9139229Y-11653031D01*
X9139229Y-11653031D02*
X9148753Y-11672079D01*
X9148753Y-11672079D02*
X9148753Y-11681603D01*
X9148753Y-11681603D02*
X9139229Y-11700650D01*
X9139229Y-11700650D02*
X9129705Y-11710174D01*
X9129705Y-11710174D02*
X9110658Y-11719698D01*
X9110658Y-11719698D02*
X9072563Y-11719698D01*
X9072563Y-11719698D02*
X9053515Y-11729222D01*
X9053515Y-11729222D02*
X9043991Y-11738746D01*
X9043991Y-11738746D02*
X9034467Y-11757793D01*
X9034467Y-11757793D02*
X9034467Y-11795888D01*
X9034467Y-11795888D02*
X9043991Y-11814936D01*
X9043991Y-11814936D02*
X9053515Y-11824460D01*
X9053515Y-11824460D02*
X9072563Y-11833984D01*
X9072563Y-11833984D02*
X9110658Y-11833984D01*
X9110658Y-11833984D02*
X9129705Y-11824460D01*
X9129705Y-11824460D02*
X9139229Y-11814936D01*
X9139229Y-11814936D02*
X9148753Y-11795888D01*
X9148753Y-11795888D02*
X9148753Y-11757793D01*
X9148753Y-11757793D02*
X9139229Y-11738746D01*
X9139229Y-11738746D02*
X9129705Y-11729222D01*
X9129705Y-11729222D02*
X9110658Y-11719698D01*
X9329705Y-11633984D02*
X9234467Y-11633984D01*
X9234467Y-11633984D02*
X9224944Y-11729222D01*
X9224944Y-11729222D02*
X9234467Y-11719698D01*
X9234467Y-11719698D02*
X9253515Y-11710174D01*
X9253515Y-11710174D02*
X9301134Y-11710174D01*
X9301134Y-11710174D02*
X9320182Y-11719698D01*
X9320182Y-11719698D02*
X9329705Y-11729222D01*
X9329705Y-11729222D02*
X9339229Y-11748269D01*
X9339229Y-11748269D02*
X9339229Y-11795888D01*
X9339229Y-11795888D02*
X9329705Y-11814936D01*
X9329705Y-11814936D02*
X9320182Y-11824460D01*
X9320182Y-11824460D02*
X9301134Y-11833984D01*
X9301134Y-11833984D02*
X9253515Y-11833984D01*
X9253515Y-11833984D02*
X9234467Y-11824460D01*
X9234467Y-11824460D02*
X9224944Y-11814936D01*
X9463039Y-11633984D02*
X9482086Y-11633984D01*
X9482086Y-11633984D02*
X9501134Y-11643508D01*
X9501134Y-11643508D02*
X9510658Y-11653031D01*
X9510658Y-11653031D02*
X9520182Y-11672079D01*
X9520182Y-11672079D02*
X9529705Y-11710174D01*
X9529705Y-11710174D02*
X9529705Y-11757793D01*
X9529705Y-11757793D02*
X9520182Y-11795888D01*
X9520182Y-11795888D02*
X9510658Y-11814936D01*
X9510658Y-11814936D02*
X9501134Y-11824460D01*
X9501134Y-11824460D02*
X9482086Y-11833984D01*
X9482086Y-11833984D02*
X9463039Y-11833984D01*
X9463039Y-11833984D02*
X9443991Y-11824460D01*
X9443991Y-11824460D02*
X9434467Y-11814936D01*
X9434467Y-11814936D02*
X9424944Y-11795888D01*
X9424944Y-11795888D02*
X9415420Y-11757793D01*
X9415420Y-11757793D02*
X9415420Y-11710174D01*
X9415420Y-11710174D02*
X9424944Y-11672079D01*
X9424944Y-11672079D02*
X9434467Y-11653031D01*
X9434467Y-11653031D02*
X9443991Y-11643508D01*
X9443991Y-11643508D02*
X9463039Y-11633984D01*
X9615420Y-11833984D02*
X9615420Y-11700650D01*
X9615420Y-11719698D02*
X9624944Y-11710174D01*
X9624944Y-11710174D02*
X9643991Y-11700650D01*
X9643991Y-11700650D02*
X9672563Y-11700650D01*
X9672563Y-11700650D02*
X9691610Y-11710174D01*
X9691610Y-11710174D02*
X9701134Y-11729222D01*
X9701134Y-11729222D02*
X9701134Y-11833984D01*
X9701134Y-11729222D02*
X9710658Y-11710174D01*
X9710658Y-11710174D02*
X9729705Y-11700650D01*
X9729705Y-11700650D02*
X9758277Y-11700650D01*
X9758277Y-11700650D02*
X9777325Y-11710174D01*
X9777325Y-11710174D02*
X9786848Y-11729222D01*
X9786848Y-11729222D02*
X9786848Y-11833984D01*
X9882086Y-11833984D02*
X9882086Y-11700650D01*
X9882086Y-11719698D02*
X9891610Y-11710174D01*
X9891610Y-11710174D02*
X9910658Y-11700650D01*
X9910658Y-11700650D02*
X9939229Y-11700650D01*
X9939229Y-11700650D02*
X9958277Y-11710174D01*
X9958277Y-11710174D02*
X9967801Y-11729222D01*
X9967801Y-11729222D02*
X9967801Y-11833984D01*
X9967801Y-11729222D02*
X9977325Y-11710174D01*
X9977325Y-11710174D02*
X9996372Y-11700650D01*
X9996372Y-11700650D02*
X10024944Y-11700650D01*
X10024944Y-11700650D02*
X10043991Y-11710174D01*
X10043991Y-11710174D02*
X10053515Y-11729222D01*
X10053515Y-11729222D02*
X10053515Y-11833984D01*
X10443991Y-11624460D02*
X10272563Y-11881603D01*
X10701134Y-11633984D02*
X10720182Y-11633984D01*
X10720182Y-11633984D02*
X10739229Y-11643508D01*
X10739229Y-11643508D02*
X10748753Y-11653031D01*
X10748753Y-11653031D02*
X10758277Y-11672079D01*
X10758277Y-11672079D02*
X10767801Y-11710174D01*
X10767801Y-11710174D02*
X10767801Y-11757793D01*
X10767801Y-11757793D02*
X10758277Y-11795888D01*
X10758277Y-11795888D02*
X10748753Y-11814936D01*
X10748753Y-11814936D02*
X10739229Y-11824460D01*
X10739229Y-11824460D02*
X10720182Y-11833984D01*
X10720182Y-11833984D02*
X10701134Y-11833984D01*
X10701134Y-11833984D02*
X10682087Y-11824460D01*
X10682087Y-11824460D02*
X10672563Y-11814936D01*
X10672563Y-11814936D02*
X10663039Y-11795888D01*
X10663039Y-11795888D02*
X10653515Y-11757793D01*
X10653515Y-11757793D02*
X10653515Y-11710174D01*
X10653515Y-11710174D02*
X10663039Y-11672079D01*
X10663039Y-11672079D02*
X10672563Y-11653031D01*
X10672563Y-11653031D02*
X10682087Y-11643508D01*
X10682087Y-11643508D02*
X10701134Y-11633984D01*
X10863039Y-11824460D02*
X10863039Y-11833984D01*
X10863039Y-11833984D02*
X10853515Y-11853031D01*
X10853515Y-11853031D02*
X10843991Y-11862555D01*
X10986848Y-11633984D02*
X11005896Y-11633984D01*
X11005896Y-11633984D02*
X11024944Y-11643508D01*
X11024944Y-11643508D02*
X11034468Y-11653031D01*
X11034468Y-11653031D02*
X11043991Y-11672079D01*
X11043991Y-11672079D02*
X11053515Y-11710174D01*
X11053515Y-11710174D02*
X11053515Y-11757793D01*
X11053515Y-11757793D02*
X11043991Y-11795888D01*
X11043991Y-11795888D02*
X11034468Y-11814936D01*
X11034468Y-11814936D02*
X11024944Y-11824460D01*
X11024944Y-11824460D02*
X11005896Y-11833984D01*
X11005896Y-11833984D02*
X10986848Y-11833984D01*
X10986848Y-11833984D02*
X10967801Y-11824460D01*
X10967801Y-11824460D02*
X10958277Y-11814936D01*
X10958277Y-11814936D02*
X10948753Y-11795888D01*
X10948753Y-11795888D02*
X10939229Y-11757793D01*
X10939229Y-11757793D02*
X10939229Y-11710174D01*
X10939229Y-11710174D02*
X10948753Y-11672079D01*
X10948753Y-11672079D02*
X10958277Y-11653031D01*
X10958277Y-11653031D02*
X10967801Y-11643508D01*
X10967801Y-11643508D02*
X10986848Y-11633984D01*
X11120182Y-11633984D02*
X11253515Y-11633984D01*
X11253515Y-11633984D02*
X11167801Y-11833984D01*
X11320182Y-11653031D02*
X11329706Y-11643508D01*
X11329706Y-11643508D02*
X11348753Y-11633984D01*
X11348753Y-11633984D02*
X11396372Y-11633984D01*
X11396372Y-11633984D02*
X11415420Y-11643508D01*
X11415420Y-11643508D02*
X11424944Y-11653031D01*
X11424944Y-11653031D02*
X11434467Y-11672079D01*
X11434467Y-11672079D02*
X11434467Y-11691127D01*
X11434467Y-11691127D02*
X11424944Y-11719698D01*
X11424944Y-11719698D02*
X11310658Y-11833984D01*
X11310658Y-11833984D02*
X11434467Y-11833984D01*
X11548753Y-11719698D02*
X11529706Y-11710174D01*
X11529706Y-11710174D02*
X11520182Y-11700650D01*
X11520182Y-11700650D02*
X11510658Y-11681603D01*
X11510658Y-11681603D02*
X11510658Y-11672079D01*
X11510658Y-11672079D02*
X11520182Y-11653031D01*
X11520182Y-11653031D02*
X11529706Y-11643508D01*
X11529706Y-11643508D02*
X11548753Y-11633984D01*
X11548753Y-11633984D02*
X11586848Y-11633984D01*
X11586848Y-11633984D02*
X11605896Y-11643508D01*
X11605896Y-11643508D02*
X11615420Y-11653031D01*
X11615420Y-11653031D02*
X11624944Y-11672079D01*
X11624944Y-11672079D02*
X11624944Y-11681603D01*
X11624944Y-11681603D02*
X11615420Y-11700650D01*
X11615420Y-11700650D02*
X11605896Y-11710174D01*
X11605896Y-11710174D02*
X11586848Y-11719698D01*
X11586848Y-11719698D02*
X11548753Y-11719698D01*
X11548753Y-11719698D02*
X11529706Y-11729222D01*
X11529706Y-11729222D02*
X11520182Y-11738746D01*
X11520182Y-11738746D02*
X11510658Y-11757793D01*
X11510658Y-11757793D02*
X11510658Y-11795888D01*
X11510658Y-11795888D02*
X11520182Y-11814936D01*
X11520182Y-11814936D02*
X11529706Y-11824460D01*
X11529706Y-11824460D02*
X11548753Y-11833984D01*
X11548753Y-11833984D02*
X11586848Y-11833984D01*
X11586848Y-11833984D02*
X11605896Y-11824460D01*
X11605896Y-11824460D02*
X11615420Y-11814936D01*
X11615420Y-11814936D02*
X11624944Y-11795888D01*
X11624944Y-11795888D02*
X11624944Y-11757793D01*
X11624944Y-11757793D02*
X11615420Y-11738746D01*
X11615420Y-11738746D02*
X11605896Y-11729222D01*
X11605896Y-11729222D02*
X11586848Y-11719698D01*
X11701134Y-11633984D02*
X11701134Y-11672079D01*
X11777325Y-11633984D02*
X11777325Y-11672079D01*
X12072563Y-11910174D02*
X12063039Y-11900650D01*
X12063039Y-11900650D02*
X12043991Y-11872079D01*
X12043991Y-11872079D02*
X12034468Y-11853031D01*
X12034468Y-11853031D02*
X12024944Y-11824460D01*
X12024944Y-11824460D02*
X12015420Y-11776841D01*
X12015420Y-11776841D02*
X12015420Y-11738746D01*
X12015420Y-11738746D02*
X12024944Y-11691127D01*
X12024944Y-11691127D02*
X12034468Y-11662555D01*
X12034468Y-11662555D02*
X12043991Y-11643508D01*
X12043991Y-11643508D02*
X12063039Y-11614936D01*
X12063039Y-11614936D02*
X12072563Y-11605412D01*
X12139229Y-11653031D02*
X12148753Y-11643508D01*
X12148753Y-11643508D02*
X12167801Y-11633984D01*
X12167801Y-11633984D02*
X12215420Y-11633984D01*
X12215420Y-11633984D02*
X12234468Y-11643508D01*
X12234468Y-11643508D02*
X12243991Y-11653031D01*
X12243991Y-11653031D02*
X12253515Y-11672079D01*
X12253515Y-11672079D02*
X12253515Y-11691127D01*
X12253515Y-11691127D02*
X12243991Y-11719698D01*
X12243991Y-11719698D02*
X12129706Y-11833984D01*
X12129706Y-11833984D02*
X12253515Y-11833984D01*
X12491610Y-11833984D02*
X12491610Y-11633984D01*
X12577325Y-11833984D02*
X12577325Y-11729222D01*
X12577325Y-11729222D02*
X12567801Y-11710174D01*
X12567801Y-11710174D02*
X12548753Y-11700650D01*
X12548753Y-11700650D02*
X12520182Y-11700650D01*
X12520182Y-11700650D02*
X12501134Y-11710174D01*
X12501134Y-11710174D02*
X12491610Y-11719698D01*
X12701134Y-11833984D02*
X12682087Y-11824460D01*
X12682087Y-11824460D02*
X12672563Y-11814936D01*
X12672563Y-11814936D02*
X12663039Y-11795888D01*
X12663039Y-11795888D02*
X12663039Y-11738746D01*
X12663039Y-11738746D02*
X12672563Y-11719698D01*
X12672563Y-11719698D02*
X12682087Y-11710174D01*
X12682087Y-11710174D02*
X12701134Y-11700650D01*
X12701134Y-11700650D02*
X12729706Y-11700650D01*
X12729706Y-11700650D02*
X12748753Y-11710174D01*
X12748753Y-11710174D02*
X12758277Y-11719698D01*
X12758277Y-11719698D02*
X12767801Y-11738746D01*
X12767801Y-11738746D02*
X12767801Y-11795888D01*
X12767801Y-11795888D02*
X12758277Y-11814936D01*
X12758277Y-11814936D02*
X12748753Y-11824460D01*
X12748753Y-11824460D02*
X12729706Y-11833984D01*
X12729706Y-11833984D02*
X12701134Y-11833984D01*
X12882087Y-11833984D02*
X12863039Y-11824460D01*
X12863039Y-11824460D02*
X12853515Y-11805412D01*
X12853515Y-11805412D02*
X12853515Y-11633984D01*
X13034468Y-11824460D02*
X13015420Y-11833984D01*
X13015420Y-11833984D02*
X12977325Y-11833984D01*
X12977325Y-11833984D02*
X12958277Y-11824460D01*
X12958277Y-11824460D02*
X12948753Y-11805412D01*
X12948753Y-11805412D02*
X12948753Y-11729222D01*
X12948753Y-11729222D02*
X12958277Y-11710174D01*
X12958277Y-11710174D02*
X12977325Y-11700650D01*
X12977325Y-11700650D02*
X13015420Y-11700650D01*
X13015420Y-11700650D02*
X13034468Y-11710174D01*
X13034468Y-11710174D02*
X13043991Y-11729222D01*
X13043991Y-11729222D02*
X13043991Y-11748269D01*
X13043991Y-11748269D02*
X12948753Y-11767317D01*
X13120182Y-11824460D02*
X13139230Y-11833984D01*
X13139230Y-11833984D02*
X13177325Y-11833984D01*
X13177325Y-11833984D02*
X13196372Y-11824460D01*
X13196372Y-11824460D02*
X13205896Y-11805412D01*
X13205896Y-11805412D02*
X13205896Y-11795888D01*
X13205896Y-11795888D02*
X13196372Y-11776841D01*
X13196372Y-11776841D02*
X13177325Y-11767317D01*
X13177325Y-11767317D02*
X13148753Y-11767317D01*
X13148753Y-11767317D02*
X13129706Y-11757793D01*
X13129706Y-11757793D02*
X13120182Y-11738746D01*
X13120182Y-11738746D02*
X13120182Y-11729222D01*
X13120182Y-11729222D02*
X13129706Y-11710174D01*
X13129706Y-11710174D02*
X13148753Y-11700650D01*
X13148753Y-11700650D02*
X13177325Y-11700650D01*
X13177325Y-11700650D02*
X13196372Y-11710174D01*
X13272563Y-11910174D02*
X13282087Y-11900650D01*
X13282087Y-11900650D02*
X13301134Y-11872079D01*
X13301134Y-11872079D02*
X13310658Y-11853031D01*
X13310658Y-11853031D02*
X13320182Y-11824460D01*
X13320182Y-11824460D02*
X13329706Y-11776841D01*
X13329706Y-11776841D02*
X13329706Y-11738746D01*
X13329706Y-11738746D02*
X13320182Y-11691127D01*
X13320182Y-11691127D02*
X13310658Y-11662555D01*
X13310658Y-11662555D02*
X13301134Y-11643508D01*
X13301134Y-11643508D02*
X13282087Y-11614936D01*
X13282087Y-11614936D02*
X13272563Y-11605412D01*
X13634468Y-11910174D02*
X13624944Y-11900650D01*
X13624944Y-11900650D02*
X13605896Y-11872079D01*
X13605896Y-11872079D02*
X13596372Y-11853031D01*
X13596372Y-11853031D02*
X13586849Y-11824460D01*
X13586849Y-11824460D02*
X13577325Y-11776841D01*
X13577325Y-11776841D02*
X13577325Y-11738746D01*
X13577325Y-11738746D02*
X13586849Y-11691127D01*
X13586849Y-11691127D02*
X13596372Y-11662555D01*
X13596372Y-11662555D02*
X13605896Y-11643508D01*
X13605896Y-11643508D02*
X13624944Y-11614936D01*
X13624944Y-11614936D02*
X13634468Y-11605412D01*
X13710658Y-11700650D02*
X13710658Y-11833984D01*
X13710658Y-11719698D02*
X13720182Y-11710174D01*
X13720182Y-11710174D02*
X13739230Y-11700650D01*
X13739230Y-11700650D02*
X13767801Y-11700650D01*
X13767801Y-11700650D02*
X13786849Y-11710174D01*
X13786849Y-11710174D02*
X13796372Y-11729222D01*
X13796372Y-11729222D02*
X13796372Y-11833984D01*
X13920182Y-11833984D02*
X13901134Y-11824460D01*
X13901134Y-11824460D02*
X13891611Y-11814936D01*
X13891611Y-11814936D02*
X13882087Y-11795888D01*
X13882087Y-11795888D02*
X13882087Y-11738746D01*
X13882087Y-11738746D02*
X13891611Y-11719698D01*
X13891611Y-11719698D02*
X13901134Y-11710174D01*
X13901134Y-11710174D02*
X13920182Y-11700650D01*
X13920182Y-11700650D02*
X13948753Y-11700650D01*
X13948753Y-11700650D02*
X13967801Y-11710174D01*
X13967801Y-11710174D02*
X13977325Y-11719698D01*
X13977325Y-11719698D02*
X13986849Y-11738746D01*
X13986849Y-11738746D02*
X13986849Y-11795888D01*
X13986849Y-11795888D02*
X13977325Y-11814936D01*
X13977325Y-11814936D02*
X13967801Y-11824460D01*
X13967801Y-11824460D02*
X13948753Y-11833984D01*
X13948753Y-11833984D02*
X13920182Y-11833984D01*
X14043992Y-11700650D02*
X14120182Y-11700650D01*
X14072563Y-11633984D02*
X14072563Y-11805412D01*
X14072563Y-11805412D02*
X14082087Y-11824460D01*
X14082087Y-11824460D02*
X14101134Y-11833984D01*
X14101134Y-11833984D02*
X14120182Y-11833984D01*
X14339230Y-11700650D02*
X14339230Y-11900650D01*
X14339230Y-11710174D02*
X14358277Y-11700650D01*
X14358277Y-11700650D02*
X14396373Y-11700650D01*
X14396373Y-11700650D02*
X14415420Y-11710174D01*
X14415420Y-11710174D02*
X14424944Y-11719698D01*
X14424944Y-11719698D02*
X14434468Y-11738746D01*
X14434468Y-11738746D02*
X14434468Y-11795888D01*
X14434468Y-11795888D02*
X14424944Y-11814936D01*
X14424944Y-11814936D02*
X14415420Y-11824460D01*
X14415420Y-11824460D02*
X14396373Y-11833984D01*
X14396373Y-11833984D02*
X14358277Y-11833984D01*
X14358277Y-11833984D02*
X14339230Y-11824460D01*
X14548753Y-11833984D02*
X14529706Y-11824460D01*
X14529706Y-11824460D02*
X14520182Y-11805412D01*
X14520182Y-11805412D02*
X14520182Y-11633984D01*
X14710658Y-11833984D02*
X14710658Y-11729222D01*
X14710658Y-11729222D02*
X14701134Y-11710174D01*
X14701134Y-11710174D02*
X14682087Y-11700650D01*
X14682087Y-11700650D02*
X14643992Y-11700650D01*
X14643992Y-11700650D02*
X14624944Y-11710174D01*
X14710658Y-11824460D02*
X14691611Y-11833984D01*
X14691611Y-11833984D02*
X14643992Y-11833984D01*
X14643992Y-11833984D02*
X14624944Y-11824460D01*
X14624944Y-11824460D02*
X14615420Y-11805412D01*
X14615420Y-11805412D02*
X14615420Y-11786365D01*
X14615420Y-11786365D02*
X14624944Y-11767317D01*
X14624944Y-11767317D02*
X14643992Y-11757793D01*
X14643992Y-11757793D02*
X14691611Y-11757793D01*
X14691611Y-11757793D02*
X14710658Y-11748269D01*
X14777325Y-11700650D02*
X14853515Y-11700650D01*
X14805896Y-11633984D02*
X14805896Y-11805412D01*
X14805896Y-11805412D02*
X14815420Y-11824460D01*
X14815420Y-11824460D02*
X14834468Y-11833984D01*
X14834468Y-11833984D02*
X14853515Y-11833984D01*
X14996373Y-11824460D02*
X14977325Y-11833984D01*
X14977325Y-11833984D02*
X14939230Y-11833984D01*
X14939230Y-11833984D02*
X14920182Y-11824460D01*
X14920182Y-11824460D02*
X14910658Y-11805412D01*
X14910658Y-11805412D02*
X14910658Y-11729222D01*
X14910658Y-11729222D02*
X14920182Y-11710174D01*
X14920182Y-11710174D02*
X14939230Y-11700650D01*
X14939230Y-11700650D02*
X14977325Y-11700650D01*
X14977325Y-11700650D02*
X14996373Y-11710174D01*
X14996373Y-11710174D02*
X15005896Y-11729222D01*
X15005896Y-11729222D02*
X15005896Y-11748269D01*
X15005896Y-11748269D02*
X14910658Y-11767317D01*
X15177325Y-11833984D02*
X15177325Y-11633984D01*
X15177325Y-11824460D02*
X15158277Y-11833984D01*
X15158277Y-11833984D02*
X15120182Y-11833984D01*
X15120182Y-11833984D02*
X15101134Y-11824460D01*
X15101134Y-11824460D02*
X15091611Y-11814936D01*
X15091611Y-11814936D02*
X15082087Y-11795888D01*
X15082087Y-11795888D02*
X15082087Y-11738746D01*
X15082087Y-11738746D02*
X15091611Y-11719698D01*
X15091611Y-11719698D02*
X15101134Y-11710174D01*
X15101134Y-11710174D02*
X15120182Y-11700650D01*
X15120182Y-11700650D02*
X15158277Y-11700650D01*
X15158277Y-11700650D02*
X15177325Y-11710174D01*
X15253515Y-11910174D02*
X15263039Y-11900650D01*
X15263039Y-11900650D02*
X15282087Y-11872079D01*
X15282087Y-11872079D02*
X15291611Y-11853031D01*
X15291611Y-11853031D02*
X15301134Y-11824460D01*
X15301134Y-11824460D02*
X15310658Y-11776841D01*
X15310658Y-11776841D02*
X15310658Y-11738746D01*
X15310658Y-11738746D02*
X15301134Y-11691127D01*
X15301134Y-11691127D02*
X15291611Y-11662555D01*
X15291611Y-11662555D02*
X15282087Y-11643508D01*
X15282087Y-11643508D02*
X15263039Y-11614936D01*
X15263039Y-11614936D02*
X15253515Y-11605412D01*
X8497500Y-12047500D02*
G75*
G02*
X8297500Y-12047500I-100000J0D01*
G01*
X8297500Y-12047500D02*
G75*
G02*
X8497500Y-12047500I100000J0D01*
G01*
X8748753Y-11958031D02*
X8758277Y-11948508D01*
X8758277Y-11948508D02*
X8777324Y-11938984D01*
X8777324Y-11938984D02*
X8824944Y-11938984D01*
X8824944Y-11938984D02*
X8843991Y-11948508D01*
X8843991Y-11948508D02*
X8853515Y-11958031D01*
X8853515Y-11958031D02*
X8863039Y-11977079D01*
X8863039Y-11977079D02*
X8863039Y-11996127D01*
X8863039Y-11996127D02*
X8853515Y-12024698D01*
X8853515Y-12024698D02*
X8739229Y-12138984D01*
X8739229Y-12138984D02*
X8863039Y-12138984D01*
X8958277Y-12129460D02*
X8958277Y-12138984D01*
X8958277Y-12138984D02*
X8948753Y-12158031D01*
X8948753Y-12158031D02*
X8939229Y-12167555D01*
X9034467Y-11958031D02*
X9043991Y-11948508D01*
X9043991Y-11948508D02*
X9063039Y-11938984D01*
X9063039Y-11938984D02*
X9110658Y-11938984D01*
X9110658Y-11938984D02*
X9129705Y-11948508D01*
X9129705Y-11948508D02*
X9139229Y-11958031D01*
X9139229Y-11958031D02*
X9148753Y-11977079D01*
X9148753Y-11977079D02*
X9148753Y-11996127D01*
X9148753Y-11996127D02*
X9139229Y-12024698D01*
X9139229Y-12024698D02*
X9024944Y-12138984D01*
X9024944Y-12138984D02*
X9148753Y-12138984D01*
X9272563Y-11938984D02*
X9291610Y-11938984D01*
X9291610Y-11938984D02*
X9310658Y-11948508D01*
X9310658Y-11948508D02*
X9320182Y-11958031D01*
X9320182Y-11958031D02*
X9329705Y-11977079D01*
X9329705Y-11977079D02*
X9339229Y-12015174D01*
X9339229Y-12015174D02*
X9339229Y-12062793D01*
X9339229Y-12062793D02*
X9329705Y-12100888D01*
X9329705Y-12100888D02*
X9320182Y-12119936D01*
X9320182Y-12119936D02*
X9310658Y-12129460D01*
X9310658Y-12129460D02*
X9291610Y-12138984D01*
X9291610Y-12138984D02*
X9272563Y-12138984D01*
X9272563Y-12138984D02*
X9253515Y-12129460D01*
X9253515Y-12129460D02*
X9243991Y-12119936D01*
X9243991Y-12119936D02*
X9234467Y-12100888D01*
X9234467Y-12100888D02*
X9224944Y-12062793D01*
X9224944Y-12062793D02*
X9224944Y-12015174D01*
X9224944Y-12015174D02*
X9234467Y-11977079D01*
X9234467Y-11977079D02*
X9243991Y-11958031D01*
X9243991Y-11958031D02*
X9253515Y-11948508D01*
X9253515Y-11948508D02*
X9272563Y-11938984D01*
X9463039Y-11938984D02*
X9482086Y-11938984D01*
X9482086Y-11938984D02*
X9501134Y-11948508D01*
X9501134Y-11948508D02*
X9510658Y-11958031D01*
X9510658Y-11958031D02*
X9520182Y-11977079D01*
X9520182Y-11977079D02*
X9529705Y-12015174D01*
X9529705Y-12015174D02*
X9529705Y-12062793D01*
X9529705Y-12062793D02*
X9520182Y-12100888D01*
X9520182Y-12100888D02*
X9510658Y-12119936D01*
X9510658Y-12119936D02*
X9501134Y-12129460D01*
X9501134Y-12129460D02*
X9482086Y-12138984D01*
X9482086Y-12138984D02*
X9463039Y-12138984D01*
X9463039Y-12138984D02*
X9443991Y-12129460D01*
X9443991Y-12129460D02*
X9434467Y-12119936D01*
X9434467Y-12119936D02*
X9424944Y-12100888D01*
X9424944Y-12100888D02*
X9415420Y-12062793D01*
X9415420Y-12062793D02*
X9415420Y-12015174D01*
X9415420Y-12015174D02*
X9424944Y-11977079D01*
X9424944Y-11977079D02*
X9434467Y-11958031D01*
X9434467Y-11958031D02*
X9443991Y-11948508D01*
X9443991Y-11948508D02*
X9463039Y-11938984D01*
X9615420Y-12138984D02*
X9615420Y-12005650D01*
X9615420Y-12024698D02*
X9624944Y-12015174D01*
X9624944Y-12015174D02*
X9643991Y-12005650D01*
X9643991Y-12005650D02*
X9672563Y-12005650D01*
X9672563Y-12005650D02*
X9691610Y-12015174D01*
X9691610Y-12015174D02*
X9701134Y-12034222D01*
X9701134Y-12034222D02*
X9701134Y-12138984D01*
X9701134Y-12034222D02*
X9710658Y-12015174D01*
X9710658Y-12015174D02*
X9729705Y-12005650D01*
X9729705Y-12005650D02*
X9758277Y-12005650D01*
X9758277Y-12005650D02*
X9777325Y-12015174D01*
X9777325Y-12015174D02*
X9786848Y-12034222D01*
X9786848Y-12034222D02*
X9786848Y-12138984D01*
X9882086Y-12138984D02*
X9882086Y-12005650D01*
X9882086Y-12024698D02*
X9891610Y-12015174D01*
X9891610Y-12015174D02*
X9910658Y-12005650D01*
X9910658Y-12005650D02*
X9939229Y-12005650D01*
X9939229Y-12005650D02*
X9958277Y-12015174D01*
X9958277Y-12015174D02*
X9967801Y-12034222D01*
X9967801Y-12034222D02*
X9967801Y-12138984D01*
X9967801Y-12034222D02*
X9977325Y-12015174D01*
X9977325Y-12015174D02*
X9996372Y-12005650D01*
X9996372Y-12005650D02*
X10024944Y-12005650D01*
X10024944Y-12005650D02*
X10043991Y-12015174D01*
X10043991Y-12015174D02*
X10053515Y-12034222D01*
X10053515Y-12034222D02*
X10053515Y-12138984D01*
X10443991Y-11929460D02*
X10272563Y-12186603D01*
X10701134Y-11938984D02*
X10720182Y-11938984D01*
X10720182Y-11938984D02*
X10739229Y-11948508D01*
X10739229Y-11948508D02*
X10748753Y-11958031D01*
X10748753Y-11958031D02*
X10758277Y-11977079D01*
X10758277Y-11977079D02*
X10767801Y-12015174D01*
X10767801Y-12015174D02*
X10767801Y-12062793D01*
X10767801Y-12062793D02*
X10758277Y-12100888D01*
X10758277Y-12100888D02*
X10748753Y-12119936D01*
X10748753Y-12119936D02*
X10739229Y-12129460D01*
X10739229Y-12129460D02*
X10720182Y-12138984D01*
X10720182Y-12138984D02*
X10701134Y-12138984D01*
X10701134Y-12138984D02*
X10682087Y-12129460D01*
X10682087Y-12129460D02*
X10672563Y-12119936D01*
X10672563Y-12119936D02*
X10663039Y-12100888D01*
X10663039Y-12100888D02*
X10653515Y-12062793D01*
X10653515Y-12062793D02*
X10653515Y-12015174D01*
X10653515Y-12015174D02*
X10663039Y-11977079D01*
X10663039Y-11977079D02*
X10672563Y-11958031D01*
X10672563Y-11958031D02*
X10682087Y-11948508D01*
X10682087Y-11948508D02*
X10701134Y-11938984D01*
X10863039Y-12129460D02*
X10863039Y-12138984D01*
X10863039Y-12138984D02*
X10853515Y-12158031D01*
X10853515Y-12158031D02*
X10843991Y-12167555D01*
X10986848Y-11938984D02*
X11005896Y-11938984D01*
X11005896Y-11938984D02*
X11024944Y-11948508D01*
X11024944Y-11948508D02*
X11034468Y-11958031D01*
X11034468Y-11958031D02*
X11043991Y-11977079D01*
X11043991Y-11977079D02*
X11053515Y-12015174D01*
X11053515Y-12015174D02*
X11053515Y-12062793D01*
X11053515Y-12062793D02*
X11043991Y-12100888D01*
X11043991Y-12100888D02*
X11034468Y-12119936D01*
X11034468Y-12119936D02*
X11024944Y-12129460D01*
X11024944Y-12129460D02*
X11005896Y-12138984D01*
X11005896Y-12138984D02*
X10986848Y-12138984D01*
X10986848Y-12138984D02*
X10967801Y-12129460D01*
X10967801Y-12129460D02*
X10958277Y-12119936D01*
X10958277Y-12119936D02*
X10948753Y-12100888D01*
X10948753Y-12100888D02*
X10939229Y-12062793D01*
X10939229Y-12062793D02*
X10939229Y-12015174D01*
X10939229Y-12015174D02*
X10948753Y-11977079D01*
X10948753Y-11977079D02*
X10958277Y-11958031D01*
X10958277Y-11958031D02*
X10967801Y-11948508D01*
X10967801Y-11948508D02*
X10986848Y-11938984D01*
X11167801Y-12024698D02*
X11148753Y-12015174D01*
X11148753Y-12015174D02*
X11139229Y-12005650D01*
X11139229Y-12005650D02*
X11129706Y-11986603D01*
X11129706Y-11986603D02*
X11129706Y-11977079D01*
X11129706Y-11977079D02*
X11139229Y-11958031D01*
X11139229Y-11958031D02*
X11148753Y-11948508D01*
X11148753Y-11948508D02*
X11167801Y-11938984D01*
X11167801Y-11938984D02*
X11205896Y-11938984D01*
X11205896Y-11938984D02*
X11224944Y-11948508D01*
X11224944Y-11948508D02*
X11234467Y-11958031D01*
X11234467Y-11958031D02*
X11243991Y-11977079D01*
X11243991Y-11977079D02*
X11243991Y-11986603D01*
X11243991Y-11986603D02*
X11234467Y-12005650D01*
X11234467Y-12005650D02*
X11224944Y-12015174D01*
X11224944Y-12015174D02*
X11205896Y-12024698D01*
X11205896Y-12024698D02*
X11167801Y-12024698D01*
X11167801Y-12024698D02*
X11148753Y-12034222D01*
X11148753Y-12034222D02*
X11139229Y-12043746D01*
X11139229Y-12043746D02*
X11129706Y-12062793D01*
X11129706Y-12062793D02*
X11129706Y-12100888D01*
X11129706Y-12100888D02*
X11139229Y-12119936D01*
X11139229Y-12119936D02*
X11148753Y-12129460D01*
X11148753Y-12129460D02*
X11167801Y-12138984D01*
X11167801Y-12138984D02*
X11205896Y-12138984D01*
X11205896Y-12138984D02*
X11224944Y-12129460D01*
X11224944Y-12129460D02*
X11234467Y-12119936D01*
X11234467Y-12119936D02*
X11243991Y-12100888D01*
X11243991Y-12100888D02*
X11243991Y-12062793D01*
X11243991Y-12062793D02*
X11234467Y-12043746D01*
X11234467Y-12043746D02*
X11224944Y-12034222D01*
X11224944Y-12034222D02*
X11205896Y-12024698D01*
X11415420Y-11938984D02*
X11377325Y-11938984D01*
X11377325Y-11938984D02*
X11358277Y-11948508D01*
X11358277Y-11948508D02*
X11348753Y-11958031D01*
X11348753Y-11958031D02*
X11329706Y-11986603D01*
X11329706Y-11986603D02*
X11320182Y-12024698D01*
X11320182Y-12024698D02*
X11320182Y-12100888D01*
X11320182Y-12100888D02*
X11329706Y-12119936D01*
X11329706Y-12119936D02*
X11339229Y-12129460D01*
X11339229Y-12129460D02*
X11358277Y-12138984D01*
X11358277Y-12138984D02*
X11396372Y-12138984D01*
X11396372Y-12138984D02*
X11415420Y-12129460D01*
X11415420Y-12129460D02*
X11424944Y-12119936D01*
X11424944Y-12119936D02*
X11434467Y-12100888D01*
X11434467Y-12100888D02*
X11434467Y-12053269D01*
X11434467Y-12053269D02*
X11424944Y-12034222D01*
X11424944Y-12034222D02*
X11415420Y-12024698D01*
X11415420Y-12024698D02*
X11396372Y-12015174D01*
X11396372Y-12015174D02*
X11358277Y-12015174D01*
X11358277Y-12015174D02*
X11339229Y-12024698D01*
X11339229Y-12024698D02*
X11329706Y-12034222D01*
X11329706Y-12034222D02*
X11320182Y-12053269D01*
X11605896Y-11938984D02*
X11567801Y-11938984D01*
X11567801Y-11938984D02*
X11548753Y-11948508D01*
X11548753Y-11948508D02*
X11539229Y-11958031D01*
X11539229Y-11958031D02*
X11520182Y-11986603D01*
X11520182Y-11986603D02*
X11510658Y-12024698D01*
X11510658Y-12024698D02*
X11510658Y-12100888D01*
X11510658Y-12100888D02*
X11520182Y-12119936D01*
X11520182Y-12119936D02*
X11529706Y-12129460D01*
X11529706Y-12129460D02*
X11548753Y-12138984D01*
X11548753Y-12138984D02*
X11586848Y-12138984D01*
X11586848Y-12138984D02*
X11605896Y-12129460D01*
X11605896Y-12129460D02*
X11615420Y-12119936D01*
X11615420Y-12119936D02*
X11624944Y-12100888D01*
X11624944Y-12100888D02*
X11624944Y-12053269D01*
X11624944Y-12053269D02*
X11615420Y-12034222D01*
X11615420Y-12034222D02*
X11605896Y-12024698D01*
X11605896Y-12024698D02*
X11586848Y-12015174D01*
X11586848Y-12015174D02*
X11548753Y-12015174D01*
X11548753Y-12015174D02*
X11529706Y-12024698D01*
X11529706Y-12024698D02*
X11520182Y-12034222D01*
X11520182Y-12034222D02*
X11510658Y-12053269D01*
X11701134Y-11938984D02*
X11701134Y-11977079D01*
X11777325Y-11938984D02*
X11777325Y-11977079D01*
X12072563Y-12215174D02*
X12063039Y-12205650D01*
X12063039Y-12205650D02*
X12043991Y-12177079D01*
X12043991Y-12177079D02*
X12034468Y-12158031D01*
X12034468Y-12158031D02*
X12024944Y-12129460D01*
X12024944Y-12129460D02*
X12015420Y-12081841D01*
X12015420Y-12081841D02*
X12015420Y-12043746D01*
X12015420Y-12043746D02*
X12024944Y-11996127D01*
X12024944Y-11996127D02*
X12034468Y-11967555D01*
X12034468Y-11967555D02*
X12043991Y-11948508D01*
X12043991Y-11948508D02*
X12063039Y-11919936D01*
X12063039Y-11919936D02*
X12072563Y-11910412D01*
X12139229Y-11958031D02*
X12148753Y-11948508D01*
X12148753Y-11948508D02*
X12167801Y-11938984D01*
X12167801Y-11938984D02*
X12215420Y-11938984D01*
X12215420Y-11938984D02*
X12234468Y-11948508D01*
X12234468Y-11948508D02*
X12243991Y-11958031D01*
X12243991Y-11958031D02*
X12253515Y-11977079D01*
X12253515Y-11977079D02*
X12253515Y-11996127D01*
X12253515Y-11996127D02*
X12243991Y-12024698D01*
X12243991Y-12024698D02*
X12129706Y-12138984D01*
X12129706Y-12138984D02*
X12253515Y-12138984D01*
X12491610Y-12138984D02*
X12491610Y-11938984D01*
X12577325Y-12138984D02*
X12577325Y-12034222D01*
X12577325Y-12034222D02*
X12567801Y-12015174D01*
X12567801Y-12015174D02*
X12548753Y-12005650D01*
X12548753Y-12005650D02*
X12520182Y-12005650D01*
X12520182Y-12005650D02*
X12501134Y-12015174D01*
X12501134Y-12015174D02*
X12491610Y-12024698D01*
X12701134Y-12138984D02*
X12682087Y-12129460D01*
X12682087Y-12129460D02*
X12672563Y-12119936D01*
X12672563Y-12119936D02*
X12663039Y-12100888D01*
X12663039Y-12100888D02*
X12663039Y-12043746D01*
X12663039Y-12043746D02*
X12672563Y-12024698D01*
X12672563Y-12024698D02*
X12682087Y-12015174D01*
X12682087Y-12015174D02*
X12701134Y-12005650D01*
X12701134Y-12005650D02*
X12729706Y-12005650D01*
X12729706Y-12005650D02*
X12748753Y-12015174D01*
X12748753Y-12015174D02*
X12758277Y-12024698D01*
X12758277Y-12024698D02*
X12767801Y-12043746D01*
X12767801Y-12043746D02*
X12767801Y-12100888D01*
X12767801Y-12100888D02*
X12758277Y-12119936D01*
X12758277Y-12119936D02*
X12748753Y-12129460D01*
X12748753Y-12129460D02*
X12729706Y-12138984D01*
X12729706Y-12138984D02*
X12701134Y-12138984D01*
X12882087Y-12138984D02*
X12863039Y-12129460D01*
X12863039Y-12129460D02*
X12853515Y-12110412D01*
X12853515Y-12110412D02*
X12853515Y-11938984D01*
X13034468Y-12129460D02*
X13015420Y-12138984D01*
X13015420Y-12138984D02*
X12977325Y-12138984D01*
X12977325Y-12138984D02*
X12958277Y-12129460D01*
X12958277Y-12129460D02*
X12948753Y-12110412D01*
X12948753Y-12110412D02*
X12948753Y-12034222D01*
X12948753Y-12034222D02*
X12958277Y-12015174D01*
X12958277Y-12015174D02*
X12977325Y-12005650D01*
X12977325Y-12005650D02*
X13015420Y-12005650D01*
X13015420Y-12005650D02*
X13034468Y-12015174D01*
X13034468Y-12015174D02*
X13043991Y-12034222D01*
X13043991Y-12034222D02*
X13043991Y-12053269D01*
X13043991Y-12053269D02*
X12948753Y-12072317D01*
X13120182Y-12129460D02*
X13139230Y-12138984D01*
X13139230Y-12138984D02*
X13177325Y-12138984D01*
X13177325Y-12138984D02*
X13196372Y-12129460D01*
X13196372Y-12129460D02*
X13205896Y-12110412D01*
X13205896Y-12110412D02*
X13205896Y-12100888D01*
X13205896Y-12100888D02*
X13196372Y-12081841D01*
X13196372Y-12081841D02*
X13177325Y-12072317D01*
X13177325Y-12072317D02*
X13148753Y-12072317D01*
X13148753Y-12072317D02*
X13129706Y-12062793D01*
X13129706Y-12062793D02*
X13120182Y-12043746D01*
X13120182Y-12043746D02*
X13120182Y-12034222D01*
X13120182Y-12034222D02*
X13129706Y-12015174D01*
X13129706Y-12015174D02*
X13148753Y-12005650D01*
X13148753Y-12005650D02*
X13177325Y-12005650D01*
X13177325Y-12005650D02*
X13196372Y-12015174D01*
X13272563Y-12215174D02*
X13282087Y-12205650D01*
X13282087Y-12205650D02*
X13301134Y-12177079D01*
X13301134Y-12177079D02*
X13310658Y-12158031D01*
X13310658Y-12158031D02*
X13320182Y-12129460D01*
X13320182Y-12129460D02*
X13329706Y-12081841D01*
X13329706Y-12081841D02*
X13329706Y-12043746D01*
X13329706Y-12043746D02*
X13320182Y-11996127D01*
X13320182Y-11996127D02*
X13310658Y-11967555D01*
X13310658Y-11967555D02*
X13301134Y-11948508D01*
X13301134Y-11948508D02*
X13282087Y-11919936D01*
X13282087Y-11919936D02*
X13272563Y-11910412D01*
X13634468Y-12215174D02*
X13624944Y-12205650D01*
X13624944Y-12205650D02*
X13605896Y-12177079D01*
X13605896Y-12177079D02*
X13596372Y-12158031D01*
X13596372Y-12158031D02*
X13586849Y-12129460D01*
X13586849Y-12129460D02*
X13577325Y-12081841D01*
X13577325Y-12081841D02*
X13577325Y-12043746D01*
X13577325Y-12043746D02*
X13586849Y-11996127D01*
X13586849Y-11996127D02*
X13596372Y-11967555D01*
X13596372Y-11967555D02*
X13605896Y-11948508D01*
X13605896Y-11948508D02*
X13624944Y-11919936D01*
X13624944Y-11919936D02*
X13634468Y-11910412D01*
X13710658Y-12005650D02*
X13710658Y-12138984D01*
X13710658Y-12024698D02*
X13720182Y-12015174D01*
X13720182Y-12015174D02*
X13739230Y-12005650D01*
X13739230Y-12005650D02*
X13767801Y-12005650D01*
X13767801Y-12005650D02*
X13786849Y-12015174D01*
X13786849Y-12015174D02*
X13796372Y-12034222D01*
X13796372Y-12034222D02*
X13796372Y-12138984D01*
X13920182Y-12138984D02*
X13901134Y-12129460D01*
X13901134Y-12129460D02*
X13891611Y-12119936D01*
X13891611Y-12119936D02*
X13882087Y-12100888D01*
X13882087Y-12100888D02*
X13882087Y-12043746D01*
X13882087Y-12043746D02*
X13891611Y-12024698D01*
X13891611Y-12024698D02*
X13901134Y-12015174D01*
X13901134Y-12015174D02*
X13920182Y-12005650D01*
X13920182Y-12005650D02*
X13948753Y-12005650D01*
X13948753Y-12005650D02*
X13967801Y-12015174D01*
X13967801Y-12015174D02*
X13977325Y-12024698D01*
X13977325Y-12024698D02*
X13986849Y-12043746D01*
X13986849Y-12043746D02*
X13986849Y-12100888D01*
X13986849Y-12100888D02*
X13977325Y-12119936D01*
X13977325Y-12119936D02*
X13967801Y-12129460D01*
X13967801Y-12129460D02*
X13948753Y-12138984D01*
X13948753Y-12138984D02*
X13920182Y-12138984D01*
X14043992Y-12005650D02*
X14120182Y-12005650D01*
X14072563Y-11938984D02*
X14072563Y-12110412D01*
X14072563Y-12110412D02*
X14082087Y-12129460D01*
X14082087Y-12129460D02*
X14101134Y-12138984D01*
X14101134Y-12138984D02*
X14120182Y-12138984D01*
X14339230Y-12005650D02*
X14339230Y-12205650D01*
X14339230Y-12015174D02*
X14358277Y-12005650D01*
X14358277Y-12005650D02*
X14396373Y-12005650D01*
X14396373Y-12005650D02*
X14415420Y-12015174D01*
X14415420Y-12015174D02*
X14424944Y-12024698D01*
X14424944Y-12024698D02*
X14434468Y-12043746D01*
X14434468Y-12043746D02*
X14434468Y-12100888D01*
X14434468Y-12100888D02*
X14424944Y-12119936D01*
X14424944Y-12119936D02*
X14415420Y-12129460D01*
X14415420Y-12129460D02*
X14396373Y-12138984D01*
X14396373Y-12138984D02*
X14358277Y-12138984D01*
X14358277Y-12138984D02*
X14339230Y-12129460D01*
X14548753Y-12138984D02*
X14529706Y-12129460D01*
X14529706Y-12129460D02*
X14520182Y-12110412D01*
X14520182Y-12110412D02*
X14520182Y-11938984D01*
X14710658Y-12138984D02*
X14710658Y-12034222D01*
X14710658Y-12034222D02*
X14701134Y-12015174D01*
X14701134Y-12015174D02*
X14682087Y-12005650D01*
X14682087Y-12005650D02*
X14643992Y-12005650D01*
X14643992Y-12005650D02*
X14624944Y-12015174D01*
X14710658Y-12129460D02*
X14691611Y-12138984D01*
X14691611Y-12138984D02*
X14643992Y-12138984D01*
X14643992Y-12138984D02*
X14624944Y-12129460D01*
X14624944Y-12129460D02*
X14615420Y-12110412D01*
X14615420Y-12110412D02*
X14615420Y-12091365D01*
X14615420Y-12091365D02*
X14624944Y-12072317D01*
X14624944Y-12072317D02*
X14643992Y-12062793D01*
X14643992Y-12062793D02*
X14691611Y-12062793D01*
X14691611Y-12062793D02*
X14710658Y-12053269D01*
X14777325Y-12005650D02*
X14853515Y-12005650D01*
X14805896Y-11938984D02*
X14805896Y-12110412D01*
X14805896Y-12110412D02*
X14815420Y-12129460D01*
X14815420Y-12129460D02*
X14834468Y-12138984D01*
X14834468Y-12138984D02*
X14853515Y-12138984D01*
X14996373Y-12129460D02*
X14977325Y-12138984D01*
X14977325Y-12138984D02*
X14939230Y-12138984D01*
X14939230Y-12138984D02*
X14920182Y-12129460D01*
X14920182Y-12129460D02*
X14910658Y-12110412D01*
X14910658Y-12110412D02*
X14910658Y-12034222D01*
X14910658Y-12034222D02*
X14920182Y-12015174D01*
X14920182Y-12015174D02*
X14939230Y-12005650D01*
X14939230Y-12005650D02*
X14977325Y-12005650D01*
X14977325Y-12005650D02*
X14996373Y-12015174D01*
X14996373Y-12015174D02*
X15005896Y-12034222D01*
X15005896Y-12034222D02*
X15005896Y-12053269D01*
X15005896Y-12053269D02*
X14910658Y-12072317D01*
X15177325Y-12138984D02*
X15177325Y-11938984D01*
X15177325Y-12129460D02*
X15158277Y-12138984D01*
X15158277Y-12138984D02*
X15120182Y-12138984D01*
X15120182Y-12138984D02*
X15101134Y-12129460D01*
X15101134Y-12129460D02*
X15091611Y-12119936D01*
X15091611Y-12119936D02*
X15082087Y-12100888D01*
X15082087Y-12100888D02*
X15082087Y-12043746D01*
X15082087Y-12043746D02*
X15091611Y-12024698D01*
X15091611Y-12024698D02*
X15101134Y-12015174D01*
X15101134Y-12015174D02*
X15120182Y-12005650D01*
X15120182Y-12005650D02*
X15158277Y-12005650D01*
X15158277Y-12005650D02*
X15177325Y-12015174D01*
X15253515Y-12215174D02*
X15263039Y-12205650D01*
X15263039Y-12205650D02*
X15282087Y-12177079D01*
X15282087Y-12177079D02*
X15291611Y-12158031D01*
X15291611Y-12158031D02*
X15301134Y-12129460D01*
X15301134Y-12129460D02*
X15310658Y-12081841D01*
X15310658Y-12081841D02*
X15310658Y-12043746D01*
X15310658Y-12043746D02*
X15301134Y-11996127D01*
X15301134Y-11996127D02*
X15291611Y-11967555D01*
X15291611Y-11967555D02*
X15282087Y-11948508D01*
X15282087Y-11948508D02*
X15263039Y-11919936D01*
X15263039Y-11919936D02*
X15253515Y-11910412D01*
X8397500Y-12267500D02*
X8397500Y-12467500D01*
X8297500Y-12367500D02*
X8497500Y-12367500D01*
X8748753Y-12278031D02*
X8758277Y-12268508D01*
X8758277Y-12268508D02*
X8777324Y-12258984D01*
X8777324Y-12258984D02*
X8824944Y-12258984D01*
X8824944Y-12258984D02*
X8843991Y-12268508D01*
X8843991Y-12268508D02*
X8853515Y-12278031D01*
X8853515Y-12278031D02*
X8863039Y-12297079D01*
X8863039Y-12297079D02*
X8863039Y-12316127D01*
X8863039Y-12316127D02*
X8853515Y-12344698D01*
X8853515Y-12344698D02*
X8739229Y-12458984D01*
X8739229Y-12458984D02*
X8863039Y-12458984D01*
X8958277Y-12449460D02*
X8958277Y-12458984D01*
X8958277Y-12458984D02*
X8948753Y-12478031D01*
X8948753Y-12478031D02*
X8939229Y-12487555D01*
X9139229Y-12258984D02*
X9043991Y-12258984D01*
X9043991Y-12258984D02*
X9034467Y-12354222D01*
X9034467Y-12354222D02*
X9043991Y-12344698D01*
X9043991Y-12344698D02*
X9063039Y-12335174D01*
X9063039Y-12335174D02*
X9110658Y-12335174D01*
X9110658Y-12335174D02*
X9129705Y-12344698D01*
X9129705Y-12344698D02*
X9139229Y-12354222D01*
X9139229Y-12354222D02*
X9148753Y-12373269D01*
X9148753Y-12373269D02*
X9148753Y-12420888D01*
X9148753Y-12420888D02*
X9139229Y-12439936D01*
X9139229Y-12439936D02*
X9129705Y-12449460D01*
X9129705Y-12449460D02*
X9110658Y-12458984D01*
X9110658Y-12458984D02*
X9063039Y-12458984D01*
X9063039Y-12458984D02*
X9043991Y-12449460D01*
X9043991Y-12449460D02*
X9034467Y-12439936D01*
X9272563Y-12258984D02*
X9291610Y-12258984D01*
X9291610Y-12258984D02*
X9310658Y-12268508D01*
X9310658Y-12268508D02*
X9320182Y-12278031D01*
X9320182Y-12278031D02*
X9329705Y-12297079D01*
X9329705Y-12297079D02*
X9339229Y-12335174D01*
X9339229Y-12335174D02*
X9339229Y-12382793D01*
X9339229Y-12382793D02*
X9329705Y-12420888D01*
X9329705Y-12420888D02*
X9320182Y-12439936D01*
X9320182Y-12439936D02*
X9310658Y-12449460D01*
X9310658Y-12449460D02*
X9291610Y-12458984D01*
X9291610Y-12458984D02*
X9272563Y-12458984D01*
X9272563Y-12458984D02*
X9253515Y-12449460D01*
X9253515Y-12449460D02*
X9243991Y-12439936D01*
X9243991Y-12439936D02*
X9234467Y-12420888D01*
X9234467Y-12420888D02*
X9224944Y-12382793D01*
X9224944Y-12382793D02*
X9224944Y-12335174D01*
X9224944Y-12335174D02*
X9234467Y-12297079D01*
X9234467Y-12297079D02*
X9243991Y-12278031D01*
X9243991Y-12278031D02*
X9253515Y-12268508D01*
X9253515Y-12268508D02*
X9272563Y-12258984D01*
X9463039Y-12258984D02*
X9482086Y-12258984D01*
X9482086Y-12258984D02*
X9501134Y-12268508D01*
X9501134Y-12268508D02*
X9510658Y-12278031D01*
X9510658Y-12278031D02*
X9520182Y-12297079D01*
X9520182Y-12297079D02*
X9529705Y-12335174D01*
X9529705Y-12335174D02*
X9529705Y-12382793D01*
X9529705Y-12382793D02*
X9520182Y-12420888D01*
X9520182Y-12420888D02*
X9510658Y-12439936D01*
X9510658Y-12439936D02*
X9501134Y-12449460D01*
X9501134Y-12449460D02*
X9482086Y-12458984D01*
X9482086Y-12458984D02*
X9463039Y-12458984D01*
X9463039Y-12458984D02*
X9443991Y-12449460D01*
X9443991Y-12449460D02*
X9434467Y-12439936D01*
X9434467Y-12439936D02*
X9424944Y-12420888D01*
X9424944Y-12420888D02*
X9415420Y-12382793D01*
X9415420Y-12382793D02*
X9415420Y-12335174D01*
X9415420Y-12335174D02*
X9424944Y-12297079D01*
X9424944Y-12297079D02*
X9434467Y-12278031D01*
X9434467Y-12278031D02*
X9443991Y-12268508D01*
X9443991Y-12268508D02*
X9463039Y-12258984D01*
X9615420Y-12458984D02*
X9615420Y-12325650D01*
X9615420Y-12344698D02*
X9624944Y-12335174D01*
X9624944Y-12335174D02*
X9643991Y-12325650D01*
X9643991Y-12325650D02*
X9672563Y-12325650D01*
X9672563Y-12325650D02*
X9691610Y-12335174D01*
X9691610Y-12335174D02*
X9701134Y-12354222D01*
X9701134Y-12354222D02*
X9701134Y-12458984D01*
X9701134Y-12354222D02*
X9710658Y-12335174D01*
X9710658Y-12335174D02*
X9729705Y-12325650D01*
X9729705Y-12325650D02*
X9758277Y-12325650D01*
X9758277Y-12325650D02*
X9777325Y-12335174D01*
X9777325Y-12335174D02*
X9786848Y-12354222D01*
X9786848Y-12354222D02*
X9786848Y-12458984D01*
X9882086Y-12458984D02*
X9882086Y-12325650D01*
X9882086Y-12344698D02*
X9891610Y-12335174D01*
X9891610Y-12335174D02*
X9910658Y-12325650D01*
X9910658Y-12325650D02*
X9939229Y-12325650D01*
X9939229Y-12325650D02*
X9958277Y-12335174D01*
X9958277Y-12335174D02*
X9967801Y-12354222D01*
X9967801Y-12354222D02*
X9967801Y-12458984D01*
X9967801Y-12354222D02*
X9977325Y-12335174D01*
X9977325Y-12335174D02*
X9996372Y-12325650D01*
X9996372Y-12325650D02*
X10024944Y-12325650D01*
X10024944Y-12325650D02*
X10043991Y-12335174D01*
X10043991Y-12335174D02*
X10053515Y-12354222D01*
X10053515Y-12354222D02*
X10053515Y-12458984D01*
X10443991Y-12249460D02*
X10272563Y-12506603D01*
X10701134Y-12258984D02*
X10720182Y-12258984D01*
X10720182Y-12258984D02*
X10739229Y-12268508D01*
X10739229Y-12268508D02*
X10748753Y-12278031D01*
X10748753Y-12278031D02*
X10758277Y-12297079D01*
X10758277Y-12297079D02*
X10767801Y-12335174D01*
X10767801Y-12335174D02*
X10767801Y-12382793D01*
X10767801Y-12382793D02*
X10758277Y-12420888D01*
X10758277Y-12420888D02*
X10748753Y-12439936D01*
X10748753Y-12439936D02*
X10739229Y-12449460D01*
X10739229Y-12449460D02*
X10720182Y-12458984D01*
X10720182Y-12458984D02*
X10701134Y-12458984D01*
X10701134Y-12458984D02*
X10682087Y-12449460D01*
X10682087Y-12449460D02*
X10672563Y-12439936D01*
X10672563Y-12439936D02*
X10663039Y-12420888D01*
X10663039Y-12420888D02*
X10653515Y-12382793D01*
X10653515Y-12382793D02*
X10653515Y-12335174D01*
X10653515Y-12335174D02*
X10663039Y-12297079D01*
X10663039Y-12297079D02*
X10672563Y-12278031D01*
X10672563Y-12278031D02*
X10682087Y-12268508D01*
X10682087Y-12268508D02*
X10701134Y-12258984D01*
X10863039Y-12449460D02*
X10863039Y-12458984D01*
X10863039Y-12458984D02*
X10853515Y-12478031D01*
X10853515Y-12478031D02*
X10843991Y-12487555D01*
X10986848Y-12258984D02*
X11005896Y-12258984D01*
X11005896Y-12258984D02*
X11024944Y-12268508D01*
X11024944Y-12268508D02*
X11034468Y-12278031D01*
X11034468Y-12278031D02*
X11043991Y-12297079D01*
X11043991Y-12297079D02*
X11053515Y-12335174D01*
X11053515Y-12335174D02*
X11053515Y-12382793D01*
X11053515Y-12382793D02*
X11043991Y-12420888D01*
X11043991Y-12420888D02*
X11034468Y-12439936D01*
X11034468Y-12439936D02*
X11024944Y-12449460D01*
X11024944Y-12449460D02*
X11005896Y-12458984D01*
X11005896Y-12458984D02*
X10986848Y-12458984D01*
X10986848Y-12458984D02*
X10967801Y-12449460D01*
X10967801Y-12449460D02*
X10958277Y-12439936D01*
X10958277Y-12439936D02*
X10948753Y-12420888D01*
X10948753Y-12420888D02*
X10939229Y-12382793D01*
X10939229Y-12382793D02*
X10939229Y-12335174D01*
X10939229Y-12335174D02*
X10948753Y-12297079D01*
X10948753Y-12297079D02*
X10958277Y-12278031D01*
X10958277Y-12278031D02*
X10967801Y-12268508D01*
X10967801Y-12268508D02*
X10986848Y-12258984D01*
X11148753Y-12458984D02*
X11186848Y-12458984D01*
X11186848Y-12458984D02*
X11205896Y-12449460D01*
X11205896Y-12449460D02*
X11215420Y-12439936D01*
X11215420Y-12439936D02*
X11234467Y-12411365D01*
X11234467Y-12411365D02*
X11243991Y-12373269D01*
X11243991Y-12373269D02*
X11243991Y-12297079D01*
X11243991Y-12297079D02*
X11234467Y-12278031D01*
X11234467Y-12278031D02*
X11224944Y-12268508D01*
X11224944Y-12268508D02*
X11205896Y-12258984D01*
X11205896Y-12258984D02*
X11167801Y-12258984D01*
X11167801Y-12258984D02*
X11148753Y-12268508D01*
X11148753Y-12268508D02*
X11139229Y-12278031D01*
X11139229Y-12278031D02*
X11129706Y-12297079D01*
X11129706Y-12297079D02*
X11129706Y-12344698D01*
X11129706Y-12344698D02*
X11139229Y-12363746D01*
X11139229Y-12363746D02*
X11148753Y-12373269D01*
X11148753Y-12373269D02*
X11167801Y-12382793D01*
X11167801Y-12382793D02*
X11205896Y-12382793D01*
X11205896Y-12382793D02*
X11224944Y-12373269D01*
X11224944Y-12373269D02*
X11234467Y-12363746D01*
X11234467Y-12363746D02*
X11243991Y-12344698D01*
X11358277Y-12344698D02*
X11339229Y-12335174D01*
X11339229Y-12335174D02*
X11329706Y-12325650D01*
X11329706Y-12325650D02*
X11320182Y-12306603D01*
X11320182Y-12306603D02*
X11320182Y-12297079D01*
X11320182Y-12297079D02*
X11329706Y-12278031D01*
X11329706Y-12278031D02*
X11339229Y-12268508D01*
X11339229Y-12268508D02*
X11358277Y-12258984D01*
X11358277Y-12258984D02*
X11396372Y-12258984D01*
X11396372Y-12258984D02*
X11415420Y-12268508D01*
X11415420Y-12268508D02*
X11424944Y-12278031D01*
X11424944Y-12278031D02*
X11434467Y-12297079D01*
X11434467Y-12297079D02*
X11434467Y-12306603D01*
X11434467Y-12306603D02*
X11424944Y-12325650D01*
X11424944Y-12325650D02*
X11415420Y-12335174D01*
X11415420Y-12335174D02*
X11396372Y-12344698D01*
X11396372Y-12344698D02*
X11358277Y-12344698D01*
X11358277Y-12344698D02*
X11339229Y-12354222D01*
X11339229Y-12354222D02*
X11329706Y-12363746D01*
X11329706Y-12363746D02*
X11320182Y-12382793D01*
X11320182Y-12382793D02*
X11320182Y-12420888D01*
X11320182Y-12420888D02*
X11329706Y-12439936D01*
X11329706Y-12439936D02*
X11339229Y-12449460D01*
X11339229Y-12449460D02*
X11358277Y-12458984D01*
X11358277Y-12458984D02*
X11396372Y-12458984D01*
X11396372Y-12458984D02*
X11415420Y-12449460D01*
X11415420Y-12449460D02*
X11424944Y-12439936D01*
X11424944Y-12439936D02*
X11434467Y-12420888D01*
X11434467Y-12420888D02*
X11434467Y-12382793D01*
X11434467Y-12382793D02*
X11424944Y-12363746D01*
X11424944Y-12363746D02*
X11415420Y-12354222D01*
X11415420Y-12354222D02*
X11396372Y-12344698D01*
X11605896Y-12325650D02*
X11605896Y-12458984D01*
X11558277Y-12249460D02*
X11510658Y-12392317D01*
X11510658Y-12392317D02*
X11634467Y-12392317D01*
X11701134Y-12258984D02*
X11701134Y-12297079D01*
X11777325Y-12258984D02*
X11777325Y-12297079D01*
X12072563Y-12535174D02*
X12063039Y-12525650D01*
X12063039Y-12525650D02*
X12043991Y-12497079D01*
X12043991Y-12497079D02*
X12034468Y-12478031D01*
X12034468Y-12478031D02*
X12024944Y-12449460D01*
X12024944Y-12449460D02*
X12015420Y-12401841D01*
X12015420Y-12401841D02*
X12015420Y-12363746D01*
X12015420Y-12363746D02*
X12024944Y-12316127D01*
X12024944Y-12316127D02*
X12034468Y-12287555D01*
X12034468Y-12287555D02*
X12043991Y-12268508D01*
X12043991Y-12268508D02*
X12063039Y-12239936D01*
X12063039Y-12239936D02*
X12072563Y-12230412D01*
X12234468Y-12258984D02*
X12196372Y-12258984D01*
X12196372Y-12258984D02*
X12177325Y-12268508D01*
X12177325Y-12268508D02*
X12167801Y-12278031D01*
X12167801Y-12278031D02*
X12148753Y-12306603D01*
X12148753Y-12306603D02*
X12139229Y-12344698D01*
X12139229Y-12344698D02*
X12139229Y-12420888D01*
X12139229Y-12420888D02*
X12148753Y-12439936D01*
X12148753Y-12439936D02*
X12158277Y-12449460D01*
X12158277Y-12449460D02*
X12177325Y-12458984D01*
X12177325Y-12458984D02*
X12215420Y-12458984D01*
X12215420Y-12458984D02*
X12234468Y-12449460D01*
X12234468Y-12449460D02*
X12243991Y-12439936D01*
X12243991Y-12439936D02*
X12253515Y-12420888D01*
X12253515Y-12420888D02*
X12253515Y-12373269D01*
X12253515Y-12373269D02*
X12243991Y-12354222D01*
X12243991Y-12354222D02*
X12234468Y-12344698D01*
X12234468Y-12344698D02*
X12215420Y-12335174D01*
X12215420Y-12335174D02*
X12177325Y-12335174D01*
X12177325Y-12335174D02*
X12158277Y-12344698D01*
X12158277Y-12344698D02*
X12148753Y-12354222D01*
X12148753Y-12354222D02*
X12139229Y-12373269D01*
X12491610Y-12458984D02*
X12491610Y-12258984D01*
X12577325Y-12458984D02*
X12577325Y-12354222D01*
X12577325Y-12354222D02*
X12567801Y-12335174D01*
X12567801Y-12335174D02*
X12548753Y-12325650D01*
X12548753Y-12325650D02*
X12520182Y-12325650D01*
X12520182Y-12325650D02*
X12501134Y-12335174D01*
X12501134Y-12335174D02*
X12491610Y-12344698D01*
X12701134Y-12458984D02*
X12682087Y-12449460D01*
X12682087Y-12449460D02*
X12672563Y-12439936D01*
X12672563Y-12439936D02*
X12663039Y-12420888D01*
X12663039Y-12420888D02*
X12663039Y-12363746D01*
X12663039Y-12363746D02*
X12672563Y-12344698D01*
X12672563Y-12344698D02*
X12682087Y-12335174D01*
X12682087Y-12335174D02*
X12701134Y-12325650D01*
X12701134Y-12325650D02*
X12729706Y-12325650D01*
X12729706Y-12325650D02*
X12748753Y-12335174D01*
X12748753Y-12335174D02*
X12758277Y-12344698D01*
X12758277Y-12344698D02*
X12767801Y-12363746D01*
X12767801Y-12363746D02*
X12767801Y-12420888D01*
X12767801Y-12420888D02*
X12758277Y-12439936D01*
X12758277Y-12439936D02*
X12748753Y-12449460D01*
X12748753Y-12449460D02*
X12729706Y-12458984D01*
X12729706Y-12458984D02*
X12701134Y-12458984D01*
X12882087Y-12458984D02*
X12863039Y-12449460D01*
X12863039Y-12449460D02*
X12853515Y-12430412D01*
X12853515Y-12430412D02*
X12853515Y-12258984D01*
X13034468Y-12449460D02*
X13015420Y-12458984D01*
X13015420Y-12458984D02*
X12977325Y-12458984D01*
X12977325Y-12458984D02*
X12958277Y-12449460D01*
X12958277Y-12449460D02*
X12948753Y-12430412D01*
X12948753Y-12430412D02*
X12948753Y-12354222D01*
X12948753Y-12354222D02*
X12958277Y-12335174D01*
X12958277Y-12335174D02*
X12977325Y-12325650D01*
X12977325Y-12325650D02*
X13015420Y-12325650D01*
X13015420Y-12325650D02*
X13034468Y-12335174D01*
X13034468Y-12335174D02*
X13043991Y-12354222D01*
X13043991Y-12354222D02*
X13043991Y-12373269D01*
X13043991Y-12373269D02*
X12948753Y-12392317D01*
X13120182Y-12449460D02*
X13139230Y-12458984D01*
X13139230Y-12458984D02*
X13177325Y-12458984D01*
X13177325Y-12458984D02*
X13196372Y-12449460D01*
X13196372Y-12449460D02*
X13205896Y-12430412D01*
X13205896Y-12430412D02*
X13205896Y-12420888D01*
X13205896Y-12420888D02*
X13196372Y-12401841D01*
X13196372Y-12401841D02*
X13177325Y-12392317D01*
X13177325Y-12392317D02*
X13148753Y-12392317D01*
X13148753Y-12392317D02*
X13129706Y-12382793D01*
X13129706Y-12382793D02*
X13120182Y-12363746D01*
X13120182Y-12363746D02*
X13120182Y-12354222D01*
X13120182Y-12354222D02*
X13129706Y-12335174D01*
X13129706Y-12335174D02*
X13148753Y-12325650D01*
X13148753Y-12325650D02*
X13177325Y-12325650D01*
X13177325Y-12325650D02*
X13196372Y-12335174D01*
X13272563Y-12535174D02*
X13282087Y-12525650D01*
X13282087Y-12525650D02*
X13301134Y-12497079D01*
X13301134Y-12497079D02*
X13310658Y-12478031D01*
X13310658Y-12478031D02*
X13320182Y-12449460D01*
X13320182Y-12449460D02*
X13329706Y-12401841D01*
X13329706Y-12401841D02*
X13329706Y-12363746D01*
X13329706Y-12363746D02*
X13320182Y-12316127D01*
X13320182Y-12316127D02*
X13310658Y-12287555D01*
X13310658Y-12287555D02*
X13301134Y-12268508D01*
X13301134Y-12268508D02*
X13282087Y-12239936D01*
X13282087Y-12239936D02*
X13272563Y-12230412D01*
X13634468Y-12535174D02*
X13624944Y-12525650D01*
X13624944Y-12525650D02*
X13605896Y-12497079D01*
X13605896Y-12497079D02*
X13596372Y-12478031D01*
X13596372Y-12478031D02*
X13586849Y-12449460D01*
X13586849Y-12449460D02*
X13577325Y-12401841D01*
X13577325Y-12401841D02*
X13577325Y-12363746D01*
X13577325Y-12363746D02*
X13586849Y-12316127D01*
X13586849Y-12316127D02*
X13596372Y-12287555D01*
X13596372Y-12287555D02*
X13605896Y-12268508D01*
X13605896Y-12268508D02*
X13624944Y-12239936D01*
X13624944Y-12239936D02*
X13634468Y-12230412D01*
X13710658Y-12325650D02*
X13710658Y-12458984D01*
X13710658Y-12344698D02*
X13720182Y-12335174D01*
X13720182Y-12335174D02*
X13739230Y-12325650D01*
X13739230Y-12325650D02*
X13767801Y-12325650D01*
X13767801Y-12325650D02*
X13786849Y-12335174D01*
X13786849Y-12335174D02*
X13796372Y-12354222D01*
X13796372Y-12354222D02*
X13796372Y-12458984D01*
X13920182Y-12458984D02*
X13901134Y-12449460D01*
X13901134Y-12449460D02*
X13891611Y-12439936D01*
X13891611Y-12439936D02*
X13882087Y-12420888D01*
X13882087Y-12420888D02*
X13882087Y-12363746D01*
X13882087Y-12363746D02*
X13891611Y-12344698D01*
X13891611Y-12344698D02*
X13901134Y-12335174D01*
X13901134Y-12335174D02*
X13920182Y-12325650D01*
X13920182Y-12325650D02*
X13948753Y-12325650D01*
X13948753Y-12325650D02*
X13967801Y-12335174D01*
X13967801Y-12335174D02*
X13977325Y-12344698D01*
X13977325Y-12344698D02*
X13986849Y-12363746D01*
X13986849Y-12363746D02*
X13986849Y-12420888D01*
X13986849Y-12420888D02*
X13977325Y-12439936D01*
X13977325Y-12439936D02*
X13967801Y-12449460D01*
X13967801Y-12449460D02*
X13948753Y-12458984D01*
X13948753Y-12458984D02*
X13920182Y-12458984D01*
X14043992Y-12325650D02*
X14120182Y-12325650D01*
X14072563Y-12258984D02*
X14072563Y-12430412D01*
X14072563Y-12430412D02*
X14082087Y-12449460D01*
X14082087Y-12449460D02*
X14101134Y-12458984D01*
X14101134Y-12458984D02*
X14120182Y-12458984D01*
X14339230Y-12325650D02*
X14339230Y-12525650D01*
X14339230Y-12335174D02*
X14358277Y-12325650D01*
X14358277Y-12325650D02*
X14396373Y-12325650D01*
X14396373Y-12325650D02*
X14415420Y-12335174D01*
X14415420Y-12335174D02*
X14424944Y-12344698D01*
X14424944Y-12344698D02*
X14434468Y-12363746D01*
X14434468Y-12363746D02*
X14434468Y-12420888D01*
X14434468Y-12420888D02*
X14424944Y-12439936D01*
X14424944Y-12439936D02*
X14415420Y-12449460D01*
X14415420Y-12449460D02*
X14396373Y-12458984D01*
X14396373Y-12458984D02*
X14358277Y-12458984D01*
X14358277Y-12458984D02*
X14339230Y-12449460D01*
X14548753Y-12458984D02*
X14529706Y-12449460D01*
X14529706Y-12449460D02*
X14520182Y-12430412D01*
X14520182Y-12430412D02*
X14520182Y-12258984D01*
X14710658Y-12458984D02*
X14710658Y-12354222D01*
X14710658Y-12354222D02*
X14701134Y-12335174D01*
X14701134Y-12335174D02*
X14682087Y-12325650D01*
X14682087Y-12325650D02*
X14643992Y-12325650D01*
X14643992Y-12325650D02*
X14624944Y-12335174D01*
X14710658Y-12449460D02*
X14691611Y-12458984D01*
X14691611Y-12458984D02*
X14643992Y-12458984D01*
X14643992Y-12458984D02*
X14624944Y-12449460D01*
X14624944Y-12449460D02*
X14615420Y-12430412D01*
X14615420Y-12430412D02*
X14615420Y-12411365D01*
X14615420Y-12411365D02*
X14624944Y-12392317D01*
X14624944Y-12392317D02*
X14643992Y-12382793D01*
X14643992Y-12382793D02*
X14691611Y-12382793D01*
X14691611Y-12382793D02*
X14710658Y-12373269D01*
X14777325Y-12325650D02*
X14853515Y-12325650D01*
X14805896Y-12258984D02*
X14805896Y-12430412D01*
X14805896Y-12430412D02*
X14815420Y-12449460D01*
X14815420Y-12449460D02*
X14834468Y-12458984D01*
X14834468Y-12458984D02*
X14853515Y-12458984D01*
X14996373Y-12449460D02*
X14977325Y-12458984D01*
X14977325Y-12458984D02*
X14939230Y-12458984D01*
X14939230Y-12458984D02*
X14920182Y-12449460D01*
X14920182Y-12449460D02*
X14910658Y-12430412D01*
X14910658Y-12430412D02*
X14910658Y-12354222D01*
X14910658Y-12354222D02*
X14920182Y-12335174D01*
X14920182Y-12335174D02*
X14939230Y-12325650D01*
X14939230Y-12325650D02*
X14977325Y-12325650D01*
X14977325Y-12325650D02*
X14996373Y-12335174D01*
X14996373Y-12335174D02*
X15005896Y-12354222D01*
X15005896Y-12354222D02*
X15005896Y-12373269D01*
X15005896Y-12373269D02*
X14910658Y-12392317D01*
X15177325Y-12458984D02*
X15177325Y-12258984D01*
X15177325Y-12449460D02*
X15158277Y-12458984D01*
X15158277Y-12458984D02*
X15120182Y-12458984D01*
X15120182Y-12458984D02*
X15101134Y-12449460D01*
X15101134Y-12449460D02*
X15091611Y-12439936D01*
X15091611Y-12439936D02*
X15082087Y-12420888D01*
X15082087Y-12420888D02*
X15082087Y-12363746D01*
X15082087Y-12363746D02*
X15091611Y-12344698D01*
X15091611Y-12344698D02*
X15101134Y-12335174D01*
X15101134Y-12335174D02*
X15120182Y-12325650D01*
X15120182Y-12325650D02*
X15158277Y-12325650D01*
X15158277Y-12325650D02*
X15177325Y-12335174D01*
X15253515Y-12535174D02*
X15263039Y-12525650D01*
X15263039Y-12525650D02*
X15282087Y-12497079D01*
X15282087Y-12497079D02*
X15291611Y-12478031D01*
X15291611Y-12478031D02*
X15301134Y-12449460D01*
X15301134Y-12449460D02*
X15310658Y-12401841D01*
X15310658Y-12401841D02*
X15310658Y-12363746D01*
X15310658Y-12363746D02*
X15301134Y-12316127D01*
X15301134Y-12316127D02*
X15291611Y-12287555D01*
X15291611Y-12287555D02*
X15282087Y-12268508D01*
X15282087Y-12268508D02*
X15263039Y-12239936D01*
X15263039Y-12239936D02*
X15253515Y-12230412D01*
M02*
