%TF.GenerationSoftware,KiCad,Pcbnew,10.0.0*%
%TF.CreationDate,2026-05-28T21:37:53+02:00*%
%TF.ProjectId,bt-rc-tx,62742d72-632d-4747-982e-6b696361645f,A*%
%TF.SameCoordinates,Original*%
%TF.FileFunction,Copper,L1,Top*%
%TF.FilePolarity,Positive*%
%FSLAX46Y46*%
G04 Gerber Fmt 4.6, Leading zero omitted, Abs format (unit mm)*
G04 Created by KiCad (PCBNEW 10.0.0) date 2026-05-28 21:37:53*
%MOMM*%
%LPD*%
G01*
G04 APERTURE LIST*
G04 Aperture macros list*
%AMRoundRect*
0 Rectangle with rounded corners*
0 $1 Rounding radius*
0 $2 $3 $4 $5 $6 $7 $8 $9 X,Y pos of 4 corners*
0 Add a 4 corners polygon primitive as box body*
4,1,4,$2,$3,$4,$5,$6,$7,$8,$9,$2,$3,0*
0 Add four circle primitives for the rounded corners*
1,1,$1+$1,$2,$3*
1,1,$1+$1,$4,$5*
1,1,$1+$1,$6,$7*
1,1,$1+$1,$8,$9*
0 Add four rect primitives between the rounded corners*
20,1,$1+$1,$2,$3,$4,$5,0*
20,1,$1+$1,$4,$5,$6,$7,0*
20,1,$1+$1,$6,$7,$8,$9,0*
20,1,$1+$1,$8,$9,$2,$3,0*%
%AMFreePoly0*
4,1,37,0.800000,0.796148,0.878414,0.796148,1.032228,0.765552,1.177117,0.705537,1.307515,0.618408,1.418408,0.507515,1.505537,0.377117,1.565552,0.232228,1.596148,0.078414,1.596148,-0.078414,1.565552,-0.232228,1.505537,-0.377117,1.418408,-0.507515,1.307515,-0.618408,1.177117,-0.705537,1.032228,-0.765552,0.878414,-0.796148,0.800000,-0.796148,0.800000,-0.800000,-1.400000,-0.800000,
-1.403843,-0.796157,-1.439018,-0.796157,-1.511114,-0.766294,-1.566294,-0.711114,-1.596157,-0.639018,-1.596157,-0.603843,-1.600000,-0.600000,-1.600000,0.600000,-1.596157,0.603843,-1.596157,0.639018,-1.566294,0.711114,-1.511114,0.766294,-1.439018,0.796157,-1.403843,0.796157,-1.400000,0.800000,0.800000,0.800000,0.800000,0.796148,0.800000,0.796148,$1*%
%AMFreePoly1*
4,1,37,1.403843,0.796157,1.439018,0.796157,1.511114,0.766294,1.566294,0.711114,1.596157,0.639018,1.596157,0.603843,1.600000,0.600000,1.600000,-0.600000,1.596157,-0.603843,1.596157,-0.639018,1.566294,-0.711114,1.511114,-0.766294,1.439018,-0.796157,1.403843,-0.796157,1.400000,-0.800000,-0.800000,-0.800000,-0.800000,-0.796148,-0.878414,-0.796148,-1.032228,-0.765552,-1.177117,-0.705537,
-1.307515,-0.618408,-1.418408,-0.507515,-1.505537,-0.377117,-1.565552,-0.232228,-1.596148,-0.078414,-1.596148,0.078414,-1.565552,0.232228,-1.505537,0.377117,-1.418408,0.507515,-1.307515,0.618408,-1.177117,0.705537,-1.032228,0.765552,-0.878414,0.796148,-0.800000,0.796148,-0.800000,0.800000,1.400000,0.800000,1.403843,0.796157,1.403843,0.796157,$1*%
G04 Aperture macros list end*
%TA.AperFunction,SMDPad,CuDef*%
%ADD10FreePoly0,0.000000*%
%TD*%
%TA.AperFunction,SMDPad,CuDef*%
%ADD11RoundRect,0.800000X-0.800000X-0.000010X0.800000X-0.000010X0.800000X0.000010X-0.800000X0.000010X0*%
%TD*%
%TA.AperFunction,SMDPad,CuDef*%
%ADD12FreePoly1,0.000000*%
%TD*%
%TA.AperFunction,ComponentPad*%
%ADD13RoundRect,0.200000X-0.600000X-0.600000X0.600000X-0.600000X0.600000X0.600000X-0.600000X0.600000X0*%
%TD*%
%TA.AperFunction,ComponentPad*%
%ADD14C,1.600000*%
%TD*%
%TA.AperFunction,SMDPad,CuDef*%
%ADD15RoundRect,0.250000X0.450000X-0.262500X0.450000X0.262500X-0.450000X0.262500X-0.450000X-0.262500X0*%
%TD*%
%TA.AperFunction,SMDPad,CuDef*%
%ADD16RoundRect,0.250000X-0.450000X0.262500X-0.450000X-0.262500X0.450000X-0.262500X0.450000X0.262500X0*%
%TD*%
%TA.AperFunction,ComponentPad*%
%ADD17R,1.800000X1.800000*%
%TD*%
%TA.AperFunction,ComponentPad*%
%ADD18C,1.800000*%
%TD*%
%TA.AperFunction,SMDPad,CuDef*%
%ADD19RoundRect,0.250000X0.475000X-0.250000X0.475000X0.250000X-0.475000X0.250000X-0.475000X-0.250000X0*%
%TD*%
%TA.AperFunction,SMDPad,CuDef*%
%ADD20RoundRect,0.100000X-0.637500X-0.100000X0.637500X-0.100000X0.637500X0.100000X-0.637500X0.100000X0*%
%TD*%
%TA.AperFunction,ComponentPad*%
%ADD21C,2.000000*%
%TD*%
%TA.AperFunction,SMDPad,CuDef*%
%ADD22RoundRect,0.250000X-0.650000X0.325000X-0.650000X-0.325000X0.650000X-0.325000X0.650000X0.325000X0*%
%TD*%
%TA.AperFunction,ComponentPad*%
%ADD23R,1.700000X1.700000*%
%TD*%
%TA.AperFunction,ComponentPad*%
%ADD24C,1.700000*%
%TD*%
%TA.AperFunction,ViaPad*%
%ADD25C,0.600000*%
%TD*%
%TA.AperFunction,Conductor*%
%ADD26C,0.200000*%
%TD*%
G04 APERTURE END LIST*
D10*
%TO.P,A1,1,GPIO0_1*%
%TO.N,unconnected-(A1-GPIO0-Pad1)*%
X105120000Y-57000000D03*
D11*
%TO.P,A1,2,GPIO1_2*%
%TO.N,unconnected-(A1-GPIO1-Pad2)*%
X105120000Y-59540000D03*
D12*
%TO.P,A1,3,GND_3*%
%TO.N,GND*%
X105120000Y-62080000D03*
D11*
%TO.P,A1,4,GPIO2_4*%
%TO.N,unconnected-(A1-GPIO2-Pad4)*%
X105120000Y-64620000D03*
%TO.P,A1,5,GPIO3_5*%
%TO.N,unconnected-(A1-GPIO3-Pad5)*%
X105120000Y-67160000D03*
%TO.P,A1,6,GPIO4_6*%
%TO.N,unconnected-(A1-GPIO4-Pad6)*%
X105120000Y-69700000D03*
%TO.P,A1,7,GPIO5_7*%
%TO.N,unconnected-(A1-GPIO5-Pad7)*%
X105120000Y-72240000D03*
D12*
%TO.P,A1,8,GND_8*%
%TO.N,GND*%
X105120000Y-74780000D03*
D11*
%TO.P,A1,9,GPIO6_9*%
%TO.N,/LED1*%
X105120000Y-77320000D03*
%TO.P,A1,10,GPIO7_10*%
%TO.N,/LED2*%
X105120000Y-79860000D03*
%TO.P,A1,11,GPIO8_11*%
%TO.N,/SHUTDN_REQ_IN*%
X105120000Y-82400000D03*
%TO.P,A1,12,GPIO9_12*%
%TO.N,unconnected-(A1-GPIO9-Pad12)*%
X105120000Y-84940000D03*
D12*
%TO.P,A1,13,GND_13*%
%TO.N,GND*%
X105120000Y-87480000D03*
D11*
%TO.P,A1,14,GPIO10_14*%
%TO.N,unconnected-(A1-GPIO10-Pad14)*%
X105120000Y-90020000D03*
%TO.P,A1,15,GPIO11_15*%
%TO.N,unconnected-(A1-GPIO11-Pad15)*%
X105120000Y-92560000D03*
%TO.P,A1,16,GPIO12_16*%
%TO.N,unconnected-(A1-GPIO12-Pad16)*%
X105120000Y-95100000D03*
%TO.P,A1,17,GPIO13_17*%
%TO.N,unconnected-(A1-GPIO13-Pad17)*%
X105120000Y-97640000D03*
D12*
%TO.P,A1,18,GND_18*%
%TO.N,GND*%
X105120000Y-100180000D03*
D11*
%TO.P,A1,19,GPIO14_19*%
%TO.N,unconnected-(A1-GPIO14-Pad19)*%
X105120000Y-102720000D03*
%TO.P,A1,20,GPIO15_20*%
%TO.N,unconnected-(A1-GPIO15-Pad20)*%
X105120000Y-105260000D03*
%TO.P,A1,21,GPIO16_21*%
%TO.N,unconnected-(A1-GPIO16-Pad21)*%
X124500000Y-105260000D03*
%TO.P,A1,22,GPIO17_22*%
%TO.N,unconnected-(A1-GPIO17-Pad22)*%
X124500000Y-102720000D03*
D10*
%TO.P,A1,23,GND_23*%
%TO.N,GND*%
X124500000Y-100180000D03*
D11*
%TO.P,A1,24,GPIO18_24*%
%TO.N,unconnected-(A1-GPIO18-Pad24)*%
X124500000Y-97640000D03*
%TO.P,A1,25,GPIO19_25*%
%TO.N,unconnected-(A1-GPIO19-Pad25)*%
X124500000Y-95100000D03*
%TO.P,A1,26,GPIO20_26*%
%TO.N,unconnected-(A1-GPIO20-Pad26)*%
X124500000Y-92560000D03*
%TO.P,A1,27,GPIO21_27*%
%TO.N,unconnected-(A1-GPIO21-Pad27)*%
X124500000Y-90020000D03*
D10*
%TO.P,A1,28,GND_28*%
%TO.N,GND*%
X124500000Y-87480000D03*
D11*
%TO.P,A1,29,GPIO22_29*%
%TO.N,unconnected-(A1-GPIO22-Pad29)*%
X124500000Y-84940000D03*
%TO.P,A1,30,RUN_30*%
%TO.N,unconnected-(A1-RUN-Pad30)*%
X124500000Y-82400000D03*
%TO.P,A1,31,GPIO26_ADC0_31*%
%TO.N,unconnected-(A1-GPIO26_ADC0-Pad31)*%
X124500000Y-79860000D03*
%TO.P,A1,32,GPIO27_ADC1_32*%
%TO.N,unconnected-(A1-GPIO27_ADC1-Pad32)*%
X124500000Y-77320000D03*
D10*
%TO.P,A1,33,AGND_33*%
%TO.N,GND*%
X124500000Y-74780000D03*
D11*
%TO.P,A1,34,GPIO28_ADC2_34*%
%TO.N,unconnected-(A1-GPIO28_ADC2-Pad34)*%
X124500000Y-72240000D03*
%TO.P,A1,35,ADC_VREF_35*%
%TO.N,unconnected-(A1-ADC_VREF-Pad35)*%
X124500000Y-69700000D03*
%TO.P,A1,36,3V3_36*%
%TO.N,+3.3V*%
X124500000Y-67160000D03*
%TO.P,A1,37,3V3_EN_37*%
%TO.N,/PWRON_OUT*%
X124500000Y-64620000D03*
D10*
%TO.P,A1,38,GND_38*%
%TO.N,GND*%
X124500000Y-62080000D03*
D11*
%TO.P,A1,39,VSYS_39*%
%TO.N,+BATT*%
X124500000Y-59540000D03*
%TO.P,A1,40,VBUS_40*%
%TO.N,unconnected-(A1-VBUS-Pad40)*%
X124500000Y-57000000D03*
D13*
%TO.P,A1,D1,SWCLK_D1*%
%TO.N,unconnected-(A1-SWCLK-PadD1)*%
X115394100Y-86830000D03*
D14*
%TO.P,A1,D2,GND_D2*%
%TO.N,GND*%
X117934100Y-86830000D03*
%TO.P,A1,D3,SWDIO_D3*%
%TO.N,unconnected-(A1-SWDIO-PadD3)*%
X120474100Y-86830000D03*
%TD*%
D15*
%TO.P,R5,1*%
%TO.N,+3.3V*%
X88000000Y-75500000D03*
%TO.P,R5,2*%
%TO.N,Net-(D3-A)*%
X88000000Y-73675000D03*
%TD*%
D16*
%TO.P,R4,1*%
%TO.N,+3.3V*%
X88000000Y-85000000D03*
%TO.P,R4,2*%
%TO.N,Net-(D4-A)*%
X88000000Y-86825000D03*
%TD*%
D17*
%TO.P,D4,1,K_1*%
%TO.N,/LED2*%
X90500000Y-94500000D03*
D18*
%TO.P,D4,2,A_2*%
%TO.N,Net-(D4-A)*%
X87960000Y-94500000D03*
%TD*%
D19*
%TO.P,C2,1*%
%TO.N,+BATT*%
X89500000Y-80400000D03*
%TO.P,C2,2*%
%TO.N,GND*%
X89500000Y-78500000D03*
%TD*%
D20*
%TO.P,U2,1,PB8/PB9_1*%
%TO.N,unconnected-(U2-PB8{slash}PB9-Pad1)*%
X93137500Y-77075000D03*
%TO.P,U2,2,VSS_2*%
%TO.N,GND*%
X93137500Y-77725000D03*
%TO.P,U2,3,VDD_3*%
%TO.N,+BATT*%
X93137500Y-78375000D03*
%TO.P,U2,4,PC14_4*%
%TO.N,unconnected-(U2-PC14-Pad4)*%
X93137500Y-79025000D03*
%TO.P,U2,5,PC15_5*%
%TO.N,unconnected-(U2-PC15-Pad5)*%
X93137500Y-79675000D03*
%TO.P,U2,6,PF2_6*%
%TO.N,/{slash}RESET*%
X93137500Y-80325000D03*
%TO.P,U2,7,VDDA_7*%
%TO.N,+BATT*%
X93137500Y-80975000D03*
%TO.P,U2,8,PA0_8*%
%TO.N,Net-(U2-PA0)*%
X93137500Y-81625000D03*
%TO.P,U2,9,PA1/PA2_9*%
%TO.N,Net-(U2-PA1{slash}PA2)*%
X93137500Y-82275000D03*
%TO.P,U2,10,PA3/PA4_10*%
%TO.N,/LED1*%
X93137500Y-82925000D03*
%TO.P,U2,11,PA5/PA6_11*%
%TO.N,/LED2*%
X98862500Y-82925000D03*
%TO.P,U2,12,PA7/PB0_12*%
%TO.N,/PWRON_OUT*%
X98862500Y-82275000D03*
%TO.P,U2,13,PB1_13*%
%TO.N,unconnected-(U2-PB1-Pad13)*%
X98862500Y-81625000D03*
%TO.P,U2,14,PA8/PA9/PA10_14*%
%TO.N,/SHUTDN_REQ_IN*%
X98862500Y-80975000D03*
%TO.P,U2,15,PA11_15*%
%TO.N,/INH_SHDN*%
X98862500Y-80325000D03*
%TO.P,U2,16,PA12_16*%
%TO.N,unconnected-(U2-PA12-Pad16)*%
X98862500Y-79675000D03*
%TO.P,U2,17,PA13_17*%
%TO.N,/SWDIO*%
X98862500Y-79025000D03*
%TO.P,U2,18,PA14/PB4/PB5/PB6_18*%
%TO.N,/SWCLK*%
X98862500Y-78375000D03*
%TO.P,U2,19,PB7_19*%
%TO.N,unconnected-(U2-PB7-Pad19)*%
X98862500Y-77725000D03*
%TO.P,U2,20,PF3_20*%
%TO.N,unconnected-(U2-PF3-Pad20)*%
X98862500Y-77075000D03*
%TD*%
D21*
%TO.P,SW2,1,1_1*%
%TO.N,Net-(U2-PA0)*%
X101000000Y-69500000D03*
X94500000Y-69500000D03*
%TO.P,SW2,2,2_2*%
%TO.N,GND*%
X101000000Y-65000000D03*
X94500000Y-65000000D03*
%TD*%
%TO.P,SW3,1,1_1*%
%TO.N,Net-(U2-PA1{slash}PA2)*%
X94500000Y-92500000D03*
X101000000Y-92500000D03*
%TO.P,SW3,2,2_2*%
%TO.N,GND*%
X94500000Y-97000000D03*
X101000000Y-97000000D03*
%TD*%
D22*
%TO.P,C1,1*%
%TO.N,+BATT*%
X131000000Y-95000000D03*
%TO.P,C1,2*%
%TO.N,GND*%
X131000000Y-97950000D03*
%TD*%
D17*
%TO.P,D3,1,K_1*%
%TO.N,/LED1*%
X90500000Y-67500000D03*
D18*
%TO.P,D3,2,A_2*%
%TO.N,Net-(D3-A)*%
X87960000Y-67500000D03*
%TD*%
D23*
%TO.P,J1,1,Pin_1_1*%
%TO.N,GND*%
X135000000Y-97500000D03*
D24*
%TO.P,J1,2,Pin_2_2*%
%TO.N,+BATT*%
X135000000Y-94960000D03*
%TD*%
D23*
%TO.P,J4,1,Pin_1_1*%
%TO.N,GND*%
X135000000Y-82540000D03*
D24*
%TO.P,J4,2,Pin_2_2*%
%TO.N,/INH_SHDN*%
X135000000Y-80000000D03*
%TD*%
D23*
%TO.P,J3,1,Pin_1_1*%
%TO.N,GND*%
X135000000Y-66620000D03*
D24*
%TO.P,J3,2,Pin_2_2*%
%TO.N,+BATT*%
X135000000Y-64080000D03*
%TO.P,J3,3,Pin_3_3*%
%TO.N,/SWDIO*%
X135000000Y-61540000D03*
%TO.P,J3,4,Pin_4_4*%
%TO.N,/SWCLK*%
X135000000Y-59000000D03*
%TO.P,J3,5,Pin_5_5*%
%TO.N,/{slash}RESET*%
X135000000Y-56460000D03*
%TD*%
D25*
%TO.N,GND*%
X95000000Y-74500000D03*
X101500000Y-74000000D03*
%TO.N,/LED1*%
X96000000Y-84500000D03*
X101000000Y-78500000D03*
%TO.N,/LED2*%
X101000000Y-84500000D03*
X101000000Y-80400000D03*
%TO.N,+3.3V*%
X89900000Y-75500000D03*
X127900000Y-72000000D03*
%TO.N,/PWRON_OUT*%
X129500000Y-74000000D03*
X127500000Y-65500000D03*
X129500000Y-82500000D03*
X101500000Y-82500000D03*
%TO.N,+BATT*%
X128500000Y-60500000D03*
X100500000Y-71400000D03*
%TO.N,/{slash}RESET*%
X94500000Y-80375000D03*
%TO.N,/INH_SHDN*%
X101000000Y-79500000D03*
%TO.N,/SWDIO*%
X101000000Y-77500000D03*
%TO.N,/SWCLK*%
X101000000Y-76565686D03*
%TD*%
%TO.N,+3.3V*%
D26*
X88000000Y-85000000D02*
X86500000Y-83500000D01*
X86500000Y-83500000D02*
X86500000Y-76000000D01*
X86500000Y-76000000D02*
X87000000Y-75500000D01*
X87000000Y-75500000D02*
X88000000Y-75500000D01*
%TO.N,Net-(U2-PA0)*%
X93137500Y-81625000D02*
X88125000Y-81625000D01*
X88125000Y-81625000D02*
X87500000Y-81000000D01*
X87500000Y-81000000D02*
X87500000Y-77500000D01*
X87500000Y-77500000D02*
X88000000Y-77000000D01*
X88000000Y-77000000D02*
X90000000Y-77000000D01*
X91500000Y-72500000D02*
X94500000Y-69500000D01*
X90000000Y-77000000D02*
X91500000Y-75500000D01*
X91500000Y-75500000D02*
X91500000Y-72500000D01*
%TO.N,+BATT*%
X128500000Y-94500000D02*
X129000000Y-95000000D01*
X129000000Y-95000000D02*
X131000000Y-95000000D01*
X128500000Y-94500000D02*
X128500000Y-63500000D01*
X135000000Y-94960000D02*
X131040000Y-94960000D01*
X131040000Y-94960000D02*
X131000000Y-95000000D01*
X135000000Y-64080000D02*
X129080000Y-64080000D01*
X129080000Y-64080000D02*
X128500000Y-63500000D01*
X128500000Y-63500000D02*
X128500000Y-60500000D01*
X128500000Y-60500000D02*
X127540000Y-59540000D01*
X127540000Y-59540000D02*
X124500000Y-59540000D01*
%TO.N,GND*%
X105120000Y-74780000D02*
X102280000Y-74780000D01*
X95000000Y-77500000D02*
X94775000Y-77725000D01*
X102280000Y-74780000D02*
X101500000Y-74000000D01*
X95000000Y-74500000D02*
X95000000Y-77500000D01*
X94775000Y-77725000D02*
X93137500Y-77725000D01*
%TO.N,/LED1*%
X100500000Y-74500000D02*
X102300000Y-76300000D01*
X100500000Y-74500000D02*
X100500000Y-72500000D01*
X100500000Y-72500000D02*
X102300000Y-70700000D01*
X102300000Y-70700000D02*
X102300000Y-68800000D01*
X102300000Y-68800000D02*
X101000000Y-67500000D01*
X101000000Y-67500000D02*
X90500000Y-67500000D01*
X101000000Y-78500000D02*
X102300000Y-77200000D01*
X102300000Y-77200000D02*
X102300000Y-76300000D01*
%TO.N,GND*%
X91775000Y-77725000D02*
X91000000Y-78500000D01*
X93137500Y-77725000D02*
X91775000Y-77725000D01*
X91000000Y-78500000D02*
X89500000Y-78500000D01*
%TO.N,/LED1*%
X96000000Y-84500000D02*
X94712500Y-84500000D01*
X94712500Y-84500000D02*
X93137500Y-82925000D01*
X102180000Y-77320000D02*
X105120000Y-77320000D01*
X101000000Y-78500000D02*
X102180000Y-77320000D01*
%TO.N,/LED2*%
X97000000Y-94500000D02*
X98862500Y-92637500D01*
X101000000Y-80400000D02*
X101540000Y-79860000D01*
X98862500Y-92637500D02*
X98862500Y-82925000D01*
X101540000Y-79860000D02*
X105120000Y-79860000D01*
X98862500Y-82925000D02*
X100437500Y-84500000D01*
X90500000Y-94500000D02*
X97000000Y-94500000D01*
X100437500Y-84500000D02*
X101000000Y-84500000D01*
%TO.N,/SHUTDN_REQ_IN*%
X99000000Y-81000000D02*
X101500000Y-81000000D01*
X98975000Y-80975000D02*
X99000000Y-81000000D01*
X98862500Y-80975000D02*
X98975000Y-80975000D01*
X102900000Y-82400000D02*
X105120000Y-82400000D01*
X101500000Y-81000000D02*
X102900000Y-82400000D01*
%TO.N,+3.3V*%
X127160000Y-67160000D02*
X124500000Y-67160000D01*
X89900000Y-75500000D02*
X88000000Y-75500000D01*
X127900000Y-72000000D02*
X127900000Y-67900000D01*
X127900000Y-67900000D02*
X127160000Y-67160000D01*
%TO.N,/PWRON_OUT*%
X124500000Y-64620000D02*
X126620000Y-64620000D01*
X100775000Y-82275000D02*
X98862500Y-82275000D01*
X101000000Y-82500000D02*
X100775000Y-82275000D01*
X98206544Y-82275000D02*
X98862500Y-82275000D01*
X101500000Y-82500000D02*
X101000000Y-82500000D01*
X129500000Y-74000000D02*
X129500000Y-82500000D01*
X126620000Y-64620000D02*
X127500000Y-65500000D01*
%TO.N,+BATT*%
X95525000Y-80975000D02*
X96000000Y-80500000D01*
X95500000Y-78500000D02*
X96000000Y-79000000D01*
X89500000Y-80400000D02*
X90075000Y-80975000D01*
X90075000Y-80975000D02*
X93137500Y-80975000D01*
X96000000Y-80500000D02*
X96000000Y-79000000D01*
X100500000Y-71400000D02*
X95500000Y-76400000D01*
%TO.N,GND*%
X131450000Y-97500000D02*
X131000000Y-97950000D01*
%TO.N,+BATT*%
X95500000Y-76400000D02*
X95500000Y-78500000D01*
X93137500Y-80975000D02*
X95525000Y-80975000D01*
X96000000Y-79000000D02*
X95375000Y-78375000D01*
X95375000Y-78375000D02*
X93137500Y-78375000D01*
%TO.N,Net-(D3-A)*%
X88000000Y-67540000D02*
X87960000Y-67500000D01*
X88000000Y-73675000D02*
X88000000Y-67540000D01*
%TO.N,Net-(D4-A)*%
X88000000Y-86825000D02*
X88000000Y-94460000D01*
X88000000Y-94460000D02*
X87960000Y-94500000D01*
%TO.N,/{slash}RESET*%
X93137500Y-80325000D02*
X94450000Y-80325000D01*
X94450000Y-80325000D02*
X94500000Y-80375000D01*
%TO.N,Net-(U2-PA0)*%
X101000000Y-69500000D02*
X94500000Y-69500000D01*
%TO.N,Net-(U2-PA1{slash}PA2)*%
X91725000Y-82275000D02*
X93137500Y-82275000D01*
X91000000Y-83000000D02*
X91725000Y-82275000D01*
X91000000Y-89000000D02*
X91000000Y-83000000D01*
X94500000Y-92500000D02*
X91000000Y-89000000D01*
%TO.N,/INH_SHDN*%
X100175000Y-80325000D02*
X101000000Y-79500000D01*
X98862500Y-80325000D02*
X100175000Y-80325000D01*
%TO.N,/SWDIO*%
X101000000Y-77543456D02*
X101000000Y-77500000D01*
X99518456Y-79025000D02*
X101000000Y-77543456D01*
X98862500Y-79025000D02*
X99518456Y-79025000D01*
%TO.N,/SWCLK*%
X99602770Y-78375000D02*
X100400000Y-77577770D01*
X100400000Y-77577770D02*
X100400000Y-77165686D01*
X100400000Y-77165686D02*
X101000000Y-76565686D01*
X98862500Y-78375000D02*
X99602770Y-78375000D01*
%TD*%
%TA.AperFunction,Conductor*%
%TO.N,GND*%
G36*
X99550376Y-70103701D02*
G01*
X99550395Y-70103550D01*
X99557426Y-70104407D01*
X99559853Y-70105063D01*
X99563035Y-70105521D01*
X99570321Y-70107660D01*
X99570257Y-70107878D01*
X99591520Y-70113630D01*
X99593375Y-70114429D01*
X99593377Y-70114431D01*
X99593379Y-70114431D01*
X99595901Y-70115519D01*
X99624954Y-70133112D01*
X99627541Y-70135212D01*
X99650486Y-70159681D01*
X99650839Y-70160178D01*
X99660223Y-70175678D01*
X99716657Y-70286433D01*
X99855483Y-70477510D01*
X99855485Y-70477512D01*
X99972658Y-70594685D01*
X99993810Y-70622941D01*
X100001302Y-70636662D01*
X100016154Y-70704922D01*
X100016025Y-70706728D01*
X99996657Y-70764930D01*
X99992478Y-70771433D01*
X99975842Y-70792077D01*
X99878217Y-70889701D01*
X99878212Y-70889707D01*
X99878211Y-70889708D01*
X99790613Y-71020807D01*
X99790603Y-71020824D01*
X99790598Y-71020833D01*
X99730272Y-71166475D01*
X99730264Y-71166499D01*
X99730259Y-71166515D01*
X99702839Y-71304362D01*
X99691098Y-71337644D01*
X99675733Y-71367018D01*
X99653538Y-71397225D01*
X95019485Y-76031276D01*
X95019481Y-76031281D01*
X95005561Y-76055393D01*
X95005560Y-76055392D01*
X94979520Y-76100498D01*
X94979517Y-76100504D01*
X94973422Y-76111060D01*
X94948587Y-76154072D01*
X94948579Y-76154084D01*
X94940423Y-76168209D01*
X94929390Y-76209389D01*
X94899499Y-76320943D01*
X94899499Y-76491400D01*
X94899500Y-76491451D01*
X94899500Y-77632670D01*
X94894475Y-77667614D01*
X94890070Y-77682612D01*
X94852327Y-77741355D01*
X94850958Y-77742542D01*
X94796097Y-77770018D01*
X94788539Y-77771663D01*
X94762168Y-77774500D01*
X94341179Y-77774500D01*
X94306247Y-77769478D01*
X94301138Y-77767978D01*
X94242359Y-77730205D01*
X94213333Y-77666650D01*
X94223274Y-77597491D01*
X94269028Y-77544686D01*
X94336067Y-77525000D01*
X94367009Y-77525000D01*
X94367010Y-77525000D01*
X94367011Y-77524998D01*
X94366753Y-77523041D01*
X94359559Y-77468383D01*
X94359558Y-77468381D01*
X94359558Y-77468377D01*
X94359554Y-77468365D01*
X94357985Y-77464576D01*
X94349257Y-77430380D01*
X94346445Y-77404226D01*
X94355174Y-77343518D01*
X94360044Y-77331762D01*
X94375500Y-77214361D01*
X94375499Y-76935640D01*
X94375499Y-76935638D01*
X94375499Y-76935636D01*
X94361039Y-76825793D01*
X94360973Y-76825253D01*
X94361019Y-76824973D01*
X94360839Y-76822241D01*
X94360704Y-76821415D01*
X94360143Y-76818712D01*
X94360048Y-76818247D01*
X94311108Y-76700097D01*
X94299536Y-76672159D01*
X94203282Y-76546718D01*
X94077841Y-76450464D01*
X94077839Y-76450463D01*
X94070232Y-76447312D01*
X93935826Y-76391639D01*
X93932899Y-76390303D01*
X93931761Y-76389954D01*
X93816240Y-76374747D01*
X93814558Y-76374500D01*
X93814367Y-76374500D01*
X93814361Y-76374500D01*
X93814354Y-76374500D01*
X92460636Y-76374500D01*
X92460634Y-76374500D01*
X92343257Y-76389950D01*
X92343246Y-76389953D01*
X92343228Y-76389959D01*
X92197161Y-76450462D01*
X92071718Y-76546718D01*
X91975462Y-76672161D01*
X91916639Y-76814172D01*
X91915304Y-76817096D01*
X91914954Y-76818237D01*
X91899500Y-76935635D01*
X91899500Y-77214365D01*
X91914950Y-77331741D01*
X91914952Y-77331751D01*
X91914953Y-77331753D01*
X91914956Y-77331762D01*
X91917015Y-77336733D01*
X91925742Y-77370931D01*
X91928553Y-77397088D01*
X91919826Y-77457786D01*
X91915444Y-77468365D01*
X91915443Y-77468370D01*
X91907986Y-77525000D01*
X91907987Y-77525000D01*
X91932670Y-77525000D01*
X91967606Y-77530023D01*
X91990621Y-77536781D01*
X92049399Y-77574556D01*
X92054059Y-77580269D01*
X92071718Y-77603282D01*
X92092267Y-77619049D01*
X92125124Y-77657112D01*
X92125348Y-77657514D01*
X92127304Y-77661088D01*
X92127444Y-77661280D01*
X92129323Y-77664655D01*
X92136272Y-77695391D01*
X92144977Y-77725680D01*
X92143919Y-77729215D01*
X92144731Y-77732804D01*
X92134135Y-77761934D01*
X92127046Y-77785640D01*
X92128570Y-77786496D01*
X92124645Y-77793485D01*
X92121224Y-77797432D01*
X92120849Y-77798465D01*
X92119323Y-77799626D01*
X92092017Y-77831141D01*
X92073910Y-77845035D01*
X92073907Y-77845037D01*
X92071718Y-77846718D01*
X92071717Y-77846719D01*
X92071716Y-77846720D01*
X92058631Y-77863771D01*
X92057450Y-77865221D01*
X92055201Y-77866763D01*
X92034473Y-77887003D01*
X92015796Y-77900640D01*
X91964002Y-77922646D01*
X91961104Y-77923152D01*
X91939776Y-77925000D01*
X91907988Y-77925000D01*
X91907988Y-77925001D01*
X91915441Y-77981622D01*
X91915445Y-77981634D01*
X91917015Y-77985424D01*
X91925742Y-78019622D01*
X91928553Y-78045779D01*
X91919827Y-78106475D01*
X91916513Y-78114477D01*
X91915014Y-78117783D01*
X91899500Y-78235636D01*
X91899500Y-78514365D01*
X91914950Y-78631741D01*
X91914953Y-78631753D01*
X91914955Y-78631760D01*
X91914958Y-78631767D01*
X91916744Y-78636080D01*
X91925471Y-78670277D01*
X91928282Y-78696434D01*
X91919556Y-78757128D01*
X91914965Y-78768216D01*
X91914954Y-78768242D01*
X91899500Y-78885636D01*
X91899500Y-79164365D01*
X91914950Y-79281741D01*
X91914953Y-79281753D01*
X91914955Y-79281760D01*
X91914962Y-79281777D01*
X91916744Y-79286080D01*
X91925471Y-79320277D01*
X91928282Y-79346434D01*
X91919556Y-79407128D01*
X91914957Y-79418234D01*
X91914955Y-79418239D01*
X91914954Y-79418242D01*
X91899500Y-79535636D01*
X91899500Y-79814365D01*
X91914950Y-79931741D01*
X91914953Y-79931753D01*
X91914955Y-79931760D01*
X91914962Y-79931777D01*
X91916744Y-79936080D01*
X91925471Y-79970277D01*
X91928282Y-79996434D01*
X91919557Y-80057128D01*
X91914954Y-80068242D01*
X91899500Y-80185636D01*
X91899500Y-80232670D01*
X91894475Y-80267614D01*
X91890070Y-80282612D01*
X91852327Y-80341355D01*
X91850958Y-80342542D01*
X91796097Y-80370018D01*
X91788539Y-80371663D01*
X91762168Y-80374500D01*
X90867329Y-80374500D01*
X90832388Y-80369475D01*
X90817389Y-80365070D01*
X90758643Y-80327327D01*
X90757456Y-80325958D01*
X90729976Y-80271083D01*
X90728331Y-80263521D01*
X90725499Y-80237168D01*
X90725499Y-80100008D01*
X90725499Y-80099998D01*
X90725498Y-80099981D01*
X90714999Y-79997203D01*
X90714998Y-79997200D01*
X90696193Y-79940451D01*
X90659814Y-79830666D01*
X90567712Y-79681344D01*
X90443656Y-79557288D01*
X90443655Y-79557287D01*
X90438553Y-79552185D01*
X90438629Y-79552108D01*
X90431514Y-79545429D01*
X90422707Y-79535638D01*
X90419139Y-79531671D01*
X90388943Y-79468664D01*
X90397604Y-79399334D01*
X90399013Y-79396090D01*
X90431538Y-79351799D01*
X90432781Y-79350722D01*
X90437849Y-79347002D01*
X90437683Y-79346792D01*
X90443337Y-79342321D01*
X90443342Y-79342318D01*
X90567315Y-79218345D01*
X90659356Y-79069124D01*
X90659358Y-79069119D01*
X90714505Y-78902697D01*
X90714506Y-78902690D01*
X90724999Y-78799986D01*
X90725000Y-78799973D01*
X90725000Y-78750000D01*
X89641830Y-78750000D01*
X89606889Y-78744975D01*
X89591890Y-78740570D01*
X89533144Y-78702827D01*
X89531957Y-78701458D01*
X89504477Y-78646583D01*
X89502832Y-78639021D01*
X89500000Y-78612668D01*
X89500000Y-78391829D01*
X89505023Y-78356893D01*
X89509427Y-78341895D01*
X89547172Y-78283144D01*
X89548541Y-78281957D01*
X89603420Y-78254477D01*
X89610979Y-78252833D01*
X89637332Y-78250000D01*
X90724999Y-78250000D01*
X90724999Y-78200032D01*
X90724999Y-78200028D01*
X90724998Y-78200013D01*
X90714505Y-78097302D01*
X90659358Y-77930880D01*
X90659356Y-77930875D01*
X90567315Y-77781654D01*
X90443345Y-77657684D01*
X90443344Y-77657683D01*
X90443343Y-77657682D01*
X90436258Y-77653312D01*
X90409160Y-77630695D01*
X90399880Y-77620377D01*
X90369685Y-77557369D01*
X90378344Y-77488048D01*
X90382139Y-77479314D01*
X90408187Y-77441048D01*
X90427216Y-77422019D01*
X90480520Y-77368716D01*
X90480520Y-77368715D01*
X90490722Y-77358514D01*
X90490729Y-77358504D01*
X91851274Y-75997960D01*
X91851277Y-75997958D01*
X91868715Y-75980520D01*
X91868716Y-75980520D01*
X91980520Y-75868716D01*
X92059577Y-75731784D01*
X92100500Y-75579057D01*
X92100500Y-72817925D01*
X92105522Y-72782992D01*
X92109414Y-72769737D01*
X92112934Y-72757747D01*
X92144228Y-72705005D01*
X93883832Y-70965401D01*
X93912082Y-70944253D01*
X93927067Y-70936070D01*
X93992686Y-70921059D01*
X94005980Y-70921724D01*
X94038100Y-70927637D01*
X94148632Y-70963553D01*
X94148638Y-70963554D01*
X94148636Y-70963554D01*
X94236109Y-70977408D01*
X94236110Y-70977408D01*
X94381903Y-71000500D01*
X94381908Y-71000500D01*
X94618096Y-71000500D01*
X94618097Y-71000500D01*
X94851368Y-70963553D01*
X94884468Y-70952798D01*
X95075992Y-70890568D01*
X95286433Y-70783343D01*
X95477510Y-70644517D01*
X95644517Y-70477510D01*
X95783343Y-70286433D01*
X95835488Y-70184089D01*
X95855825Y-70155242D01*
X95864080Y-70146502D01*
X95867546Y-70142831D01*
X95925317Y-70108277D01*
X95938168Y-70104800D01*
X95970542Y-70100500D01*
X99528106Y-70100500D01*
X99550376Y-70103701D01*
G37*
%TD.AperFunction*%
%TA.AperFunction,Conductor*%
G36*
X160392606Y-51505523D02*
G01*
X160407604Y-51509927D01*
X160466355Y-51547672D01*
X160467542Y-51549041D01*
X160495018Y-51603902D01*
X160496663Y-51611460D01*
X160499500Y-51637831D01*
X160499500Y-52434108D01*
X160499500Y-52500000D01*
X160499500Y-52657250D01*
X160532374Y-52970026D01*
X160532375Y-52970033D01*
X160532384Y-52970077D01*
X160597786Y-53277776D01*
X160598194Y-53278983D01*
X160694947Y-53576759D01*
X160757484Y-53717219D01*
X160757484Y-53717220D01*
X160757483Y-53717220D01*
X160822504Y-53863255D01*
X160822816Y-53863969D01*
X160822873Y-53864083D01*
X160980112Y-54136428D01*
X160980115Y-54136433D01*
X161164967Y-54390860D01*
X161164974Y-54390869D01*
X161164978Y-54390874D01*
X161164981Y-54390877D01*
X161201439Y-54431367D01*
X161201440Y-54431369D01*
X161201441Y-54431369D01*
X161375414Y-54624586D01*
X161512796Y-54748285D01*
X161609130Y-54835025D01*
X161609139Y-54835032D01*
X161863566Y-55019884D01*
X161863571Y-55019887D01*
X161888641Y-55034361D01*
X162135616Y-55176953D01*
X162136178Y-55177277D01*
X162137821Y-55177975D01*
X162423241Y-55305053D01*
X162573408Y-55353844D01*
X162711519Y-55398720D01*
X162711518Y-55398720D01*
X162722962Y-55402438D01*
X162725512Y-55402910D01*
X162764737Y-55411248D01*
X163029974Y-55467626D01*
X163342750Y-55500500D01*
X163434108Y-55500500D01*
X164357670Y-55500500D01*
X164392606Y-55505523D01*
X164407604Y-55509927D01*
X164466355Y-55547672D01*
X164467542Y-55549041D01*
X164495018Y-55603902D01*
X164496663Y-55611460D01*
X164499500Y-55637831D01*
X164499500Y-106357670D01*
X164494475Y-106392614D01*
X164490070Y-106407612D01*
X164452327Y-106466355D01*
X164450958Y-106467542D01*
X164396097Y-106495018D01*
X164388539Y-106496663D01*
X164362168Y-106499500D01*
X163565892Y-106499500D01*
X163500000Y-106499500D01*
X163342750Y-106499500D01*
X163241058Y-106510188D01*
X163038862Y-106531439D01*
X163038841Y-106531442D01*
X163029974Y-106532374D01*
X163029970Y-106532374D01*
X163029968Y-106532375D01*
X163024635Y-106533508D01*
X163024625Y-106533510D01*
X162722222Y-106597786D01*
X162721016Y-106598194D01*
X162423255Y-106694941D01*
X162423248Y-106694943D01*
X162423248Y-106694944D01*
X162377362Y-106715373D01*
X162136709Y-106822519D01*
X162136034Y-106822814D01*
X162135915Y-106822873D01*
X161863570Y-106980112D01*
X161863568Y-106980113D01*
X161609135Y-107164970D01*
X161609131Y-107164973D01*
X161375414Y-107375414D01*
X161164973Y-107609131D01*
X161164970Y-107609135D01*
X160980113Y-107863568D01*
X160980112Y-107863570D01*
X160822873Y-108135915D01*
X160822814Y-108136034D01*
X160822519Y-108136709D01*
X160694941Y-108423255D01*
X160598194Y-108721016D01*
X160597786Y-108722222D01*
X160535687Y-109014381D01*
X160532375Y-109029968D01*
X160532374Y-109029974D01*
X160510404Y-109239013D01*
X160499501Y-109342750D01*
X160499500Y-109342757D01*
X160499500Y-110357670D01*
X160494475Y-110392614D01*
X160490070Y-110407612D01*
X160452327Y-110466355D01*
X160450958Y-110467542D01*
X160396097Y-110495018D01*
X160388539Y-110496663D01*
X160362168Y-110499500D01*
X135934000Y-110499500D01*
X135866961Y-110479815D01*
X135821206Y-110427011D01*
X135810000Y-110375500D01*
X135810000Y-106130000D01*
X131624500Y-106130000D01*
X131557461Y-106110315D01*
X131511706Y-106057511D01*
X131500500Y-106006000D01*
X131500500Y-105881902D01*
X131500499Y-105881896D01*
X131463553Y-105648631D01*
X131390566Y-105424003D01*
X131283342Y-105213566D01*
X131144517Y-105022490D01*
X130977510Y-104855483D01*
X130786433Y-104716657D01*
X130575996Y-104609433D01*
X130351368Y-104536446D01*
X130351362Y-104536445D01*
X130118102Y-104499500D01*
X130118097Y-104499500D01*
X130118092Y-104499500D01*
X129881908Y-104499500D01*
X129881903Y-104499500D01*
X129881898Y-104499500D01*
X129648636Y-104536445D01*
X129648634Y-104536445D01*
X129648631Y-104536446D01*
X129424003Y-104609433D01*
X129228210Y-104709195D01*
X129213562Y-104716659D01*
X129104549Y-104795861D01*
X129104550Y-104795862D01*
X129034361Y-104846858D01*
X129026980Y-104850991D01*
X128850991Y-105026980D01*
X128846858Y-105034361D01*
X128795862Y-105104550D01*
X128795861Y-105104549D01*
X128716659Y-105213562D01*
X128716657Y-105213566D01*
X128609433Y-105424003D01*
X128536446Y-105648631D01*
X128536445Y-105648634D01*
X128536445Y-105648636D01*
X128499500Y-105881896D01*
X128499500Y-106006000D01*
X128479815Y-106073039D01*
X128427011Y-106118794D01*
X128375500Y-106130000D01*
X126516638Y-106130000D01*
X126449599Y-106110315D01*
X126403844Y-106057511D01*
X126393900Y-105988353D01*
X126415063Y-105934877D01*
X126422121Y-105924797D01*
X126430568Y-105912734D01*
X126526739Y-105706496D01*
X126585635Y-105486692D01*
X126600500Y-105316784D01*
X126600500Y-105203216D01*
X126585635Y-105033308D01*
X126526739Y-104813504D01*
X126430568Y-104607266D01*
X126300849Y-104422006D01*
X126300160Y-104420999D01*
X126300040Y-104420852D01*
X126139143Y-104259955D01*
X125952739Y-104129435D01*
X125952735Y-104129433D01*
X125952736Y-104129433D01*
X125952734Y-104129432D01*
X125952728Y-104129429D01*
X125910880Y-104109915D01*
X125881348Y-104090603D01*
X125872616Y-104082915D01*
X125835307Y-104023840D01*
X125835860Y-103953973D01*
X125873354Y-103896135D01*
X125881638Y-103888957D01*
X125910427Y-103870296D01*
X125910886Y-103870082D01*
X125952734Y-103850568D01*
X126139139Y-103720047D01*
X126300047Y-103559139D01*
X126430568Y-103372734D01*
X126526739Y-103166496D01*
X126585635Y-102946692D01*
X126600500Y-102776784D01*
X126600500Y-102663216D01*
X126585635Y-102493308D01*
X126526739Y-102273504D01*
X126430568Y-102067266D01*
X126300849Y-101882006D01*
X126300160Y-101880999D01*
X126300040Y-101880852D01*
X126139143Y-101719955D01*
X125952736Y-101589433D01*
X125952735Y-101589432D01*
X125916938Y-101572740D01*
X125887394Y-101553419D01*
X125877881Y-101545042D01*
X125840578Y-101485965D01*
X125841136Y-101416097D01*
X125876100Y-101360519D01*
X125883226Y-101353996D01*
X125908491Y-101336109D01*
X125959500Y-101308844D01*
X125959503Y-101308842D01*
X125959511Y-101308838D01*
X125959513Y-101308836D01*
X125959521Y-101308832D01*
X126090426Y-101221364D01*
X126090445Y-101221358D01*
X126090530Y-101221295D01*
X126090536Y-101221291D01*
X126167064Y-101158485D01*
X126278485Y-101047064D01*
X126341291Y-100970536D01*
X126341295Y-100970530D01*
X126341299Y-100970523D01*
X126341340Y-100970468D01*
X126341355Y-100970439D01*
X126428832Y-100839521D01*
X126428844Y-100839501D01*
X126475509Y-100752198D01*
X126535814Y-100606612D01*
X126564556Y-100511860D01*
X126564559Y-100511849D01*
X126580839Y-100430000D01*
X122395000Y-100430000D01*
X122395000Y-100819787D01*
X122397715Y-100870440D01*
X122397780Y-100872863D01*
X122397893Y-100873769D01*
X122422592Y-100970536D01*
X122433438Y-101013030D01*
X122433442Y-101013041D01*
X122433444Y-101013049D01*
X122463881Y-101086529D01*
X122463894Y-101086560D01*
X122487216Y-101135306D01*
X122487217Y-101135308D01*
X122487218Y-101135309D01*
X122487221Y-101135314D01*
X122551634Y-101221358D01*
X122573322Y-101250330D01*
X122573356Y-101250376D01*
X122573366Y-101250387D01*
X122629609Y-101306630D01*
X122629621Y-101306641D01*
X122629623Y-101306643D01*
X122629640Y-101306659D01*
X122669842Y-101342770D01*
X122793454Y-101416111D01*
X122793461Y-101416115D01*
X122866932Y-101446547D01*
X122866956Y-101446556D01*
X122878352Y-101450576D01*
X122909624Y-101466935D01*
X122920234Y-101474586D01*
X122963097Y-101529763D01*
X122969324Y-101599355D01*
X122940855Y-101657013D01*
X122938714Y-101659451D01*
X122934863Y-101663833D01*
X122912839Y-101683557D01*
X122860852Y-101719958D01*
X122860852Y-101719959D01*
X122699955Y-101880855D01*
X122569433Y-102067262D01*
X122569432Y-102067264D01*
X122473263Y-102273496D01*
X122473258Y-102273507D01*
X122414366Y-102493300D01*
X122414364Y-102493309D01*
X122414362Y-102493320D01*
X122399500Y-102663209D01*
X122399500Y-102776789D01*
X122414362Y-102946678D01*
X122414364Y-102946689D01*
X122414366Y-102946698D01*
X122473258Y-103166491D01*
X122473263Y-103166502D01*
X122569432Y-103372734D01*
X122569433Y-103372736D01*
X122699955Y-103559143D01*
X122860852Y-103720040D01*
X122860999Y-103720160D01*
X122862006Y-103720849D01*
X123047266Y-103850568D01*
X123089114Y-103870082D01*
X123118656Y-103889400D01*
X123127387Y-103897088D01*
X123164692Y-103956165D01*
X123164136Y-104026033D01*
X123126641Y-104083868D01*
X123118367Y-104091037D01*
X123089573Y-104109703D01*
X123047264Y-104129432D01*
X123047262Y-104129433D01*
X122860855Y-104259955D01*
X122699955Y-104420855D01*
X122569433Y-104607262D01*
X122569432Y-104607264D01*
X122473263Y-104813496D01*
X122473258Y-104813507D01*
X122414366Y-105033300D01*
X122414364Y-105033309D01*
X122414362Y-105033320D01*
X122399500Y-105203209D01*
X122399500Y-105316789D01*
X122414362Y-105486678D01*
X122414364Y-105486689D01*
X122414366Y-105486698D01*
X122473258Y-105706491D01*
X122473263Y-105706502D01*
X122569432Y-105912734D01*
X122584937Y-105934878D01*
X122607264Y-106001084D01*
X122590252Y-106068851D01*
X122539304Y-106116664D01*
X122483361Y-106130000D01*
X117558825Y-106130000D01*
X117491786Y-106110315D01*
X117446031Y-106057511D01*
X117436087Y-105988353D01*
X117465112Y-105924797D01*
X117482769Y-105908064D01*
X118914920Y-104795861D01*
X121910000Y-102469895D01*
X121910000Y-98130000D01*
X107710000Y-98130000D01*
X107710000Y-102469895D01*
X112137231Y-105908064D01*
X112178106Y-105964730D01*
X112181855Y-106034499D01*
X112147290Y-106095220D01*
X112085383Y-106127614D01*
X112061175Y-106130000D01*
X107136638Y-106130000D01*
X107069599Y-106110315D01*
X107023844Y-106057511D01*
X107013900Y-105988353D01*
X107035063Y-105934877D01*
X107042121Y-105924797D01*
X107050568Y-105912734D01*
X107146739Y-105706496D01*
X107205635Y-105486692D01*
X107220500Y-105316784D01*
X107220500Y-105203216D01*
X107205635Y-105033308D01*
X107146739Y-104813504D01*
X107050568Y-104607266D01*
X106920849Y-104422006D01*
X106920160Y-104420999D01*
X106920040Y-104420852D01*
X106759143Y-104259955D01*
X106572739Y-104129435D01*
X106572735Y-104129433D01*
X106572736Y-104129433D01*
X106572734Y-104129432D01*
X106572728Y-104129429D01*
X106530880Y-104109915D01*
X106501348Y-104090603D01*
X106492616Y-104082915D01*
X106455307Y-104023840D01*
X106455860Y-103953973D01*
X106493354Y-103896135D01*
X106501638Y-103888957D01*
X106530427Y-103870296D01*
X106530886Y-103870082D01*
X106572734Y-103850568D01*
X106759139Y-103720047D01*
X106920047Y-103559139D01*
X107050568Y-103372734D01*
X107146739Y-103166496D01*
X107205635Y-102946692D01*
X107220500Y-102776784D01*
X107220500Y-102663216D01*
X107205635Y-102493308D01*
X107146739Y-102273504D01*
X107050568Y-102067266D01*
X106920849Y-101882006D01*
X106920160Y-101880999D01*
X106920040Y-101880852D01*
X106759142Y-101719954D01*
X106707224Y-101683601D01*
X106681490Y-101659451D01*
X106674378Y-101650554D01*
X106647894Y-101585898D01*
X106660571Y-101517188D01*
X106708174Y-101466362D01*
X106717844Y-101460651D01*
X106750256Y-101447267D01*
X106753038Y-101446558D01*
X106753042Y-101446557D01*
X106826528Y-101416118D01*
X106826556Y-101416106D01*
X106875309Y-101392781D01*
X106875314Y-101392778D01*
X106990378Y-101306641D01*
X106990382Y-101306638D01*
X107046643Y-101250376D01*
X107046659Y-101250359D01*
X107082770Y-101210157D01*
X107156111Y-101086545D01*
X107156115Y-101086538D01*
X107186547Y-101013067D01*
X107186548Y-101013064D01*
X107204544Y-100962053D01*
X107223331Y-100831375D01*
X107224116Y-100827604D01*
X107225000Y-100825948D01*
X107225000Y-100430000D01*
X103039160Y-100430000D01*
X103055440Y-100511853D01*
X103084185Y-100606613D01*
X103144490Y-100752198D01*
X103180617Y-100819787D01*
X103191155Y-100839501D01*
X103191167Y-100839521D01*
X103278632Y-100970423D01*
X103278638Y-100970443D01*
X103278710Y-100970539D01*
X103341517Y-101047068D01*
X103452930Y-101158481D01*
X103529195Y-101221072D01*
X103529199Y-101221075D01*
X103529463Y-101221291D01*
X103529469Y-101221295D01*
X103660478Y-101308832D01*
X103660506Y-101308849D01*
X103713453Y-101337150D01*
X103717187Y-101339502D01*
X103720132Y-101342840D01*
X103737987Y-101355959D01*
X103747028Y-101364840D01*
X103759876Y-101387879D01*
X103763417Y-101391891D01*
X103763909Y-101395110D01*
X103781059Y-101425861D01*
X103776697Y-101495595D01*
X103738754Y-101549189D01*
X103731291Y-101555308D01*
X103705076Y-101571800D01*
X103667271Y-101589429D01*
X103667267Y-101589431D01*
X103667264Y-101589433D01*
X103545033Y-101675019D01*
X103480852Y-101719958D01*
X103319955Y-101880855D01*
X103189433Y-102067262D01*
X103189432Y-102067264D01*
X103093263Y-102273496D01*
X103093258Y-102273507D01*
X103034366Y-102493300D01*
X103034364Y-102493309D01*
X103034362Y-102493320D01*
X103019500Y-102663209D01*
X103019500Y-102776789D01*
X103034362Y-102946678D01*
X103034364Y-102946689D01*
X103034366Y-102946698D01*
X103093258Y-103166491D01*
X103093263Y-103166502D01*
X103189432Y-103372734D01*
X103189433Y-103372736D01*
X103319955Y-103559143D01*
X103480852Y-103720040D01*
X103480999Y-103720160D01*
X103482006Y-103720849D01*
X103667266Y-103850568D01*
X103709114Y-103870082D01*
X103738656Y-103889400D01*
X103747387Y-103897088D01*
X103784692Y-103956165D01*
X103784136Y-104026033D01*
X103746641Y-104083868D01*
X103738367Y-104091037D01*
X103709573Y-104109703D01*
X103667264Y-104129432D01*
X103667262Y-104129433D01*
X103480855Y-104259955D01*
X103319955Y-104420855D01*
X103189433Y-104607262D01*
X103189432Y-104607264D01*
X103093263Y-104813496D01*
X103093258Y-104813507D01*
X103034366Y-105033300D01*
X103034364Y-105033309D01*
X103034362Y-105033320D01*
X103019500Y-105203209D01*
X103019500Y-105316789D01*
X103034362Y-105486678D01*
X103034364Y-105486689D01*
X103034366Y-105486698D01*
X103093258Y-105706491D01*
X103093263Y-105706502D01*
X103189432Y-105912734D01*
X103204937Y-105934878D01*
X103227264Y-106001084D01*
X103210252Y-106068851D01*
X103159304Y-106116664D01*
X103103361Y-106130000D01*
X98624500Y-106130000D01*
X98557461Y-106110315D01*
X98511706Y-106057511D01*
X98500500Y-106006000D01*
X98500500Y-105881902D01*
X98500499Y-105881896D01*
X98463553Y-105648631D01*
X98390566Y-105424003D01*
X98283342Y-105213566D01*
X98144517Y-105022490D01*
X97977510Y-104855483D01*
X97786433Y-104716657D01*
X97575996Y-104609433D01*
X97351368Y-104536446D01*
X97351362Y-104536445D01*
X97118102Y-104499500D01*
X97118097Y-104499500D01*
X97118092Y-104499500D01*
X96881908Y-104499500D01*
X96881903Y-104499500D01*
X96881898Y-104499500D01*
X96648636Y-104536445D01*
X96648634Y-104536445D01*
X96648631Y-104536446D01*
X96424003Y-104609433D01*
X96228210Y-104709195D01*
X96213562Y-104716659D01*
X96104549Y-104795861D01*
X96104550Y-104795862D01*
X96034361Y-104846858D01*
X96026980Y-104850991D01*
X95850991Y-105026980D01*
X95846858Y-105034361D01*
X95795862Y-105104550D01*
X95795861Y-105104549D01*
X95716659Y-105213562D01*
X95716657Y-105213566D01*
X95609433Y-105424003D01*
X95536446Y-105648631D01*
X95536445Y-105648634D01*
X95536445Y-105648636D01*
X95499500Y-105881896D01*
X95499500Y-106006000D01*
X95479815Y-106073039D01*
X95427011Y-106118794D01*
X95375500Y-106130000D01*
X93810000Y-106130000D01*
X93810000Y-110375500D01*
X93790315Y-110442539D01*
X93737511Y-110488294D01*
X93686000Y-110499500D01*
X89642330Y-110499500D01*
X89607389Y-110494475D01*
X89592390Y-110490070D01*
X89533644Y-110452327D01*
X89532457Y-110450958D01*
X89504977Y-110396083D01*
X89503332Y-110388521D01*
X89500500Y-110362168D01*
X89500500Y-109342754D01*
X89500500Y-109342750D01*
X89467626Y-109029974D01*
X89402238Y-108722348D01*
X89305053Y-108423241D01*
X89177134Y-108135932D01*
X89177133Y-108135931D01*
X89177124Y-108135910D01*
X89176957Y-108135623D01*
X89019886Y-107863570D01*
X89019885Y-107863568D01*
X89019884Y-107863566D01*
X88835032Y-107609139D01*
X88835025Y-107609130D01*
X88737214Y-107500500D01*
X88624586Y-107375414D01*
X88422201Y-107193186D01*
X88390876Y-107164980D01*
X88390874Y-107164978D01*
X88390871Y-107164975D01*
X88390869Y-107164974D01*
X88390860Y-107164967D01*
X88136433Y-106980115D01*
X88136428Y-106980112D01*
X87864083Y-106822873D01*
X87863953Y-106822808D01*
X87863316Y-106822530D01*
X87680339Y-106741064D01*
X87576759Y-106694947D01*
X87576754Y-106694945D01*
X87576751Y-106694944D01*
X87576742Y-106694941D01*
X87576734Y-106694938D01*
X87278982Y-106598194D01*
X87277771Y-106597785D01*
X87012416Y-106541384D01*
X87012415Y-106541384D01*
X86970026Y-106532374D01*
X86657250Y-106499500D01*
X86657245Y-106499500D01*
X85642330Y-106499500D01*
X85607389Y-106494475D01*
X85592390Y-106490070D01*
X85533644Y-106452327D01*
X85532457Y-106450958D01*
X85504977Y-106396083D01*
X85503332Y-106388521D01*
X85500500Y-106362168D01*
X85500500Y-96881941D01*
X93000000Y-96881941D01*
X93000000Y-97118057D01*
X93036933Y-97351243D01*
X93036934Y-97351247D01*
X93109896Y-97575800D01*
X93109898Y-97575804D01*
X93217086Y-97786172D01*
X93217087Y-97786174D01*
X93277337Y-97869103D01*
X93277339Y-97869105D01*
X93277339Y-97869104D01*
X93277340Y-97869105D01*
X93853695Y-97292749D01*
X93915016Y-97259266D01*
X93984707Y-97264250D01*
X94040641Y-97306121D01*
X94048759Y-97318429D01*
X94053183Y-97326091D01*
X94059888Y-97337706D01*
X94059890Y-97337708D01*
X94162292Y-97440110D01*
X94162293Y-97440111D01*
X94162295Y-97440112D01*
X94181563Y-97451236D01*
X94229780Y-97501802D01*
X94243004Y-97570409D01*
X94217037Y-97635274D01*
X94207246Y-97646305D01*
X93630892Y-98222657D01*
X93630893Y-98222657D01*
X93630893Y-98222658D01*
X93713828Y-98282914D01*
X93924197Y-98390102D01*
X94055782Y-98432857D01*
X94085252Y-98453007D01*
X94148749Y-98463064D01*
X94148752Y-98463065D01*
X94148751Y-98463065D01*
X94381948Y-98500000D01*
X94618051Y-98500000D01*
X94618052Y-98500000D01*
X94851247Y-98463065D01*
X95075802Y-98390102D01*
X95286163Y-98282918D01*
X95286169Y-98282914D01*
X95336509Y-98246340D01*
X95363247Y-98236799D01*
X95369105Y-98222657D01*
X94792752Y-97646306D01*
X94759267Y-97584983D01*
X94764251Y-97515292D01*
X94806122Y-97459358D01*
X94818429Y-97451240D01*
X94837708Y-97440110D01*
X94940110Y-97337708D01*
X94951237Y-97318436D01*
X95001800Y-97270220D01*
X95070407Y-97256995D01*
X95135272Y-97282961D01*
X95146305Y-97292753D01*
X95722657Y-97869105D01*
X95722657Y-97869104D01*
X95722658Y-97869105D01*
X95722658Y-97869104D01*
X95736126Y-97863525D01*
X95742343Y-97842355D01*
X95746340Y-97836509D01*
X95754103Y-97825822D01*
X95782914Y-97786169D01*
X95782918Y-97786163D01*
X95890102Y-97575802D01*
X95963065Y-97351247D01*
X96000000Y-97118052D01*
X96000000Y-96881947D01*
X95999999Y-96881941D01*
X99500000Y-96881941D01*
X99500000Y-97118057D01*
X99536933Y-97351243D01*
X99536934Y-97351247D01*
X99609896Y-97575800D01*
X99609898Y-97575804D01*
X99717086Y-97786172D01*
X99717087Y-97786174D01*
X99775585Y-97866692D01*
X99777338Y-97869104D01*
X99777340Y-97869105D01*
X100353695Y-97292749D01*
X100415016Y-97259266D01*
X100484707Y-97264250D01*
X100540641Y-97306121D01*
X100548759Y-97318429D01*
X100553183Y-97326091D01*
X100559888Y-97337706D01*
X100559890Y-97337708D01*
X100662292Y-97440110D01*
X100662293Y-97440111D01*
X100662295Y-97440112D01*
X100681563Y-97451236D01*
X100729780Y-97501802D01*
X100743004Y-97570409D01*
X100717037Y-97635274D01*
X100707246Y-97646305D01*
X100130892Y-98222657D01*
X100130893Y-98222657D01*
X100130893Y-98222658D01*
X100213828Y-98282914D01*
X100424197Y-98390102D01*
X100555782Y-98432857D01*
X100585252Y-98453007D01*
X100648749Y-98463064D01*
X100648752Y-98463065D01*
X100648751Y-98463065D01*
X100881948Y-98500000D01*
X101118051Y-98500000D01*
X101118052Y-98500000D01*
X101351247Y-98463065D01*
X101575802Y-98390102D01*
X101786163Y-98282918D01*
X101786169Y-98282914D01*
X101836509Y-98246340D01*
X101863247Y-98236799D01*
X101869105Y-98222657D01*
X101292752Y-97646306D01*
X101259267Y-97584983D01*
X101264251Y-97515292D01*
X101306122Y-97459358D01*
X101318429Y-97451240D01*
X101337708Y-97440110D01*
X101440110Y-97337708D01*
X101451237Y-97318434D01*
X101501802Y-97270219D01*
X101570409Y-97256994D01*
X101635274Y-97282961D01*
X101646306Y-97292752D01*
X102222657Y-97869105D01*
X102222657Y-97869104D01*
X102222658Y-97869105D01*
X102222658Y-97869104D01*
X102236126Y-97863525D01*
X102242343Y-97842355D01*
X102246340Y-97836509D01*
X102254103Y-97825822D01*
X102282914Y-97786169D01*
X102282918Y-97786163D01*
X102390102Y-97575802D01*
X102463065Y-97351247D01*
X102500000Y-97118052D01*
X102500000Y-96881947D01*
X102463065Y-96648752D01*
X102390102Y-96424197D01*
X102282914Y-96213828D01*
X102246338Y-96163487D01*
X102236799Y-96136750D01*
X102222657Y-96130892D01*
X101646305Y-96707246D01*
X101584982Y-96740731D01*
X101515291Y-96735747D01*
X101459357Y-96693876D01*
X101451236Y-96681563D01*
X101440112Y-96662295D01*
X101440108Y-96662290D01*
X101337707Y-96559889D01*
X101318432Y-96548761D01*
X101270217Y-96498194D01*
X101256995Y-96429586D01*
X101282963Y-96364722D01*
X101292745Y-96353700D01*
X101869105Y-95777340D01*
X101869104Y-95777338D01*
X101849695Y-95763237D01*
X101786174Y-95717087D01*
X101786172Y-95717086D01*
X101575806Y-95609898D01*
X101506399Y-95587346D01*
X101444215Y-95567141D01*
X101414746Y-95546991D01*
X101118057Y-95500000D01*
X101118052Y-95500000D01*
X100881948Y-95500000D01*
X100881943Y-95500000D01*
X100648755Y-95536933D01*
X100424194Y-95609898D01*
X100213825Y-95717086D01*
X100130894Y-95777339D01*
X100130893Y-95777340D01*
X100707247Y-96353693D01*
X100740732Y-96415016D01*
X100735748Y-96484707D01*
X100693877Y-96540641D01*
X100681568Y-96548760D01*
X100662295Y-96559887D01*
X100662290Y-96559891D01*
X100559891Y-96662290D01*
X100559887Y-96662295D01*
X100548760Y-96681568D01*
X100498192Y-96729783D01*
X100429584Y-96743004D01*
X100364720Y-96717035D01*
X100353693Y-96707247D01*
X99777340Y-96130893D01*
X99777339Y-96130894D01*
X99717086Y-96213825D01*
X99609898Y-96424194D01*
X99536933Y-96648755D01*
X99500000Y-96881941D01*
X95999999Y-96881941D01*
X95963065Y-96648752D01*
X95890102Y-96424197D01*
X95782914Y-96213828D01*
X95746338Y-96163487D01*
X95736799Y-96136750D01*
X95722657Y-96130892D01*
X95146305Y-96707246D01*
X95084982Y-96740731D01*
X95015291Y-96735747D01*
X94959357Y-96693876D01*
X94951236Y-96681563D01*
X94940112Y-96662295D01*
X94940108Y-96662290D01*
X94837707Y-96559889D01*
X94818432Y-96548761D01*
X94770217Y-96498194D01*
X94756995Y-96429586D01*
X94782963Y-96364722D01*
X94792745Y-96353700D01*
X95369105Y-95777340D01*
X95369104Y-95777339D01*
X95369103Y-95777338D01*
X95369102Y-95777337D01*
X95369097Y-95777333D01*
X95286177Y-95717089D01*
X95286176Y-95717088D01*
X95286174Y-95717087D01*
X95204975Y-95675714D01*
X95075806Y-95609898D01*
X95006399Y-95587346D01*
X94944215Y-95567141D01*
X94914746Y-95546991D01*
X94618057Y-95500000D01*
X94618052Y-95500000D01*
X94381948Y-95500000D01*
X94381943Y-95500000D01*
X94148755Y-95536933D01*
X93924194Y-95609898D01*
X93713825Y-95717086D01*
X93630894Y-95777339D01*
X93630893Y-95777340D01*
X94207247Y-96353693D01*
X94240732Y-96415016D01*
X94235748Y-96484707D01*
X94193877Y-96540641D01*
X94181568Y-96548760D01*
X94162295Y-96559887D01*
X94162290Y-96559891D01*
X94059891Y-96662290D01*
X94059887Y-96662295D01*
X94048760Y-96681568D01*
X93998192Y-96729783D01*
X93929584Y-96743004D01*
X93864720Y-96717035D01*
X93853693Y-96707247D01*
X93277340Y-96130893D01*
X93277339Y-96130894D01*
X93217086Y-96213825D01*
X93109898Y-96424194D01*
X93036933Y-96648755D01*
X93000000Y-96881941D01*
X85500500Y-96881941D01*
X85500500Y-83557046D01*
X85893601Y-83557046D01*
X85899498Y-83579054D01*
X85913708Y-83632086D01*
X85924131Y-83670984D01*
X85940423Y-83731786D01*
X85960664Y-83766843D01*
X85960663Y-83766843D01*
X85981421Y-83802796D01*
X85981421Y-83802797D01*
X85981422Y-83802798D01*
X86016282Y-83863178D01*
X86016284Y-83863181D01*
X86019468Y-83868695D01*
X86019480Y-83868715D01*
X86019483Y-83868720D01*
X86140314Y-83989551D01*
X86140359Y-83989594D01*
X86750573Y-84599808D01*
X86771723Y-84628060D01*
X86784331Y-84651149D01*
X86799500Y-84710578D01*
X86799500Y-85312501D01*
X86799500Y-85312509D01*
X86799503Y-85312545D01*
X86809973Y-85415032D01*
X86810000Y-85415296D01*
X86810001Y-85415299D01*
X86865185Y-85581831D01*
X86865187Y-85581836D01*
X86871908Y-85592732D01*
X86878557Y-85603512D01*
X86878558Y-85603514D01*
X86948997Y-85717715D01*
X86949260Y-85718141D01*
X86949261Y-85718143D01*
X86949260Y-85718143D01*
X86957286Y-85731154D01*
X87038343Y-85812211D01*
X87059495Y-85840467D01*
X87066987Y-85854188D01*
X87081839Y-85922448D01*
X87081710Y-85924254D01*
X87062342Y-85982456D01*
X87058163Y-85988959D01*
X87041527Y-86009603D01*
X86957291Y-86093838D01*
X86914646Y-86162977D01*
X86872490Y-86231324D01*
X86865185Y-86243167D01*
X86865178Y-86243185D01*
X86852869Y-86280335D01*
X86852869Y-86280336D01*
X86847616Y-86296189D01*
X86820299Y-86378623D01*
X86811852Y-86391567D01*
X86810365Y-86406130D01*
X86809542Y-86412381D01*
X86809359Y-86415976D01*
X86799500Y-86512473D01*
X86799500Y-86512483D01*
X86799500Y-87137501D01*
X86799500Y-87137509D01*
X86799503Y-87137545D01*
X86807270Y-87213570D01*
X86810000Y-87240296D01*
X86810001Y-87240299D01*
X86814128Y-87252754D01*
X86865182Y-87406822D01*
X86865187Y-87406838D01*
X86894083Y-87453686D01*
X86957285Y-87556152D01*
X86957286Y-87556154D01*
X86957288Y-87556156D01*
X87081344Y-87680212D01*
X87230666Y-87772314D01*
X87230668Y-87772315D01*
X87246967Y-87777715D01*
X87297584Y-87794488D01*
X87329160Y-87810241D01*
X87342016Y-87819142D01*
X87385926Y-87873486D01*
X87389998Y-87883280D01*
X87399500Y-87930884D01*
X87399500Y-93119952D01*
X87394476Y-93154889D01*
X87389666Y-93171269D01*
X87353883Y-93228283D01*
X87344014Y-93237212D01*
X87317117Y-93255745D01*
X87225974Y-93302185D01*
X87047658Y-93431739D01*
X87047629Y-93431761D01*
X86891761Y-93587629D01*
X86891739Y-93587658D01*
X86762187Y-93765972D01*
X86662104Y-93962392D01*
X86662102Y-93962396D01*
X86662096Y-93962416D01*
X86593986Y-94172039D01*
X86593985Y-94172046D01*
X86566974Y-94342590D01*
X86559500Y-94389778D01*
X86559500Y-94610221D01*
X86564812Y-94643760D01*
X86593985Y-94827955D01*
X86662078Y-95037530D01*
X86662104Y-95037606D01*
X86699860Y-95111704D01*
X86699860Y-95111706D01*
X86699861Y-95111706D01*
X86740974Y-95192395D01*
X86757333Y-95224500D01*
X86762187Y-95234025D01*
X86762189Y-95234028D01*
X86762192Y-95234033D01*
X86829516Y-95326697D01*
X86891752Y-95412358D01*
X86891756Y-95412363D01*
X86891761Y-95412369D01*
X87047627Y-95568235D01*
X87047636Y-95568243D01*
X87047660Y-95568261D01*
X87144276Y-95638456D01*
X87144278Y-95638457D01*
X87144281Y-95638459D01*
X87225978Y-95697815D01*
X87309246Y-95740242D01*
X87343209Y-95757548D01*
X87354375Y-95763237D01*
X87422393Y-95797895D01*
X87422396Y-95797896D01*
X87527221Y-95831955D01*
X87632049Y-95866015D01*
X87849778Y-95900500D01*
X87849779Y-95900500D01*
X88070221Y-95900500D01*
X88070222Y-95900500D01*
X88287951Y-95866015D01*
X88497606Y-95797895D01*
X88694022Y-95697815D01*
X88872365Y-95568242D01*
X88909930Y-95530675D01*
X88938175Y-95509530D01*
X88950363Y-95502875D01*
X89018632Y-95488023D01*
X89084096Y-95512438D01*
X89084097Y-95512439D01*
X89087772Y-95515190D01*
X89129644Y-95571123D01*
X89156202Y-95642328D01*
X89156206Y-95642335D01*
X89175281Y-95667816D01*
X89242450Y-95757542D01*
X89242456Y-95757548D01*
X89268895Y-95777340D01*
X89357664Y-95843793D01*
X89357671Y-95843797D01*
X89492517Y-95894091D01*
X89492516Y-95894091D01*
X89499444Y-95894835D01*
X89552127Y-95900500D01*
X91447872Y-95900499D01*
X91507483Y-95894091D01*
X91642331Y-95843796D01*
X91757546Y-95757546D01*
X91843796Y-95642331D01*
X91894091Y-95507483D01*
X91900500Y-95447873D01*
X91900500Y-95242329D01*
X91905523Y-95207393D01*
X91909927Y-95192395D01*
X91947672Y-95133644D01*
X91949041Y-95132457D01*
X92003920Y-95104977D01*
X92011479Y-95103333D01*
X92037832Y-95100500D01*
X96911380Y-95100500D01*
X96911443Y-95100501D01*
X96913347Y-95100501D01*
X96920943Y-95100501D01*
X97079054Y-95100501D01*
X97079057Y-95100501D01*
X97231785Y-95059577D01*
X97281904Y-95030639D01*
X97368716Y-94980520D01*
X97480520Y-94868716D01*
X97480520Y-94868715D01*
X97494322Y-94854913D01*
X97497599Y-94851633D01*
X97500918Y-94848314D01*
X97500926Y-94848310D01*
X97500937Y-94848295D01*
X99343020Y-93006216D01*
X99350816Y-92992710D01*
X99372631Y-92964969D01*
X99380826Y-92957155D01*
X99442926Y-92925144D01*
X99512479Y-92931788D01*
X99567397Y-92974979D01*
X99572973Y-92982808D01*
X99573304Y-92983273D01*
X99590225Y-93016880D01*
X99609430Y-93075990D01*
X99609432Y-93075996D01*
X99705772Y-93265070D01*
X99716657Y-93286433D01*
X99855483Y-93477510D01*
X100022490Y-93644517D01*
X100213567Y-93783343D01*
X100255975Y-93804951D01*
X100299270Y-93827011D01*
X100417554Y-93887280D01*
X100417553Y-93887280D01*
X100424879Y-93891012D01*
X100428629Y-93892070D01*
X100489469Y-93911837D01*
X100528438Y-93924499D01*
X100528439Y-93924500D01*
X100565806Y-93936641D01*
X100648631Y-93963553D01*
X100881903Y-94000500D01*
X100881908Y-94000500D01*
X101118096Y-94000500D01*
X101118097Y-94000500D01*
X101351368Y-93963553D01*
X101416525Y-93942382D01*
X101575992Y-93890568D01*
X101786433Y-93783343D01*
X101977510Y-93644517D01*
X102144517Y-93477510D01*
X102283343Y-93286433D01*
X102390568Y-93075992D01*
X102463553Y-92851368D01*
X102473797Y-92786692D01*
X102500500Y-92618097D01*
X102500500Y-92381902D01*
X102463553Y-92148631D01*
X102401534Y-91957758D01*
X102390568Y-91924008D01*
X102390566Y-91924005D01*
X102390566Y-91924003D01*
X102388328Y-91919612D01*
X102388017Y-91918813D01*
X102387280Y-91917554D01*
X102382038Y-91907267D01*
X102328397Y-91801990D01*
X102283343Y-91713567D01*
X102144517Y-91522490D01*
X101977510Y-91355483D01*
X101786433Y-91216657D01*
X101709815Y-91177618D01*
X101575996Y-91109433D01*
X101351368Y-91036446D01*
X101351362Y-91036445D01*
X101118102Y-90999500D01*
X101118097Y-90999500D01*
X101118092Y-90999500D01*
X100881908Y-90999500D01*
X100881903Y-90999500D01*
X100881898Y-90999500D01*
X100648636Y-91036445D01*
X100648634Y-91036445D01*
X100648631Y-91036446D01*
X100424003Y-91109433D01*
X100343274Y-91150567D01*
X100213573Y-91216653D01*
X100213560Y-91216661D01*
X100113971Y-91289016D01*
X100113972Y-91289017D01*
X100034361Y-91346858D01*
X100026980Y-91350991D01*
X99850989Y-91526982D01*
X99846860Y-91534356D01*
X99828266Y-91559950D01*
X99828264Y-91559954D01*
X99716659Y-91713562D01*
X99716657Y-91713565D01*
X99705578Y-91735310D01*
X99678045Y-91764461D01*
X99659918Y-91787623D01*
X99643366Y-91793394D01*
X99640781Y-91794639D01*
X99640639Y-91794345D01*
X99593944Y-91810628D01*
X99526006Y-91794314D01*
X99477673Y-91743859D01*
X99466052Y-91710533D01*
X99465296Y-91706659D01*
X99463000Y-91682909D01*
X99463000Y-89963209D01*
X103019500Y-89963209D01*
X103019500Y-90076789D01*
X103034362Y-90246678D01*
X103034364Y-90246689D01*
X103034366Y-90246698D01*
X103093258Y-90466491D01*
X103093263Y-90466502D01*
X103189432Y-90672734D01*
X103189433Y-90672736D01*
X103319955Y-90859143D01*
X103480852Y-91020040D01*
X103480999Y-91020160D01*
X103482006Y-91020849D01*
X103667266Y-91150568D01*
X103709114Y-91170082D01*
X103738656Y-91189400D01*
X103747387Y-91197088D01*
X103784692Y-91256165D01*
X103784136Y-91326033D01*
X103746641Y-91383868D01*
X103738367Y-91391037D01*
X103709573Y-91409703D01*
X103667264Y-91429432D01*
X103667262Y-91429433D01*
X103480857Y-91559954D01*
X103319955Y-91720855D01*
X103189433Y-91907262D01*
X103189432Y-91907264D01*
X103093263Y-92113496D01*
X103093258Y-92113507D01*
X103034366Y-92333300D01*
X103034364Y-92333309D01*
X103034362Y-92333320D01*
X103019500Y-92503209D01*
X103019500Y-92616789D01*
X103034362Y-92786678D01*
X103034364Y-92786689D01*
X103034366Y-92786698D01*
X103093258Y-93006491D01*
X103093263Y-93006502D01*
X103189432Y-93212734D01*
X103189433Y-93212736D01*
X103319955Y-93399143D01*
X103480852Y-93560040D01*
X103480999Y-93560160D01*
X103482006Y-93560849D01*
X103667266Y-93690568D01*
X103675263Y-93694297D01*
X103709114Y-93710082D01*
X103738656Y-93729400D01*
X103747387Y-93737088D01*
X103784692Y-93796165D01*
X103784136Y-93866033D01*
X103746641Y-93923868D01*
X103738367Y-93931037D01*
X103709573Y-93949703D01*
X103667264Y-93969432D01*
X103667262Y-93969433D01*
X103480855Y-94099955D01*
X103319955Y-94260855D01*
X103189433Y-94447262D01*
X103189432Y-94447264D01*
X103093263Y-94653496D01*
X103093258Y-94653507D01*
X103034366Y-94873300D01*
X103034364Y-94873309D01*
X103034362Y-94873320D01*
X103019500Y-95043209D01*
X103019500Y-95156789D01*
X103034362Y-95326678D01*
X103034364Y-95326689D01*
X103034366Y-95326698D01*
X103093258Y-95546491D01*
X103093263Y-95546502D01*
X103189432Y-95752734D01*
X103189433Y-95752736D01*
X103319955Y-95939143D01*
X103480852Y-96100040D01*
X103480999Y-96100160D01*
X103482006Y-96100849D01*
X103667266Y-96230568D01*
X103709114Y-96250082D01*
X103738656Y-96269400D01*
X103747387Y-96277088D01*
X103784692Y-96336165D01*
X103784136Y-96406033D01*
X103746641Y-96463868D01*
X103738367Y-96471037D01*
X103709573Y-96489703D01*
X103667264Y-96509432D01*
X103667262Y-96509433D01*
X103480855Y-96639955D01*
X103319955Y-96800855D01*
X103189433Y-96987262D01*
X103189432Y-96987264D01*
X103093263Y-97193496D01*
X103093258Y-97193507D01*
X103034366Y-97413300D01*
X103034364Y-97413309D01*
X103034362Y-97413320D01*
X103019500Y-97583209D01*
X103019500Y-97696789D01*
X103034362Y-97866678D01*
X103034364Y-97866689D01*
X103034366Y-97866698D01*
X103093258Y-98086491D01*
X103093263Y-98086502D01*
X103189432Y-98292734D01*
X103189433Y-98292736D01*
X103319955Y-98479143D01*
X103480852Y-98640040D01*
X103480999Y-98640160D01*
X103482006Y-98640849D01*
X103667266Y-98770568D01*
X103703063Y-98787260D01*
X103732604Y-98806579D01*
X103742117Y-98814956D01*
X103779420Y-98874033D01*
X103778862Y-98943901D01*
X103743902Y-98999475D01*
X103736786Y-99005990D01*
X103711507Y-99023890D01*
X103660483Y-99051163D01*
X103529577Y-99138632D01*
X103529457Y-99138712D01*
X103452930Y-99201517D01*
X103341517Y-99312930D01*
X103278712Y-99389457D01*
X103278632Y-99389577D01*
X103191169Y-99520474D01*
X103191166Y-99520478D01*
X103191148Y-99520510D01*
X103144490Y-99607800D01*
X103084185Y-99753385D01*
X103055443Y-99848139D01*
X103055440Y-99848150D01*
X103039160Y-99929999D01*
X103039161Y-99930000D01*
X107225000Y-99930000D01*
X107225000Y-99540212D01*
X107222284Y-99489556D01*
X107222219Y-99487136D01*
X107222105Y-99486229D01*
X107199572Y-99397946D01*
X107186561Y-99346969D01*
X107186557Y-99346957D01*
X107186548Y-99346936D01*
X107156117Y-99273469D01*
X107156104Y-99273438D01*
X107132782Y-99224692D01*
X107132781Y-99224690D01*
X107132778Y-99224685D01*
X107046641Y-99109621D01*
X107046638Y-99109617D01*
X107046630Y-99109609D01*
X106990389Y-99053368D01*
X106990368Y-99053348D01*
X106958805Y-99024997D01*
X106950157Y-99017229D01*
X106950042Y-99017161D01*
X106826538Y-98943884D01*
X106826526Y-98943878D01*
X106756063Y-98914692D01*
X106756043Y-98914684D01*
X106753067Y-98913452D01*
X106753065Y-98913451D01*
X106741059Y-98909215D01*
X106740384Y-98908969D01*
X106739416Y-98908254D01*
X106710374Y-98893063D01*
X106699763Y-98885411D01*
X106688102Y-98870400D01*
X106684159Y-98867491D01*
X106682538Y-98863236D01*
X106656901Y-98830233D01*
X106650675Y-98760641D01*
X106679144Y-98702985D01*
X106685135Y-98696167D01*
X106707157Y-98676444D01*
X106759139Y-98640047D01*
X106920047Y-98479139D01*
X107050568Y-98292734D01*
X107146739Y-98086496D01*
X107205635Y-97866692D01*
X107220500Y-97696784D01*
X107220500Y-97583216D01*
X107205635Y-97413308D01*
X107146739Y-97193504D01*
X107050568Y-96987266D01*
X106920849Y-96802006D01*
X106920160Y-96800999D01*
X106920040Y-96800852D01*
X106759143Y-96639955D01*
X106572739Y-96509435D01*
X106572735Y-96509433D01*
X106572736Y-96509433D01*
X106572734Y-96509432D01*
X106572728Y-96509429D01*
X106530880Y-96489915D01*
X106501348Y-96470603D01*
X106492616Y-96462915D01*
X106455307Y-96403840D01*
X106455860Y-96333973D01*
X106493354Y-96276135D01*
X106501638Y-96268957D01*
X106530427Y-96250296D01*
X106530886Y-96250082D01*
X106572734Y-96230568D01*
X106759139Y-96100047D01*
X106920047Y-95939139D01*
X107050568Y-95752734D01*
X107146739Y-95546496D01*
X107205635Y-95326692D01*
X107220500Y-95156784D01*
X107220500Y-95043216D01*
X107205635Y-94873308D01*
X107146739Y-94653504D01*
X107050568Y-94447266D01*
X106920849Y-94262006D01*
X106920160Y-94260999D01*
X106920040Y-94260852D01*
X106759143Y-94099955D01*
X106572739Y-93969435D01*
X106572735Y-93969433D01*
X106572736Y-93969433D01*
X106572734Y-93969432D01*
X106572728Y-93969429D01*
X106530880Y-93949915D01*
X106501348Y-93930603D01*
X106492616Y-93922915D01*
X106455307Y-93863840D01*
X106455860Y-93793973D01*
X106493354Y-93736135D01*
X106501638Y-93728957D01*
X106530427Y-93710296D01*
X106530886Y-93710082D01*
X106572734Y-93690568D01*
X106759139Y-93560047D01*
X106920047Y-93399139D01*
X107050568Y-93212734D01*
X107146739Y-93006496D01*
X107205635Y-92786692D01*
X107220500Y-92616784D01*
X107220500Y-92503216D01*
X107205635Y-92333308D01*
X107160916Y-92166415D01*
X107146741Y-92113511D01*
X107146738Y-92113502D01*
X107050568Y-91907266D01*
X106920849Y-91722006D01*
X106920160Y-91720999D01*
X106920040Y-91720852D01*
X106759142Y-91559954D01*
X106572739Y-91429435D01*
X106572735Y-91429433D01*
X106572736Y-91429433D01*
X106572734Y-91429432D01*
X106572728Y-91429429D01*
X106530880Y-91409915D01*
X106501348Y-91390603D01*
X106492616Y-91382915D01*
X106455307Y-91323840D01*
X106455860Y-91253973D01*
X106493354Y-91196135D01*
X106501638Y-91188957D01*
X106530427Y-91170296D01*
X106530886Y-91170082D01*
X106572734Y-91150568D01*
X106759139Y-91020047D01*
X106920047Y-90859139D01*
X107050568Y-90672734D01*
X107146739Y-90466496D01*
X107205635Y-90246692D01*
X107220500Y-90076784D01*
X107220500Y-89963216D01*
X107205635Y-89793308D01*
X107146739Y-89573504D01*
X107050568Y-89367266D01*
X106920849Y-89182006D01*
X106920160Y-89180999D01*
X106920040Y-89180852D01*
X106759142Y-89019954D01*
X106707224Y-88983601D01*
X106681490Y-88959451D01*
X106674378Y-88950554D01*
X106647894Y-88885898D01*
X106660571Y-88817188D01*
X106708174Y-88766362D01*
X106717844Y-88760651D01*
X106750256Y-88747267D01*
X106753038Y-88746558D01*
X106753042Y-88746557D01*
X106826528Y-88716118D01*
X106826556Y-88716106D01*
X106875309Y-88692781D01*
X106875314Y-88692778D01*
X106990378Y-88606641D01*
X106990382Y-88606638D01*
X107046643Y-88550376D01*
X107046659Y-88550359D01*
X107082770Y-88510157D01*
X107156111Y-88386545D01*
X107156115Y-88386538D01*
X107186547Y-88313067D01*
X107186548Y-88313064D01*
X107204544Y-88262053D01*
X107223331Y-88131375D01*
X107224116Y-88127604D01*
X107225000Y-88125948D01*
X107225000Y-87730000D01*
X103039160Y-87730000D01*
X103055440Y-87811853D01*
X103076688Y-87881896D01*
X103084185Y-87906612D01*
X103136096Y-88031933D01*
X103144490Y-88052198D01*
X103180617Y-88119787D01*
X103191155Y-88139501D01*
X103191167Y-88139521D01*
X103278632Y-88270423D01*
X103278638Y-88270443D01*
X103278710Y-88270539D01*
X103341517Y-88347068D01*
X103452930Y-88458481D01*
X103529195Y-88521072D01*
X103529199Y-88521075D01*
X103529463Y-88521291D01*
X103529469Y-88521295D01*
X103660478Y-88608832D01*
X103660506Y-88608849D01*
X103713453Y-88637150D01*
X103717187Y-88639502D01*
X103720132Y-88642840D01*
X103737987Y-88655959D01*
X103747028Y-88664840D01*
X103759876Y-88687879D01*
X103763417Y-88691891D01*
X103763909Y-88695110D01*
X103781059Y-88725861D01*
X103776697Y-88795595D01*
X103738754Y-88849189D01*
X103731291Y-88855308D01*
X103705076Y-88871800D01*
X103667271Y-88889429D01*
X103667267Y-88889431D01*
X103667264Y-88889433D01*
X103532839Y-88983557D01*
X103480852Y-89019958D01*
X103319955Y-89180855D01*
X103189433Y-89367262D01*
X103189432Y-89367264D01*
X103093263Y-89573496D01*
X103093258Y-89573507D01*
X103034366Y-89793300D01*
X103034364Y-89793309D01*
X103034362Y-89793320D01*
X103019500Y-89963209D01*
X99463000Y-89963209D01*
X99463000Y-87486616D01*
X114093599Y-87486616D01*
X114095871Y-87511610D01*
X114100013Y-87557192D01*
X114100013Y-87557194D01*
X114100014Y-87557196D01*
X114104743Y-87572374D01*
X114104747Y-87572390D01*
X114150620Y-87719603D01*
X114150621Y-87719604D01*
X114150622Y-87719606D01*
X114229908Y-87850761D01*
X114238630Y-87865188D01*
X114358911Y-87985469D01*
X114358913Y-87985470D01*
X114358915Y-87985472D01*
X114358923Y-87985476D01*
X114360254Y-87986436D01*
X114363156Y-87988035D01*
X114504494Y-88073478D01*
X114666904Y-88124086D01*
X114737484Y-88130500D01*
X114737487Y-88130500D01*
X116050713Y-88130500D01*
X116050716Y-88130500D01*
X116121296Y-88124086D01*
X116283706Y-88073478D01*
X116429285Y-87985472D01*
X116549572Y-87865185D01*
X116637578Y-87719606D01*
X116661146Y-87643968D01*
X116684978Y-87600637D01*
X116685038Y-87600565D01*
X116688278Y-87596784D01*
X116688391Y-87596613D01*
X116690755Y-87593828D01*
X116717154Y-87576470D01*
X116742542Y-87557659D01*
X116746256Y-87557337D01*
X116749136Y-87555444D01*
X116770694Y-87555219D01*
X116802783Y-87552439D01*
X116802830Y-87551845D01*
X116806399Y-87552125D01*
X116807415Y-87552038D01*
X116809052Y-87552334D01*
X116809053Y-87552334D01*
X116809060Y-87552336D01*
X116854624Y-87555922D01*
X117324398Y-87086147D01*
X117385719Y-87052664D01*
X117455410Y-87057648D01*
X117511344Y-87099519D01*
X117519463Y-87111827D01*
X117534001Y-87137007D01*
X117627093Y-87230099D01*
X117652269Y-87244634D01*
X117700484Y-87295202D01*
X117713706Y-87363809D01*
X117687738Y-87428673D01*
X117677949Y-87439702D01*
X117208175Y-87909473D01*
X117208176Y-87909473D01*
X117208176Y-87909474D01*
X117252750Y-87941859D01*
X117338333Y-87985466D01*
X117435063Y-88034753D01*
X117435065Y-88034753D01*
X117435068Y-88034755D01*
X117629682Y-88097990D01*
X117831783Y-88130000D01*
X118036416Y-88130000D01*
X118036417Y-88130000D01*
X118238517Y-88097990D01*
X118433131Y-88034755D01*
X118438670Y-88031933D01*
X118615447Y-87941860D01*
X118615446Y-87941860D01*
X118615449Y-87941859D01*
X118660021Y-87909474D01*
X118190249Y-87439702D01*
X118156764Y-87378379D01*
X118161748Y-87308687D01*
X118203620Y-87252754D01*
X118215922Y-87244639D01*
X118241107Y-87230099D01*
X118334199Y-87137007D01*
X118348734Y-87111830D01*
X118399299Y-87063616D01*
X118467905Y-87050391D01*
X118532771Y-87076358D01*
X118543802Y-87086149D01*
X119013574Y-87555921D01*
X119045961Y-87511347D01*
X119045961Y-87511346D01*
X119047886Y-87508697D01*
X119050387Y-87502658D01*
X119085242Y-87434251D01*
X119105572Y-87405412D01*
X119114467Y-87395994D01*
X119174807Y-87360773D01*
X119244612Y-87363765D01*
X119298320Y-87399926D01*
X119304391Y-87406931D01*
X119321168Y-87431843D01*
X119361813Y-87511611D01*
X119482128Y-87677213D01*
X119626886Y-87821971D01*
X119743387Y-87906612D01*
X119792490Y-87942287D01*
X119895629Y-87994839D01*
X119968429Y-88031933D01*
X119970030Y-88032870D01*
X119973720Y-88034658D01*
X119975737Y-88035660D01*
X119979505Y-88036722D01*
X120027134Y-88052198D01*
X120169565Y-88098477D01*
X120270657Y-88114488D01*
X120371748Y-88130500D01*
X120371749Y-88130500D01*
X120576451Y-88130500D01*
X120576452Y-88130500D01*
X120644090Y-88119787D01*
X122395000Y-88119787D01*
X122397715Y-88170440D01*
X122397780Y-88172863D01*
X122397893Y-88173769D01*
X122422592Y-88270536D01*
X122433438Y-88313030D01*
X122433442Y-88313042D01*
X122433444Y-88313049D01*
X122463881Y-88386529D01*
X122463894Y-88386560D01*
X122487216Y-88435306D01*
X122487217Y-88435308D01*
X122487218Y-88435309D01*
X122487221Y-88435314D01*
X122551634Y-88521358D01*
X122573322Y-88550330D01*
X122573356Y-88550376D01*
X122573366Y-88550387D01*
X122629609Y-88606630D01*
X122629621Y-88606641D01*
X122629623Y-88606643D01*
X122629640Y-88606659D01*
X122669842Y-88642770D01*
X122793454Y-88716111D01*
X122793461Y-88716115D01*
X122866932Y-88746547D01*
X122866956Y-88746556D01*
X122878352Y-88750576D01*
X122909622Y-88766934D01*
X122920234Y-88774586D01*
X122963097Y-88829763D01*
X122969324Y-88899355D01*
X122940855Y-88957013D01*
X122935800Y-88962767D01*
X122934863Y-88963833D01*
X122912839Y-88983557D01*
X122860852Y-89019958D01*
X122860852Y-89019959D01*
X122699955Y-89180855D01*
X122569433Y-89367262D01*
X122569432Y-89367264D01*
X122473263Y-89573496D01*
X122473258Y-89573507D01*
X122414366Y-89793300D01*
X122414364Y-89793309D01*
X122414362Y-89793320D01*
X122399500Y-89963209D01*
X122399500Y-90076789D01*
X122414362Y-90246678D01*
X122414364Y-90246689D01*
X122414366Y-90246698D01*
X122473258Y-90466491D01*
X122473263Y-90466502D01*
X122569432Y-90672734D01*
X122569433Y-90672736D01*
X122699955Y-90859143D01*
X122860852Y-91020040D01*
X122860999Y-91020160D01*
X122862006Y-91020849D01*
X123047266Y-91150568D01*
X123089114Y-91170082D01*
X123118656Y-91189400D01*
X123127387Y-91197088D01*
X123164692Y-91256165D01*
X123164136Y-91326033D01*
X123126641Y-91383868D01*
X123118367Y-91391037D01*
X123089573Y-91409703D01*
X123047264Y-91429432D01*
X123047262Y-91429433D01*
X122860857Y-91559954D01*
X122699955Y-91720855D01*
X122569433Y-91907262D01*
X122569432Y-91907264D01*
X122473263Y-92113496D01*
X122473258Y-92113507D01*
X122414366Y-92333300D01*
X122414364Y-92333309D01*
X122414362Y-92333320D01*
X122399500Y-92503209D01*
X122399500Y-92616789D01*
X122414362Y-92786678D01*
X122414364Y-92786689D01*
X122414366Y-92786698D01*
X122473258Y-93006491D01*
X122473263Y-93006502D01*
X122569432Y-93212734D01*
X122569433Y-93212736D01*
X122699955Y-93399143D01*
X122860852Y-93560040D01*
X122860999Y-93560160D01*
X122862006Y-93560849D01*
X123047266Y-93690568D01*
X123055263Y-93694297D01*
X123089114Y-93710082D01*
X123118656Y-93729400D01*
X123127387Y-93737088D01*
X123164692Y-93796165D01*
X123164136Y-93866033D01*
X123126641Y-93923868D01*
X123118367Y-93931037D01*
X123089573Y-93949703D01*
X123047264Y-93969432D01*
X123047262Y-93969433D01*
X122860855Y-94099955D01*
X122699955Y-94260855D01*
X122569433Y-94447262D01*
X122569432Y-94447264D01*
X122473263Y-94653496D01*
X122473258Y-94653507D01*
X122414366Y-94873300D01*
X122414364Y-94873309D01*
X122414362Y-94873320D01*
X122399500Y-95043209D01*
X122399500Y-95156789D01*
X122414362Y-95326678D01*
X122414364Y-95326689D01*
X122414366Y-95326698D01*
X122473258Y-95546491D01*
X122473263Y-95546502D01*
X122569432Y-95752734D01*
X122569433Y-95752736D01*
X122699955Y-95939143D01*
X122860852Y-96100040D01*
X122860999Y-96100160D01*
X122862006Y-96100849D01*
X123047266Y-96230568D01*
X123089114Y-96250082D01*
X123118656Y-96269400D01*
X123127387Y-96277088D01*
X123164692Y-96336165D01*
X123164136Y-96406033D01*
X123126641Y-96463868D01*
X123118367Y-96471037D01*
X123089573Y-96489703D01*
X123047264Y-96509432D01*
X123047262Y-96509433D01*
X122860855Y-96639955D01*
X122699955Y-96800855D01*
X122569433Y-96987262D01*
X122569432Y-96987264D01*
X122473263Y-97193496D01*
X122473258Y-97193507D01*
X122414366Y-97413300D01*
X122414364Y-97413309D01*
X122414362Y-97413320D01*
X122399500Y-97583209D01*
X122399500Y-97696789D01*
X122414362Y-97866678D01*
X122414364Y-97866689D01*
X122414366Y-97866698D01*
X122473258Y-98086491D01*
X122473263Y-98086502D01*
X122569432Y-98292734D01*
X122569433Y-98292736D01*
X122699955Y-98479143D01*
X122860855Y-98640043D01*
X122912774Y-98676397D01*
X122938508Y-98700547D01*
X122945620Y-98709444D01*
X122972104Y-98774100D01*
X122959427Y-98842810D01*
X122911828Y-98893634D01*
X122902168Y-98899340D01*
X122869781Y-98912720D01*
X122866986Y-98913433D01*
X122866966Y-98913439D01*
X122866955Y-98913442D01*
X122793469Y-98943881D01*
X122793438Y-98943894D01*
X122744692Y-98967216D01*
X122744682Y-98967223D01*
X122738147Y-98972115D01*
X122629635Y-99053348D01*
X122629620Y-99053359D01*
X122629611Y-99053366D01*
X122573368Y-99109609D01*
X122573348Y-99109630D01*
X122537232Y-99149838D01*
X122537227Y-99149844D01*
X122463884Y-99273460D01*
X122463882Y-99273465D01*
X122433450Y-99346936D01*
X122433329Y-99347261D01*
X122433086Y-99347970D01*
X122415454Y-99397947D01*
X122395001Y-99540212D01*
X122395000Y-99540219D01*
X122395000Y-99930000D01*
X126580839Y-99930000D01*
X126580839Y-99929999D01*
X126564559Y-99848150D01*
X126564556Y-99848139D01*
X126535814Y-99753387D01*
X126475509Y-99607801D01*
X126428844Y-99520498D01*
X126428832Y-99520478D01*
X126341364Y-99389573D01*
X126341358Y-99389554D01*
X126341288Y-99389459D01*
X126278481Y-99312930D01*
X126167068Y-99201517D01*
X126090798Y-99138922D01*
X126090792Y-99138918D01*
X126090536Y-99138708D01*
X126090530Y-99138704D01*
X125959521Y-99051167D01*
X125959501Y-99051155D01*
X125906554Y-99022854D01*
X125902814Y-99020498D01*
X125899869Y-99017161D01*
X125882013Y-99004041D01*
X125872970Y-98995158D01*
X125860119Y-98972115D01*
X125856584Y-98968109D01*
X125856091Y-98964893D01*
X125838939Y-98934136D01*
X125843301Y-98864403D01*
X125881245Y-98810808D01*
X125888712Y-98804686D01*
X125914919Y-98788200D01*
X125952734Y-98770568D01*
X126139139Y-98640047D01*
X126300047Y-98479139D01*
X126407979Y-98324995D01*
X129600001Y-98324995D01*
X129610493Y-98427694D01*
X129610493Y-98427695D01*
X129610494Y-98427697D01*
X129620329Y-98457377D01*
X129664969Y-98592093D01*
X129665641Y-98594119D01*
X129665643Y-98594124D01*
X129757684Y-98743345D01*
X129881654Y-98867315D01*
X130030875Y-98959356D01*
X130030880Y-98959358D01*
X130197299Y-99014504D01*
X130197300Y-99014504D01*
X130197302Y-99014505D01*
X130197309Y-99014506D01*
X130300019Y-99024999D01*
X130749999Y-99024999D01*
X131250000Y-99024999D01*
X131699960Y-99024999D01*
X131699972Y-99024999D01*
X131699986Y-99024998D01*
X131802697Y-99014505D01*
X131969119Y-98959358D01*
X131969124Y-98959356D01*
X132118345Y-98867315D01*
X132242315Y-98743345D01*
X132334356Y-98594124D01*
X132334358Y-98594119D01*
X132389505Y-98427697D01*
X132389506Y-98427690D01*
X132399999Y-98324986D01*
X132400000Y-98324973D01*
X132400000Y-98200000D01*
X131250000Y-98200000D01*
X131250000Y-99024999D01*
X130749999Y-99024999D01*
X130750000Y-99024998D01*
X130750000Y-98200000D01*
X129600001Y-98200000D01*
X129600001Y-98324995D01*
X126407979Y-98324995D01*
X126430568Y-98292734D01*
X126526739Y-98086496D01*
X126585635Y-97866692D01*
X126600500Y-97696784D01*
X126600500Y-97583216D01*
X126599851Y-97575802D01*
X126599781Y-97575007D01*
X129600000Y-97575007D01*
X129600000Y-97575010D01*
X129600000Y-97575013D01*
X129600000Y-97700000D01*
X130750000Y-97700000D01*
X131250000Y-97700000D01*
X132399999Y-97700000D01*
X132399999Y-97575028D01*
X132399998Y-97575013D01*
X132389505Y-97472302D01*
X132334358Y-97305880D01*
X132334356Y-97305875D01*
X132242315Y-97156654D01*
X132118345Y-97032684D01*
X131969124Y-96940643D01*
X131969119Y-96940641D01*
X131969110Y-96940638D01*
X131802699Y-96885494D01*
X131802694Y-96885493D01*
X131699991Y-96875000D01*
X131699986Y-96875000D01*
X131250000Y-96875000D01*
X131250000Y-97700000D01*
X130750000Y-97700000D01*
X130750000Y-96875000D01*
X130300037Y-96875000D01*
X130300028Y-96875000D01*
X130300012Y-96875001D01*
X130300002Y-96875001D01*
X130300002Y-96875002D01*
X130197304Y-96885493D01*
X130197302Y-96885494D01*
X130030887Y-96940638D01*
X130030879Y-96940641D01*
X130030877Y-96940642D01*
X130030875Y-96940643D01*
X129955288Y-96987266D01*
X129881652Y-97032685D01*
X129757685Y-97156652D01*
X129734953Y-97193507D01*
X129673738Y-97292752D01*
X129665641Y-97305879D01*
X129665638Y-97305888D01*
X129610494Y-97472299D01*
X129610493Y-97472304D01*
X129600000Y-97575007D01*
X126599781Y-97575007D01*
X126587980Y-97440110D01*
X126585635Y-97413308D01*
X126526739Y-97193504D01*
X126430568Y-96987266D01*
X126300849Y-96802006D01*
X126300160Y-96800999D01*
X126300040Y-96800852D01*
X126139143Y-96639955D01*
X125952739Y-96509435D01*
X125952735Y-96509433D01*
X125952736Y-96509433D01*
X125952734Y-96509432D01*
X125952728Y-96509429D01*
X125910880Y-96489915D01*
X125881348Y-96470603D01*
X125872616Y-96462915D01*
X125835307Y-96403840D01*
X125835860Y-96333973D01*
X125873354Y-96276135D01*
X125881638Y-96268957D01*
X125910427Y-96250296D01*
X125910886Y-96250082D01*
X125952734Y-96230568D01*
X126139139Y-96100047D01*
X126300047Y-95939139D01*
X126430568Y-95752734D01*
X126526739Y-95546496D01*
X126585635Y-95326692D01*
X126600500Y-95156784D01*
X126600500Y-95043216D01*
X126585635Y-94873308D01*
X126526739Y-94653504D01*
X126430568Y-94447266D01*
X126300849Y-94262006D01*
X126300160Y-94260999D01*
X126300040Y-94260852D01*
X126139143Y-94099955D01*
X125952739Y-93969435D01*
X125952735Y-93969433D01*
X125952736Y-93969433D01*
X125952734Y-93969432D01*
X125952728Y-93969429D01*
X125910880Y-93949915D01*
X125881348Y-93930603D01*
X125872616Y-93922915D01*
X125835307Y-93863840D01*
X125835860Y-93793973D01*
X125873354Y-93736135D01*
X125881638Y-93728957D01*
X125910427Y-93710296D01*
X125910886Y-93710082D01*
X125952734Y-93690568D01*
X126139139Y-93560047D01*
X126300047Y-93399139D01*
X126430568Y-93212734D01*
X126526739Y-93006496D01*
X126585635Y-92786692D01*
X126600500Y-92616784D01*
X126600500Y-92503216D01*
X126585635Y-92333308D01*
X126540916Y-92166415D01*
X126526741Y-92113511D01*
X126526738Y-92113502D01*
X126430568Y-91907266D01*
X126300849Y-91722006D01*
X126300160Y-91720999D01*
X126300040Y-91720852D01*
X126139142Y-91559954D01*
X125952739Y-91429435D01*
X125952735Y-91429433D01*
X125952736Y-91429433D01*
X125952734Y-91429432D01*
X125952728Y-91429429D01*
X125910880Y-91409915D01*
X125881348Y-91390603D01*
X125872616Y-91382915D01*
X125835307Y-91323840D01*
X125835860Y-91253973D01*
X125873354Y-91196135D01*
X125881638Y-91188957D01*
X125910427Y-91170296D01*
X125910886Y-91170082D01*
X125952734Y-91150568D01*
X126139139Y-91020047D01*
X126300047Y-90859139D01*
X126430568Y-90672734D01*
X126526739Y-90466496D01*
X126585635Y-90246692D01*
X126600500Y-90076784D01*
X126600500Y-89963216D01*
X126585635Y-89793308D01*
X126526739Y-89573504D01*
X126430568Y-89367266D01*
X126300849Y-89182006D01*
X126300160Y-89180999D01*
X126300040Y-89180852D01*
X126139143Y-89019955D01*
X125952736Y-88889433D01*
X125952735Y-88889432D01*
X125916938Y-88872740D01*
X125887394Y-88853419D01*
X125877881Y-88845042D01*
X125840578Y-88785965D01*
X125841136Y-88716097D01*
X125876100Y-88660519D01*
X125883226Y-88653996D01*
X125908491Y-88636109D01*
X125959500Y-88608844D01*
X125959503Y-88608842D01*
X125959511Y-88608838D01*
X125959513Y-88608836D01*
X125959521Y-88608832D01*
X126090426Y-88521364D01*
X126090445Y-88521358D01*
X126090530Y-88521295D01*
X126090536Y-88521291D01*
X126167064Y-88458485D01*
X126278485Y-88347064D01*
X126341291Y-88270536D01*
X126341295Y-88270530D01*
X126341299Y-88270523D01*
X126341340Y-88270468D01*
X126341355Y-88270439D01*
X126428832Y-88139521D01*
X126428844Y-88139501D01*
X126475509Y-88052198D01*
X126535814Y-87906612D01*
X126564556Y-87811860D01*
X126564559Y-87811849D01*
X126580839Y-87730000D01*
X122395000Y-87730000D01*
X122395000Y-88119787D01*
X120644090Y-88119787D01*
X120778634Y-88098477D01*
X120973319Y-88035220D01*
X121155710Y-87942287D01*
X121296682Y-87839866D01*
X121321313Y-87821971D01*
X121321314Y-87821968D01*
X121321317Y-87821966D01*
X121321319Y-87821966D01*
X121321320Y-87821964D01*
X121321373Y-87821926D01*
X121322085Y-87821199D01*
X121466066Y-87677219D01*
X121497807Y-87633531D01*
X121517987Y-87605756D01*
X121517989Y-87605753D01*
X121554022Y-87556157D01*
X121586387Y-87511610D01*
X121679320Y-87329219D01*
X121742577Y-87134534D01*
X121774600Y-86932352D01*
X121774600Y-86727648D01*
X121768552Y-86689463D01*
X121742577Y-86525465D01*
X121690138Y-86364075D01*
X121679320Y-86330781D01*
X121679318Y-86330778D01*
X121679318Y-86330776D01*
X121677064Y-86326353D01*
X121676758Y-86325568D01*
X121676036Y-86324335D01*
X121646935Y-86267223D01*
X121625745Y-86225635D01*
X121586387Y-86148390D01*
X121580993Y-86140966D01*
X121560529Y-86112799D01*
X121560527Y-86112797D01*
X121466071Y-85982786D01*
X121321313Y-85838028D01*
X121321312Y-85838027D01*
X121321311Y-85838026D01*
X121166302Y-85725408D01*
X121166299Y-85725406D01*
X121155713Y-85717715D01*
X121155712Y-85717714D01*
X121155710Y-85717713D01*
X121070955Y-85674528D01*
X121070955Y-85674527D01*
X121070953Y-85674527D01*
X120973328Y-85624783D01*
X120973321Y-85624780D01*
X120841138Y-85581831D01*
X120778634Y-85561522D01*
X120778632Y-85561521D01*
X120778630Y-85561521D01*
X120778629Y-85561520D01*
X120604095Y-85533878D01*
X120587489Y-85531248D01*
X120576454Y-85529500D01*
X120576452Y-85529500D01*
X120371748Y-85529500D01*
X120371747Y-85529500D01*
X120347427Y-85533351D01*
X120347426Y-85533350D01*
X120169568Y-85561521D01*
X119974877Y-85624780D01*
X119974864Y-85624786D01*
X119792497Y-85717708D01*
X119792485Y-85717715D01*
X119626887Y-85838027D01*
X119626884Y-85838029D01*
X119482130Y-85982783D01*
X119361810Y-86148392D01*
X119322396Y-86225745D01*
X119302066Y-86254584D01*
X119293176Y-86263998D01*
X119232837Y-86299224D01*
X119163031Y-86296236D01*
X119109305Y-86260060D01*
X119103234Y-86253053D01*
X119086466Y-86228149D01*
X119065557Y-86187113D01*
X119045961Y-86148652D01*
X119045959Y-86148648D01*
X119037256Y-86136670D01*
X119027716Y-86109934D01*
X119013573Y-86104075D01*
X118543801Y-86573848D01*
X118482478Y-86607333D01*
X118412786Y-86602349D01*
X118356853Y-86560477D01*
X118348733Y-86548167D01*
X118341966Y-86536446D01*
X118334199Y-86522993D01*
X118241107Y-86429901D01*
X118241104Y-86429899D01*
X118241100Y-86429896D01*
X118215928Y-86415363D01*
X118167713Y-86364796D01*
X118154491Y-86296189D01*
X118180459Y-86231324D01*
X118190230Y-86220314D01*
X118660022Y-85750524D01*
X118660021Y-85750523D01*
X118660020Y-85750522D01*
X118660019Y-85750521D01*
X118660014Y-85750517D01*
X118615460Y-85718147D01*
X118615457Y-85718144D01*
X118529853Y-85674527D01*
X118433131Y-85625244D01*
X118238517Y-85562009D01*
X118238511Y-85562008D01*
X118036422Y-85530000D01*
X118036417Y-85530000D01*
X117831783Y-85530000D01*
X117831778Y-85530000D01*
X117629687Y-85562008D01*
X117629685Y-85562008D01*
X117629682Y-85562009D01*
X117554240Y-85586522D01*
X117435063Y-85625245D01*
X117252740Y-85718145D01*
X117208177Y-85750522D01*
X117208177Y-85750524D01*
X117677950Y-86220297D01*
X117711435Y-86281620D01*
X117706451Y-86351312D01*
X117664579Y-86407245D01*
X117652271Y-86415364D01*
X117627096Y-86429899D01*
X117627090Y-86429903D01*
X117534003Y-86522990D01*
X117533999Y-86522996D01*
X117519464Y-86548171D01*
X117468896Y-86596385D01*
X117400289Y-86609607D01*
X117335425Y-86583638D01*
X117324397Y-86573850D01*
X116854624Y-86104077D01*
X116814779Y-86107213D01*
X116809491Y-86108434D01*
X116794961Y-86109682D01*
X116726483Y-86095807D01*
X116726475Y-86095802D01*
X116726462Y-86095795D01*
X116723361Y-86094158D01*
X116679508Y-86055385D01*
X116679423Y-86055263D01*
X116662778Y-86021268D01*
X116661956Y-86018629D01*
X116637578Y-85940394D01*
X116549572Y-85794815D01*
X116549570Y-85794813D01*
X116549569Y-85794811D01*
X116429288Y-85674530D01*
X116283706Y-85586522D01*
X116283704Y-85586521D01*
X116283702Y-85586520D01*
X116283703Y-85586520D01*
X116205039Y-85562008D01*
X116205039Y-85562009D01*
X116121296Y-85535914D01*
X116121294Y-85535913D01*
X116121292Y-85535913D01*
X116108472Y-85534748D01*
X116108467Y-85534747D01*
X116071878Y-85531423D01*
X116071877Y-85531422D01*
X116052638Y-85529674D01*
X116050716Y-85529500D01*
X116050715Y-85529500D01*
X114737480Y-85529500D01*
X114726490Y-85530498D01*
X114718245Y-85531248D01*
X114701132Y-85532803D01*
X114666905Y-85535913D01*
X114504492Y-85586522D01*
X114358907Y-85674532D01*
X114238632Y-85794807D01*
X114150622Y-85940392D01*
X114100013Y-86102805D01*
X114099502Y-86108434D01*
X114095479Y-86152703D01*
X114095105Y-86156823D01*
X114094043Y-86168510D01*
X114093600Y-86173386D01*
X114093600Y-87486613D01*
X114093600Y-87486616D01*
X114093599Y-87486616D01*
X99463000Y-87486616D01*
X99463000Y-84691926D01*
X99468021Y-84656999D01*
X99471207Y-84646146D01*
X99508977Y-84587365D01*
X99572531Y-84558336D01*
X99641686Y-84568274D01*
X99648672Y-84571464D01*
X99684842Y-84596577D01*
X99951585Y-84863320D01*
X99951606Y-84863342D01*
X100068787Y-84980523D01*
X100069469Y-84981014D01*
X100071975Y-84982363D01*
X100205709Y-85059573D01*
X100205716Y-85059577D01*
X100317519Y-85089534D01*
X100358442Y-85100500D01*
X100358443Y-85100500D01*
X100414968Y-85100500D01*
X100422611Y-85101453D01*
X100431806Y-85105445D01*
X100455304Y-85110181D01*
X100460169Y-85112226D01*
X100469147Y-85114862D01*
X100503098Y-85130734D01*
X100620814Y-85209390D01*
X100620827Y-85209397D01*
X100766498Y-85269735D01*
X100766503Y-85269737D01*
X100921153Y-85300499D01*
X100921156Y-85300500D01*
X100921158Y-85300500D01*
X101078844Y-85300500D01*
X101078845Y-85300499D01*
X101233497Y-85269737D01*
X101379179Y-85209394D01*
X101510289Y-85121789D01*
X101621789Y-85010289D01*
X101709394Y-84879179D01*
X101769737Y-84733497D01*
X101800500Y-84578842D01*
X101800500Y-84421158D01*
X101800500Y-84421155D01*
X101800500Y-84420971D01*
X101800064Y-84418966D01*
X101773867Y-84287264D01*
X101773866Y-84287263D01*
X101769737Y-84266503D01*
X101719322Y-84144789D01*
X101709397Y-84120827D01*
X101709390Y-84120814D01*
X101621789Y-83989711D01*
X101621786Y-83989707D01*
X101621781Y-83989701D01*
X101510297Y-83878217D01*
X101510291Y-83878212D01*
X101510290Y-83878211D01*
X101379191Y-83790613D01*
X101379190Y-83790612D01*
X101379185Y-83790609D01*
X101379172Y-83790602D01*
X101379165Y-83790598D01*
X101233502Y-83730264D01*
X101233471Y-83730257D01*
X101078847Y-83699500D01*
X101078845Y-83699500D01*
X101078842Y-83699500D01*
X100921158Y-83699500D01*
X100921155Y-83699500D01*
X100921153Y-83699500D01*
X100766527Y-83730257D01*
X100766499Y-83730263D01*
X100683090Y-83764812D01*
X100648897Y-83773539D01*
X100633358Y-83775210D01*
X100564598Y-83762806D01*
X100564595Y-83762804D01*
X100552417Y-83756708D01*
X100520241Y-83733506D01*
X100122101Y-83335366D01*
X100100952Y-83307116D01*
X100090811Y-83288544D01*
X100075960Y-83220274D01*
X100083190Y-83189680D01*
X100082940Y-83189613D01*
X100085044Y-83181761D01*
X100100500Y-83064361D01*
X100100499Y-83012367D01*
X100109782Y-82965293D01*
X100110057Y-82964622D01*
X100112281Y-82959378D01*
X100112461Y-82958763D01*
X100113849Y-82955382D01*
X100133957Y-82930259D01*
X100152885Y-82904230D01*
X100152917Y-82904205D01*
X100154621Y-82902893D01*
X100156597Y-82901974D01*
X100157510Y-82900834D01*
X100163089Y-82898956D01*
X100203918Y-82879977D01*
X100211481Y-82878331D01*
X100237830Y-82875500D01*
X100457072Y-82875500D01*
X100492004Y-82880521D01*
X100517248Y-82887934D01*
X100569994Y-82919230D01*
X100631284Y-82980520D01*
X100698767Y-83019481D01*
X100768215Y-83059577D01*
X100911515Y-83097973D01*
X100914262Y-83098745D01*
X100928811Y-83103017D01*
X100928811Y-83103018D01*
X100950143Y-83109282D01*
X100969151Y-83114864D01*
X101003103Y-83130738D01*
X101032815Y-83150591D01*
X101120814Y-83209390D01*
X101120827Y-83209397D01*
X101120829Y-83209397D01*
X101120833Y-83209400D01*
X101252210Y-83263817D01*
X101264337Y-83268840D01*
X101266503Y-83269737D01*
X101419127Y-83300096D01*
X101421153Y-83300499D01*
X101421156Y-83300500D01*
X101421158Y-83300500D01*
X101578844Y-83300500D01*
X101578845Y-83300499D01*
X101733497Y-83269737D01*
X101879179Y-83209394D01*
X102010289Y-83121789D01*
X102121789Y-83010289D01*
X102209394Y-82879179D01*
X102225441Y-82840436D01*
X102243443Y-82810093D01*
X102252158Y-82799278D01*
X102309545Y-82759432D01*
X102379368Y-82756937D01*
X102383600Y-82758017D01*
X102384454Y-82758235D01*
X102441465Y-82790701D01*
X102531284Y-82880520D01*
X102601301Y-82920943D01*
X102611060Y-82926577D01*
X102611062Y-82926579D01*
X102611064Y-82926580D01*
X102618095Y-82930639D01*
X102618097Y-82930641D01*
X102651164Y-82949732D01*
X102651166Y-82949734D01*
X102660949Y-82955382D01*
X102668215Y-82959577D01*
X102820943Y-83000501D01*
X102820946Y-83000501D01*
X102986653Y-83000501D01*
X102988557Y-83000501D01*
X102988620Y-83000500D01*
X103070478Y-83000500D01*
X103105410Y-83005522D01*
X103106783Y-83005925D01*
X103126232Y-83011636D01*
X103177236Y-83041222D01*
X103180112Y-83043986D01*
X103181179Y-83045012D01*
X103196814Y-83063277D01*
X103197576Y-83064365D01*
X103249127Y-83137988D01*
X103319953Y-83239139D01*
X103319958Y-83239146D01*
X103480852Y-83400040D01*
X103480999Y-83400160D01*
X103482006Y-83400849D01*
X103667266Y-83530568D01*
X103707943Y-83549536D01*
X103709076Y-83550064D01*
X103738656Y-83569400D01*
X103747387Y-83577088D01*
X103784692Y-83636165D01*
X103784136Y-83706033D01*
X103746641Y-83763868D01*
X103738367Y-83771037D01*
X103709573Y-83789703D01*
X103667264Y-83809432D01*
X103667262Y-83809433D01*
X103480855Y-83939955D01*
X103319955Y-84100855D01*
X103189433Y-84287262D01*
X103189433Y-84287263D01*
X103189432Y-84287265D01*
X103189432Y-84287266D01*
X103093263Y-84493496D01*
X103093258Y-84493507D01*
X103034366Y-84713300D01*
X103034364Y-84713309D01*
X103034362Y-84713320D01*
X103019500Y-84883209D01*
X103019500Y-84996789D01*
X103034362Y-85166678D01*
X103034364Y-85166689D01*
X103034366Y-85166698D01*
X103093258Y-85386491D01*
X103093263Y-85386502D01*
X103159945Y-85529500D01*
X103175104Y-85562009D01*
X103189426Y-85592721D01*
X103189431Y-85592732D01*
X103189433Y-85592736D01*
X103319952Y-85779139D01*
X103319953Y-85779140D01*
X103319954Y-85779141D01*
X103480858Y-85940045D01*
X103503407Y-85955834D01*
X103667266Y-86070568D01*
X103703063Y-86087260D01*
X103732603Y-86106578D01*
X103733324Y-86107213D01*
X103742117Y-86114956D01*
X103779420Y-86174033D01*
X103778862Y-86243901D01*
X103743902Y-86299475D01*
X103736786Y-86305990D01*
X103711507Y-86323890D01*
X103660483Y-86351163D01*
X103529577Y-86438632D01*
X103529457Y-86438712D01*
X103452930Y-86501517D01*
X103341517Y-86612930D01*
X103278712Y-86689457D01*
X103278632Y-86689577D01*
X103191169Y-86820474D01*
X103191166Y-86820478D01*
X103191148Y-86820510D01*
X103144490Y-86907800D01*
X103084185Y-87053385D01*
X103055443Y-87148139D01*
X103055440Y-87148150D01*
X103039160Y-87229999D01*
X103039161Y-87230000D01*
X107225000Y-87230000D01*
X107225000Y-86840212D01*
X107222284Y-86789556D01*
X107222219Y-86787136D01*
X107222105Y-86786229D01*
X107207153Y-86727648D01*
X107186561Y-86646969D01*
X107186557Y-86646957D01*
X107186548Y-86646936D01*
X107156117Y-86573469D01*
X107156104Y-86573438D01*
X107132782Y-86524692D01*
X107132781Y-86524690D01*
X107132778Y-86524685D01*
X107046641Y-86409621D01*
X107046638Y-86409617D01*
X107028588Y-86391567D01*
X106990389Y-86353368D01*
X106990365Y-86353345D01*
X106950159Y-86317230D01*
X106948986Y-86316534D01*
X106887976Y-86280336D01*
X106730408Y-86206747D01*
X106729687Y-86206410D01*
X106729618Y-86206349D01*
X106700241Y-86187113D01*
X106690046Y-86178125D01*
X106680493Y-86162977D01*
X106677310Y-86160167D01*
X106676157Y-86156101D01*
X106652776Y-86119026D01*
X106653374Y-86049159D01*
X106678902Y-86003259D01*
X106685135Y-85996166D01*
X106707157Y-85976443D01*
X106759139Y-85940047D01*
X106920047Y-85779139D01*
X107050568Y-85592734D01*
X107146739Y-85386496D01*
X107205635Y-85166692D01*
X107220500Y-84996784D01*
X107220500Y-84883216D01*
X107205635Y-84713308D01*
X107146739Y-84493504D01*
X107050568Y-84287266D01*
X107037667Y-84268842D01*
X106920859Y-84102021D01*
X106920160Y-84100999D01*
X106920040Y-84100852D01*
X106759143Y-83939955D01*
X106572739Y-83809435D01*
X106572735Y-83809433D01*
X106572736Y-83809433D01*
X106572734Y-83809432D01*
X106572728Y-83809429D01*
X106530880Y-83789915D01*
X106501348Y-83770603D01*
X106492616Y-83762915D01*
X106455307Y-83703840D01*
X106455860Y-83633973D01*
X106493354Y-83576135D01*
X106501638Y-83568957D01*
X106530427Y-83550296D01*
X106532098Y-83549517D01*
X106572734Y-83530568D01*
X106759139Y-83400047D01*
X106920047Y-83239139D01*
X107050568Y-83052734D01*
X107146739Y-82846496D01*
X107205635Y-82626692D01*
X107220500Y-82456784D01*
X107220500Y-82343216D01*
X107205635Y-82173308D01*
X107146739Y-81953504D01*
X107050568Y-81747266D01*
X106920849Y-81562006D01*
X106920160Y-81560999D01*
X106920040Y-81560852D01*
X106759143Y-81399955D01*
X106572737Y-81269433D01*
X106530882Y-81249916D01*
X106501348Y-81230603D01*
X106492617Y-81222916D01*
X106455308Y-81163841D01*
X106455859Y-81093974D01*
X106493354Y-81036135D01*
X106501638Y-81028957D01*
X106530427Y-81010296D01*
X106530886Y-81010082D01*
X106572734Y-80990568D01*
X106759139Y-80860047D01*
X106920047Y-80699139D01*
X107050568Y-80512734D01*
X107146739Y-80306496D01*
X107205635Y-80086692D01*
X107220500Y-79916784D01*
X107220500Y-79803216D01*
X107205635Y-79633308D01*
X107148008Y-79418239D01*
X107146741Y-79413511D01*
X107146738Y-79413502D01*
X107140131Y-79399334D01*
X107095000Y-79302550D01*
X107050568Y-79207266D01*
X106920849Y-79022006D01*
X106920160Y-79020999D01*
X106920040Y-79020852D01*
X106759143Y-78859955D01*
X106572739Y-78729435D01*
X106572735Y-78729433D01*
X106572736Y-78729433D01*
X106572734Y-78729432D01*
X106572728Y-78729429D01*
X106530880Y-78709915D01*
X106501348Y-78690603D01*
X106492616Y-78682915D01*
X106455307Y-78623840D01*
X106455860Y-78553973D01*
X106493354Y-78496135D01*
X106501638Y-78488957D01*
X106530427Y-78470296D01*
X106530886Y-78470082D01*
X106572734Y-78450568D01*
X106759139Y-78320047D01*
X106920047Y-78159139D01*
X107050568Y-77972734D01*
X107146739Y-77766496D01*
X107205635Y-77546692D01*
X107220500Y-77376784D01*
X107220500Y-77263216D01*
X107205635Y-77093308D01*
X107146739Y-76873504D01*
X107050568Y-76667266D01*
X106925778Y-76489046D01*
X106925777Y-76489044D01*
X106920051Y-76480865D01*
X106920049Y-76480863D01*
X106920047Y-76480861D01*
X106920045Y-76480858D01*
X106759141Y-76319954D01*
X106759140Y-76319953D01*
X106759139Y-76319952D01*
X106707224Y-76283601D01*
X106681490Y-76259451D01*
X106674378Y-76250554D01*
X106647894Y-76185898D01*
X106660571Y-76117188D01*
X106708174Y-76066362D01*
X106717844Y-76060651D01*
X106750256Y-76047267D01*
X106753038Y-76046558D01*
X106753042Y-76046557D01*
X106826528Y-76016118D01*
X106826556Y-76016106D01*
X106875309Y-75992781D01*
X106875314Y-75992778D01*
X106990378Y-75906641D01*
X106990382Y-75906638D01*
X107046643Y-75850376D01*
X107046659Y-75850359D01*
X107082770Y-75810157D01*
X107156111Y-75686545D01*
X107156115Y-75686538D01*
X107186547Y-75613067D01*
X107186548Y-75613064D01*
X107204544Y-75562053D01*
X107223331Y-75431375D01*
X107224116Y-75427604D01*
X107225000Y-75425948D01*
X107225000Y-75419787D01*
X122395000Y-75419787D01*
X122397715Y-75470440D01*
X122397780Y-75472863D01*
X122397893Y-75473769D01*
X122424767Y-75579056D01*
X122433438Y-75613030D01*
X122433442Y-75613041D01*
X122433444Y-75613049D01*
X122463881Y-75686529D01*
X122463894Y-75686560D01*
X122487216Y-75735306D01*
X122487217Y-75735308D01*
X122487218Y-75735309D01*
X122487221Y-75735314D01*
X122551634Y-75821358D01*
X122573322Y-75850330D01*
X122573356Y-75850376D01*
X122573366Y-75850387D01*
X122629609Y-75906630D01*
X122629621Y-75906641D01*
X122629623Y-75906643D01*
X122629640Y-75906659D01*
X122669842Y-75942770D01*
X122793454Y-76016111D01*
X122793461Y-76016115D01*
X122866932Y-76046547D01*
X122866956Y-76046556D01*
X122878352Y-76050576D01*
X122909624Y-76066935D01*
X122920234Y-76074586D01*
X122963097Y-76129763D01*
X122969324Y-76199355D01*
X122940855Y-76257013D01*
X122938714Y-76259451D01*
X122934863Y-76263833D01*
X122912838Y-76283557D01*
X122860861Y-76319952D01*
X122860852Y-76319958D01*
X122860852Y-76319959D01*
X122699955Y-76480855D01*
X122569433Y-76667262D01*
X122569432Y-76667264D01*
X122473263Y-76873496D01*
X122473258Y-76873507D01*
X122414366Y-77093300D01*
X122414364Y-77093309D01*
X122414362Y-77093320D01*
X122399500Y-77263209D01*
X122399500Y-77376789D01*
X122414362Y-77546678D01*
X122414364Y-77546689D01*
X122414366Y-77546698D01*
X122473258Y-77766491D01*
X122473263Y-77766502D01*
X122569432Y-77972734D01*
X122569433Y-77972736D01*
X122699955Y-78159143D01*
X122860852Y-78320040D01*
X122860999Y-78320160D01*
X122862006Y-78320849D01*
X123047266Y-78450568D01*
X123089114Y-78470082D01*
X123118656Y-78489400D01*
X123127387Y-78497088D01*
X123164692Y-78556165D01*
X123164136Y-78626033D01*
X123126641Y-78683868D01*
X123118367Y-78691037D01*
X123089573Y-78709703D01*
X123047264Y-78729432D01*
X123047262Y-78729433D01*
X122860855Y-78859955D01*
X122699955Y-79020855D01*
X122569433Y-79207262D01*
X122569432Y-79207264D01*
X122473263Y-79413496D01*
X122473258Y-79413507D01*
X122414366Y-79633300D01*
X122414364Y-79633309D01*
X122414362Y-79633320D01*
X122399500Y-79803209D01*
X122399500Y-79916789D01*
X122414362Y-80086678D01*
X122414364Y-80086689D01*
X122414366Y-80086698D01*
X122473258Y-80306491D01*
X122473263Y-80306502D01*
X122526629Y-80420943D01*
X122569424Y-80512718D01*
X122569432Y-80512734D01*
X122569433Y-80512736D01*
X122699955Y-80699143D01*
X122860852Y-80860040D01*
X122860999Y-80860160D01*
X122862006Y-80860849D01*
X123047266Y-80990568D01*
X123089114Y-81010082D01*
X123118655Y-81029400D01*
X123127385Y-81037087D01*
X123164691Y-81096164D01*
X123164136Y-81166031D01*
X123126647Y-81223860D01*
X123118372Y-81231031D01*
X123089571Y-81249704D01*
X123047264Y-81269432D01*
X123047262Y-81269433D01*
X122860855Y-81399955D01*
X122699955Y-81560855D01*
X122569433Y-81747262D01*
X122569432Y-81747264D01*
X122473263Y-81953496D01*
X122473258Y-81953507D01*
X122414366Y-82173300D01*
X122414364Y-82173309D01*
X122414362Y-82173320D01*
X122399500Y-82343209D01*
X122399500Y-82456789D01*
X122414362Y-82626678D01*
X122414363Y-82626682D01*
X122414366Y-82626698D01*
X122473258Y-82846491D01*
X122473263Y-82846502D01*
X122569432Y-83052734D01*
X122569433Y-83052736D01*
X122699955Y-83239143D01*
X122860852Y-83400040D01*
X122860999Y-83400160D01*
X122862006Y-83400849D01*
X123047266Y-83530568D01*
X123087943Y-83549536D01*
X123089076Y-83550064D01*
X123118656Y-83569400D01*
X123127387Y-83577088D01*
X123164692Y-83636165D01*
X123164136Y-83706033D01*
X123126641Y-83763868D01*
X123118367Y-83771037D01*
X123089573Y-83789703D01*
X123047264Y-83809432D01*
X123047262Y-83809433D01*
X122860855Y-83939955D01*
X122699955Y-84100855D01*
X122569433Y-84287262D01*
X122569433Y-84287263D01*
X122569432Y-84287265D01*
X122569432Y-84287266D01*
X122473263Y-84493496D01*
X122473258Y-84493507D01*
X122414366Y-84713300D01*
X122414364Y-84713309D01*
X122414362Y-84713320D01*
X122399500Y-84883209D01*
X122399500Y-84996789D01*
X122414362Y-85166678D01*
X122414364Y-85166689D01*
X122414366Y-85166698D01*
X122473258Y-85386491D01*
X122473263Y-85386502D01*
X122539945Y-85529500D01*
X122555104Y-85562009D01*
X122569426Y-85592721D01*
X122569431Y-85592732D01*
X122569433Y-85592736D01*
X122699955Y-85779143D01*
X122860855Y-85940043D01*
X122912774Y-85976397D01*
X122938508Y-86000547D01*
X122945620Y-86009444D01*
X122972104Y-86074100D01*
X122959427Y-86142810D01*
X122911828Y-86193634D01*
X122902168Y-86199340D01*
X122869781Y-86212720D01*
X122866986Y-86213433D01*
X122866966Y-86213439D01*
X122866955Y-86213442D01*
X122793469Y-86243881D01*
X122793438Y-86243894D01*
X122744692Y-86267216D01*
X122744682Y-86267223D01*
X122701599Y-86299475D01*
X122629639Y-86353345D01*
X122629620Y-86353359D01*
X122629611Y-86353366D01*
X122573368Y-86409609D01*
X122573348Y-86409630D01*
X122537232Y-86449838D01*
X122537227Y-86449844D01*
X122463884Y-86573460D01*
X122463882Y-86573465D01*
X122433450Y-86646936D01*
X122433329Y-86647261D01*
X122433086Y-86647970D01*
X122415454Y-86697947D01*
X122396188Y-86831953D01*
X122395000Y-86840219D01*
X122395000Y-87230000D01*
X126580839Y-87230000D01*
X126580839Y-87229999D01*
X126564559Y-87148150D01*
X126564556Y-87148139D01*
X126535814Y-87053387D01*
X126475509Y-86907801D01*
X126428844Y-86820498D01*
X126428832Y-86820478D01*
X126341364Y-86689573D01*
X126341358Y-86689554D01*
X126341288Y-86689459D01*
X126278481Y-86612930D01*
X126167068Y-86501517D01*
X126090798Y-86438922D01*
X126090792Y-86438918D01*
X126090536Y-86438708D01*
X126090530Y-86438704D01*
X125959521Y-86351167D01*
X125959501Y-86351155D01*
X125906554Y-86322854D01*
X125902814Y-86320498D01*
X125899869Y-86317161D01*
X125882013Y-86304041D01*
X125872970Y-86295158D01*
X125860119Y-86272115D01*
X125856584Y-86268109D01*
X125856091Y-86264893D01*
X125838939Y-86234136D01*
X125843301Y-86164403D01*
X125881245Y-86110808D01*
X125888712Y-86104686D01*
X125914919Y-86088200D01*
X125952734Y-86070568D01*
X126139139Y-85940047D01*
X126300047Y-85779139D01*
X126430568Y-85592734D01*
X126526739Y-85386496D01*
X126585635Y-85166692D01*
X126600500Y-84996784D01*
X126600500Y-84883216D01*
X126585635Y-84713308D01*
X126526739Y-84493504D01*
X126430568Y-84287266D01*
X126417667Y-84268842D01*
X126300859Y-84102021D01*
X126300160Y-84100999D01*
X126300040Y-84100852D01*
X126139143Y-83939955D01*
X125952739Y-83809435D01*
X125952735Y-83809433D01*
X125952736Y-83809433D01*
X125952734Y-83809432D01*
X125952728Y-83809429D01*
X125910880Y-83789915D01*
X125881348Y-83770603D01*
X125872616Y-83762915D01*
X125835307Y-83703840D01*
X125835860Y-83633973D01*
X125873354Y-83576135D01*
X125881638Y-83568957D01*
X125910427Y-83550296D01*
X125912098Y-83549517D01*
X125952734Y-83530568D01*
X126139139Y-83400047D01*
X126300047Y-83239139D01*
X126430568Y-83052734D01*
X126526739Y-82846496D01*
X126585635Y-82626692D01*
X126600500Y-82456784D01*
X126600500Y-82343216D01*
X126585635Y-82173308D01*
X126526739Y-81953504D01*
X126430568Y-81747266D01*
X126300849Y-81562006D01*
X126300160Y-81560999D01*
X126300040Y-81560852D01*
X126139143Y-81399955D01*
X125952737Y-81269433D01*
X125910882Y-81249916D01*
X125881348Y-81230603D01*
X125872617Y-81222916D01*
X125835308Y-81163841D01*
X125835859Y-81093974D01*
X125873354Y-81036135D01*
X125881638Y-81028957D01*
X125910427Y-81010296D01*
X125910886Y-81010082D01*
X125952734Y-80990568D01*
X126139139Y-80860047D01*
X126300047Y-80699139D01*
X126430568Y-80512734D01*
X126526739Y-80306496D01*
X126585635Y-80086692D01*
X126600500Y-79916784D01*
X126600500Y-79803216D01*
X126585635Y-79633308D01*
X126528008Y-79418239D01*
X126526741Y-79413511D01*
X126526738Y-79413502D01*
X126520131Y-79399334D01*
X126475000Y-79302550D01*
X126430568Y-79207266D01*
X126300849Y-79022006D01*
X126300160Y-79020999D01*
X126300040Y-79020852D01*
X126139143Y-78859955D01*
X125952739Y-78729435D01*
X125952735Y-78729433D01*
X125952736Y-78729433D01*
X125952734Y-78729432D01*
X125952728Y-78729429D01*
X125910880Y-78709915D01*
X125881348Y-78690603D01*
X125872616Y-78682915D01*
X125835307Y-78623840D01*
X125835860Y-78553973D01*
X125873354Y-78496135D01*
X125881638Y-78488957D01*
X125910427Y-78470296D01*
X125910886Y-78470082D01*
X125952734Y-78450568D01*
X126139139Y-78320047D01*
X126300047Y-78159139D01*
X126430568Y-77972734D01*
X126526739Y-77766496D01*
X126585635Y-77546692D01*
X126600500Y-77376784D01*
X126600500Y-77263216D01*
X126585635Y-77093308D01*
X126526739Y-76873504D01*
X126430568Y-76667266D01*
X126305778Y-76489046D01*
X126305777Y-76489044D01*
X126300051Y-76480865D01*
X126300049Y-76480863D01*
X126300047Y-76480861D01*
X126300045Y-76480858D01*
X126139141Y-76319954D01*
X126139140Y-76319953D01*
X126139139Y-76319952D01*
X125952736Y-76189433D01*
X125952734Y-76189432D01*
X125916936Y-76172739D01*
X125887399Y-76153424D01*
X125877886Y-76145047D01*
X125840579Y-76085974D01*
X125841132Y-76016106D01*
X125876098Y-75960521D01*
X125883224Y-75953997D01*
X125908491Y-75936109D01*
X125959500Y-75908844D01*
X125959503Y-75908842D01*
X125959511Y-75908838D01*
X125959513Y-75908836D01*
X125959521Y-75908832D01*
X126090426Y-75821364D01*
X126090445Y-75821358D01*
X126090530Y-75821295D01*
X126090536Y-75821291D01*
X126167064Y-75758485D01*
X126278485Y-75647064D01*
X126341291Y-75570536D01*
X126341295Y-75570530D01*
X126341299Y-75570523D01*
X126341340Y-75570468D01*
X126341355Y-75570439D01*
X126428832Y-75439521D01*
X126428844Y-75439501D01*
X126475509Y-75352198D01*
X126535814Y-75206612D01*
X126564556Y-75111860D01*
X126564559Y-75111849D01*
X126580839Y-75030000D01*
X122395000Y-75030000D01*
X122395000Y-75419787D01*
X107225000Y-75419787D01*
X107225000Y-75030000D01*
X103039160Y-75030000D01*
X103055440Y-75111853D01*
X103084185Y-75206613D01*
X103144490Y-75352198D01*
X103180617Y-75419787D01*
X103191155Y-75439501D01*
X103191167Y-75439521D01*
X103278632Y-75570423D01*
X103278638Y-75570443D01*
X103278710Y-75570539D01*
X103341517Y-75647068D01*
X103452930Y-75758481D01*
X103529195Y-75821072D01*
X103529199Y-75821075D01*
X103529463Y-75821291D01*
X103529469Y-75821295D01*
X103660478Y-75908832D01*
X103660506Y-75908849D01*
X103713453Y-75937150D01*
X103717187Y-75939502D01*
X103720131Y-75942839D01*
X103737981Y-75955953D01*
X103747024Y-75964836D01*
X103759877Y-75987879D01*
X103763417Y-75991891D01*
X103763909Y-75995108D01*
X103781058Y-76025853D01*
X103776699Y-76095587D01*
X103738750Y-76149191D01*
X103731284Y-76155312D01*
X103705074Y-76171801D01*
X103667269Y-76189430D01*
X103667268Y-76189431D01*
X103667264Y-76189433D01*
X103561008Y-76263833D01*
X103480852Y-76319958D01*
X103319956Y-76480854D01*
X103286401Y-76528776D01*
X103273838Y-76546720D01*
X103230563Y-76608524D01*
X103200106Y-76652021D01*
X103175953Y-76677757D01*
X103159006Y-76691303D01*
X103105558Y-76716103D01*
X103100194Y-76717160D01*
X103076220Y-76719500D01*
X103042330Y-76719500D01*
X103007389Y-76714475D01*
X102992390Y-76710070D01*
X102933644Y-76672327D01*
X102932457Y-76670958D01*
X102904977Y-76616083D01*
X102903332Y-76608521D01*
X102900500Y-76582168D01*
X102900500Y-76220942D01*
X102896924Y-76207599D01*
X102896924Y-76207598D01*
X102896923Y-76207595D01*
X102886370Y-76168210D01*
X102874926Y-76125501D01*
X102874926Y-76125500D01*
X102859578Y-76068218D01*
X102859576Y-76068213D01*
X102780524Y-75931290D01*
X102780521Y-75931286D01*
X102780520Y-75931284D01*
X102668716Y-75819480D01*
X102668715Y-75819479D01*
X102664385Y-75815149D01*
X102663363Y-75814127D01*
X102663320Y-75814085D01*
X101149426Y-74300191D01*
X101128274Y-74271935D01*
X101115667Y-74248846D01*
X101100500Y-74189421D01*
X101100500Y-72817925D01*
X101105522Y-72782992D01*
X101109414Y-72769737D01*
X101112934Y-72757747D01*
X101144228Y-72705005D01*
X102651272Y-71197960D01*
X102651279Y-71197956D01*
X102668715Y-71180520D01*
X102668716Y-71180520D01*
X102780520Y-71068716D01*
X102859577Y-70931784D01*
X102900500Y-70779057D01*
X102900500Y-70310274D01*
X102911891Y-70271480D01*
X102918255Y-70241685D01*
X102932499Y-70227332D01*
X102933494Y-70226048D01*
X102939022Y-70220075D01*
X102939376Y-70220403D01*
X102967473Y-70192093D01*
X103035689Y-70176983D01*
X103101245Y-70201152D01*
X103126293Y-70226011D01*
X103127290Y-70227332D01*
X103129013Y-70229615D01*
X103142410Y-70251896D01*
X103189432Y-70352735D01*
X103189433Y-70352736D01*
X103319955Y-70539143D01*
X103480852Y-70700040D01*
X103480999Y-70700160D01*
X103482006Y-70700849D01*
X103667266Y-70830568D01*
X103709114Y-70850082D01*
X103738656Y-70869400D01*
X103747387Y-70877088D01*
X103784692Y-70936165D01*
X103784136Y-71006033D01*
X103746641Y-71063868D01*
X103738367Y-71071037D01*
X103709573Y-71089703D01*
X103667264Y-71109432D01*
X103667262Y-71109433D01*
X103480855Y-71239955D01*
X103319955Y-71400855D01*
X103189433Y-71587262D01*
X103189432Y-71587264D01*
X103093263Y-71793496D01*
X103093258Y-71793507D01*
X103034366Y-72013300D01*
X103034364Y-72013309D01*
X103034362Y-72013320D01*
X103019500Y-72183209D01*
X103019500Y-72296789D01*
X103034362Y-72466678D01*
X103034364Y-72466689D01*
X103034366Y-72466698D01*
X103093258Y-72686491D01*
X103093263Y-72686502D01*
X103189432Y-72892734D01*
X103189433Y-72892736D01*
X103319955Y-73079143D01*
X103480852Y-73240040D01*
X103480999Y-73240160D01*
X103482006Y-73240849D01*
X103667266Y-73370568D01*
X103703063Y-73387260D01*
X103732604Y-73406579D01*
X103742117Y-73414956D01*
X103779420Y-73474033D01*
X103778862Y-73543901D01*
X103743902Y-73599475D01*
X103736786Y-73605990D01*
X103711507Y-73623890D01*
X103660483Y-73651163D01*
X103529577Y-73738632D01*
X103529457Y-73738712D01*
X103452930Y-73801517D01*
X103341517Y-73912930D01*
X103278712Y-73989457D01*
X103278632Y-73989577D01*
X103191169Y-74120474D01*
X103191166Y-74120478D01*
X103191148Y-74120510D01*
X103144490Y-74207800D01*
X103084185Y-74353385D01*
X103066507Y-74411664D01*
X103055443Y-74448139D01*
X103055440Y-74448150D01*
X103039160Y-74529999D01*
X103039161Y-74530000D01*
X107225000Y-74530000D01*
X107225000Y-74140212D01*
X107222284Y-74089556D01*
X107222219Y-74087136D01*
X107222105Y-74086229D01*
X107199572Y-73997946D01*
X107186561Y-73946969D01*
X107186557Y-73946957D01*
X107186548Y-73946936D01*
X107156117Y-73873469D01*
X107156104Y-73873438D01*
X107132782Y-73824692D01*
X107132781Y-73824690D01*
X107132778Y-73824685D01*
X107046641Y-73709621D01*
X107046638Y-73709617D01*
X107046632Y-73709611D01*
X106990389Y-73653368D01*
X106990368Y-73653348D01*
X106981679Y-73645543D01*
X106950157Y-73617229D01*
X106950042Y-73617161D01*
X106861948Y-73564893D01*
X106826545Y-73543888D01*
X106826538Y-73543884D01*
X106826526Y-73543878D01*
X106756063Y-73514692D01*
X106756043Y-73514684D01*
X106753067Y-73513452D01*
X106753065Y-73513451D01*
X106741059Y-73509215D01*
X106740384Y-73508969D01*
X106739416Y-73508254D01*
X106710374Y-73493063D01*
X106699763Y-73485411D01*
X106688102Y-73470400D01*
X106684159Y-73467491D01*
X106682538Y-73463236D01*
X106656901Y-73430233D01*
X106650675Y-73360641D01*
X106679144Y-73302985D01*
X106685135Y-73296167D01*
X106707157Y-73276444D01*
X106759139Y-73240047D01*
X106920047Y-73079139D01*
X107050568Y-72892734D01*
X107146739Y-72686496D01*
X107205635Y-72466692D01*
X107220500Y-72296784D01*
X107220500Y-72183216D01*
X107205635Y-72013308D01*
X107146739Y-71793504D01*
X107050568Y-71587266D01*
X106920849Y-71402006D01*
X106920160Y-71400999D01*
X106920040Y-71400852D01*
X106759143Y-71239955D01*
X106572739Y-71109435D01*
X106572735Y-71109433D01*
X106572736Y-71109433D01*
X106572734Y-71109432D01*
X106572728Y-71109429D01*
X106530880Y-71089915D01*
X106501348Y-71070603D01*
X106492616Y-71062915D01*
X106455307Y-71003840D01*
X106455860Y-70933973D01*
X106493354Y-70876135D01*
X106501638Y-70868957D01*
X106530427Y-70850296D01*
X106530886Y-70850082D01*
X106572734Y-70830568D01*
X106759139Y-70700047D01*
X106920047Y-70539139D01*
X107050568Y-70352734D01*
X107146739Y-70146496D01*
X107205635Y-69926692D01*
X107220500Y-69756784D01*
X107220500Y-69643216D01*
X107205635Y-69473308D01*
X107146739Y-69253504D01*
X107050568Y-69047266D01*
X106920849Y-68862006D01*
X106920160Y-68860999D01*
X106920040Y-68860852D01*
X106759143Y-68699955D01*
X106572739Y-68569435D01*
X106572735Y-68569433D01*
X106572734Y-68569432D01*
X106572728Y-68569429D01*
X106530880Y-68549915D01*
X106501348Y-68530603D01*
X106492616Y-68522915D01*
X106455307Y-68463840D01*
X106455860Y-68393973D01*
X106493349Y-68336139D01*
X106501633Y-68328961D01*
X106530422Y-68310298D01*
X106572734Y-68290568D01*
X106759139Y-68160047D01*
X106920047Y-67999139D01*
X107050568Y-67812734D01*
X107146739Y-67606496D01*
X107205635Y-67386692D01*
X107220500Y-67216784D01*
X107220500Y-67103216D01*
X107205635Y-66933308D01*
X107156760Y-66750903D01*
X107146741Y-66713511D01*
X107146738Y-66713502D01*
X107130873Y-66679480D01*
X107050568Y-66507266D01*
X106920849Y-66322006D01*
X106920160Y-66320999D01*
X106920040Y-66320852D01*
X106759143Y-66159955D01*
X106572739Y-66029435D01*
X106572735Y-66029433D01*
X106572736Y-66029433D01*
X106572734Y-66029432D01*
X106572728Y-66029429D01*
X106530880Y-66009915D01*
X106501348Y-65990603D01*
X106492616Y-65982915D01*
X106455307Y-65923840D01*
X106455860Y-65853973D01*
X106493354Y-65796135D01*
X106501638Y-65788957D01*
X106530427Y-65770296D01*
X106530886Y-65770082D01*
X106572734Y-65750568D01*
X106759139Y-65620047D01*
X106920047Y-65459139D01*
X107050568Y-65272734D01*
X107146739Y-65066496D01*
X107205635Y-64846692D01*
X107220500Y-64676784D01*
X107220500Y-64563216D01*
X107205635Y-64393308D01*
X107146739Y-64173504D01*
X107050568Y-63967266D01*
X106920849Y-63782006D01*
X106920160Y-63780999D01*
X106920040Y-63780852D01*
X106759142Y-63619954D01*
X106707224Y-63583601D01*
X106681490Y-63559451D01*
X106674378Y-63550554D01*
X106647894Y-63485898D01*
X106660571Y-63417188D01*
X106708174Y-63366362D01*
X106717844Y-63360651D01*
X106750256Y-63347267D01*
X106753038Y-63346558D01*
X106753042Y-63346557D01*
X106826528Y-63316118D01*
X106826556Y-63316106D01*
X106875309Y-63292781D01*
X106875314Y-63292778D01*
X106990378Y-63206641D01*
X106990382Y-63206638D01*
X107017021Y-63179999D01*
X111360000Y-63179999D01*
X111360000Y-70580000D01*
X111362138Y-70645541D01*
X111362138Y-70645544D01*
X111362139Y-70645545D01*
X111396068Y-70772167D01*
X111461612Y-70885694D01*
X111554306Y-70978388D01*
X111667833Y-71043932D01*
X111794455Y-71077861D01*
X111860000Y-71080000D01*
X112760000Y-71080000D01*
X112825545Y-71077861D01*
X112952167Y-71043932D01*
X113065694Y-70978388D01*
X113158388Y-70885694D01*
X113223932Y-70772167D01*
X113257861Y-70645545D01*
X113260000Y-70580000D01*
X113260000Y-66880000D01*
X113260000Y-63180000D01*
X113257861Y-63114455D01*
X113223933Y-62987833D01*
X113158388Y-62874306D01*
X113065694Y-62781612D01*
X112952167Y-62716067D01*
X112825545Y-62682139D01*
X112760000Y-62680000D01*
X111860000Y-62680000D01*
X111794455Y-62682139D01*
X111667833Y-62716067D01*
X111667831Y-62716067D01*
X111667831Y-62716068D01*
X111554306Y-62781612D01*
X111554303Y-62781614D01*
X111461614Y-62874303D01*
X111461612Y-62874306D01*
X111396811Y-62986545D01*
X111396067Y-62987833D01*
X111377137Y-63058481D01*
X111362139Y-63114455D01*
X111360000Y-63179999D01*
X107017021Y-63179999D01*
X107046643Y-63150376D01*
X107046659Y-63150359D01*
X107082770Y-63110157D01*
X107156111Y-62986545D01*
X107156115Y-62986538D01*
X107186547Y-62913067D01*
X107186548Y-62913064D01*
X107204544Y-62862053D01*
X107223331Y-62731375D01*
X107224116Y-62727604D01*
X107225000Y-62725948D01*
X107225000Y-62330000D01*
X103039160Y-62330000D01*
X103055440Y-62411853D01*
X103084185Y-62506613D01*
X103144490Y-62652198D01*
X103180617Y-62719787D01*
X103191155Y-62739501D01*
X103191167Y-62739521D01*
X103278632Y-62870423D01*
X103278638Y-62870443D01*
X103278710Y-62870539D01*
X103341517Y-62947068D01*
X103452930Y-63058481D01*
X103529195Y-63121072D01*
X103529199Y-63121075D01*
X103529463Y-63121291D01*
X103529469Y-63121295D01*
X103660478Y-63208832D01*
X103660506Y-63208849D01*
X103713453Y-63237150D01*
X103717187Y-63239502D01*
X103720132Y-63242840D01*
X103737987Y-63255959D01*
X103747028Y-63264840D01*
X103759876Y-63287879D01*
X103763417Y-63291891D01*
X103763909Y-63295110D01*
X103781059Y-63325861D01*
X103776697Y-63395595D01*
X103738754Y-63449189D01*
X103731291Y-63455308D01*
X103705076Y-63471800D01*
X103667271Y-63489429D01*
X103667267Y-63489431D01*
X103667264Y-63489433D01*
X103545033Y-63575019D01*
X103480852Y-63619958D01*
X103319955Y-63780855D01*
X103189433Y-63967262D01*
X103189432Y-63967264D01*
X103093263Y-64173496D01*
X103093258Y-64173507D01*
X103034366Y-64393300D01*
X103034364Y-64393309D01*
X103034362Y-64393320D01*
X103019500Y-64563209D01*
X103019500Y-64676789D01*
X103034362Y-64846678D01*
X103034364Y-64846689D01*
X103034366Y-64846698D01*
X103093258Y-65066491D01*
X103093263Y-65066502D01*
X103189432Y-65272734D01*
X103189433Y-65272736D01*
X103319955Y-65459143D01*
X103480852Y-65620040D01*
X103480999Y-65620160D01*
X103482006Y-65620849D01*
X103667266Y-65750568D01*
X103709114Y-65770082D01*
X103738656Y-65789400D01*
X103747387Y-65797088D01*
X103784692Y-65856165D01*
X103784136Y-65926033D01*
X103746641Y-65983868D01*
X103738367Y-65991037D01*
X103709573Y-66009703D01*
X103667264Y-66029432D01*
X103667262Y-66029433D01*
X103480855Y-66159955D01*
X103319955Y-66320855D01*
X103189433Y-66507262D01*
X103189432Y-66507264D01*
X103093263Y-66713496D01*
X103093258Y-66713507D01*
X103034366Y-66933300D01*
X103034364Y-66933309D01*
X103034362Y-66933320D01*
X103019500Y-67103209D01*
X103019500Y-67216789D01*
X103034362Y-67386678D01*
X103034364Y-67386689D01*
X103034366Y-67386698D01*
X103093258Y-67606491D01*
X103093263Y-67606502D01*
X103189432Y-67812734D01*
X103189433Y-67812736D01*
X103319955Y-67999143D01*
X103480854Y-68160042D01*
X103480857Y-68160044D01*
X103480858Y-68160045D01*
X103499344Y-68172989D01*
X103667266Y-68290568D01*
X103695535Y-68303750D01*
X103709114Y-68310082D01*
X103738650Y-68329396D01*
X103747382Y-68337084D01*
X103784691Y-68396159D01*
X103784138Y-68466026D01*
X103746641Y-68523868D01*
X103738367Y-68531037D01*
X103709573Y-68549703D01*
X103667264Y-68569432D01*
X103667262Y-68569433D01*
X103480855Y-68699955D01*
X103319955Y-68860855D01*
X103189433Y-69047262D01*
X103189432Y-69047263D01*
X103144417Y-69143799D01*
X103117699Y-69174141D01*
X103099347Y-69198451D01*
X103080369Y-69205441D01*
X103078914Y-69206191D01*
X103071379Y-69209268D01*
X103071196Y-69208820D01*
X103033784Y-69222602D01*
X102965572Y-69207473D01*
X102916368Y-69157867D01*
X102904169Y-69124748D01*
X102903228Y-69120336D01*
X102900500Y-69094471D01*
X102900500Y-68891452D01*
X102900501Y-68891401D01*
X102900501Y-68720944D01*
X102898526Y-68713573D01*
X102859577Y-68568216D01*
X102838345Y-68531441D01*
X102780524Y-68431290D01*
X102780518Y-68431282D01*
X102780513Y-68431276D01*
X101491928Y-67142693D01*
X101487590Y-67138355D01*
X101487588Y-67138352D01*
X101368717Y-67019481D01*
X101368716Y-67019480D01*
X101368715Y-67019479D01*
X101344675Y-67005600D01*
X101276872Y-66966454D01*
X101276870Y-66966453D01*
X101231783Y-66940422D01*
X101231778Y-66940420D01*
X101175882Y-66925442D01*
X101175882Y-66925443D01*
X101127469Y-66912471D01*
X101079057Y-66899499D01*
X101079056Y-66899499D01*
X100911443Y-66899499D01*
X100911380Y-66899500D01*
X92042329Y-66899500D01*
X92007388Y-66894475D01*
X91992389Y-66890070D01*
X91933643Y-66852327D01*
X91932456Y-66850958D01*
X91904976Y-66796083D01*
X91903331Y-66788521D01*
X91900499Y-66762168D01*
X91900499Y-66552122D01*
X91900339Y-66550197D01*
X91900113Y-66548543D01*
X91895676Y-66507267D01*
X91894091Y-66492516D01*
X91843797Y-66357671D01*
X91843793Y-66357664D01*
X91817110Y-66322021D01*
X91762431Y-66248979D01*
X91762426Y-66248973D01*
X91757546Y-66242454D01*
X91757545Y-66242453D01*
X91757544Y-66242452D01*
X91731101Y-66222657D01*
X91716336Y-66211603D01*
X91642335Y-66156206D01*
X91642332Y-66156204D01*
X91642330Y-66156203D01*
X91642328Y-66156202D01*
X91507482Y-66105908D01*
X91507483Y-66105908D01*
X91447883Y-66099501D01*
X91447881Y-66099500D01*
X91447873Y-66099500D01*
X91447864Y-66099500D01*
X91446841Y-66099500D01*
X89552123Y-66099500D01*
X89550192Y-66099659D01*
X89548545Y-66099885D01*
X89492516Y-66105908D01*
X89357666Y-66156204D01*
X89357665Y-66156205D01*
X89242456Y-66242450D01*
X89242450Y-66242456D01*
X89156208Y-66357661D01*
X89156206Y-66357664D01*
X89156201Y-66357671D01*
X89132628Y-66420876D01*
X89115712Y-66451853D01*
X89107395Y-66462963D01*
X89051461Y-66504834D01*
X88981777Y-66509819D01*
X88977294Y-66508844D01*
X88915969Y-66475362D01*
X88915964Y-66475357D01*
X88872370Y-66431762D01*
X88872369Y-66431761D01*
X88872364Y-66431757D01*
X88872363Y-66431756D01*
X88872358Y-66431752D01*
X88826428Y-66398382D01*
X88704615Y-66309880D01*
X88704602Y-66309871D01*
X88694025Y-66302187D01*
X88694024Y-66302186D01*
X88694022Y-66302185D01*
X88620056Y-66264497D01*
X88620056Y-66264496D01*
X88620054Y-66264496D01*
X88497606Y-66202104D01*
X88497602Y-66202102D01*
X88497579Y-66202094D01*
X88287954Y-66133985D01*
X88287955Y-66133985D01*
X88179086Y-66116742D01*
X88070227Y-66099500D01*
X88070222Y-66099500D01*
X87849778Y-66099500D01*
X87849774Y-66099500D01*
X87791716Y-66108696D01*
X87777201Y-66110995D01*
X87632043Y-66133985D01*
X87422419Y-66202094D01*
X87422396Y-66202102D01*
X87422392Y-66202104D01*
X87225972Y-66302187D01*
X87047658Y-66431739D01*
X87047629Y-66431761D01*
X86891761Y-66587629D01*
X86891739Y-66587658D01*
X86762187Y-66765972D01*
X86661657Y-66963268D01*
X86660597Y-66967030D01*
X86593985Y-67172043D01*
X86559500Y-67389772D01*
X86559500Y-67610226D01*
X86593985Y-67827955D01*
X86662078Y-68037530D01*
X86662104Y-68037606D01*
X86723174Y-68157459D01*
X86723174Y-68157461D01*
X86723175Y-68157461D01*
X86757333Y-68224500D01*
X86762186Y-68234023D01*
X86762192Y-68234033D01*
X86855263Y-68362135D01*
X86891752Y-68412358D01*
X86891756Y-68412363D01*
X86891761Y-68412369D01*
X87047629Y-68568237D01*
X87047633Y-68568240D01*
X87047636Y-68568243D01*
X87047641Y-68568247D01*
X87225973Y-68697812D01*
X87225975Y-68697813D01*
X87225978Y-68697815D01*
X87225984Y-68697818D01*
X87226006Y-68697831D01*
X87226324Y-68697992D01*
X87315910Y-68743638D01*
X87344759Y-68763975D01*
X87357167Y-68775694D01*
X87391720Y-68833456D01*
X87393297Y-68839283D01*
X87394777Y-68844757D01*
X87395196Y-68846303D01*
X87399500Y-68878689D01*
X87399500Y-72564369D01*
X87394475Y-72599313D01*
X87390070Y-72614311D01*
X87352305Y-72673074D01*
X87344289Y-72680021D01*
X87302086Y-72704019D01*
X87281965Y-72710687D01*
X87281961Y-72710688D01*
X87230685Y-72727678D01*
X87230667Y-72727685D01*
X87230665Y-72727686D01*
X87230663Y-72727687D01*
X87201463Y-72745698D01*
X87081340Y-72819790D01*
X86957290Y-72943840D01*
X86957289Y-72943842D01*
X86876522Y-73074787D01*
X86865185Y-73093167D01*
X86865182Y-73093175D01*
X86848444Y-73143689D01*
X86848444Y-73143690D01*
X86820299Y-73228623D01*
X86811852Y-73241567D01*
X86810365Y-73256130D01*
X86809542Y-73262381D01*
X86809359Y-73265976D01*
X86799500Y-73362473D01*
X86799500Y-73362480D01*
X86799500Y-73362483D01*
X86799500Y-73987501D01*
X86799500Y-73987509D01*
X86799503Y-73987545D01*
X86800566Y-73997946D01*
X86810000Y-74090296D01*
X86810001Y-74090299D01*
X86865185Y-74256831D01*
X86865187Y-74256836D01*
X86867732Y-74260962D01*
X86940652Y-74379185D01*
X86957289Y-74406157D01*
X87038346Y-74487214D01*
X87059497Y-74515470D01*
X87066988Y-74529190D01*
X87081839Y-74597448D01*
X87081710Y-74599254D01*
X87062342Y-74657456D01*
X87058163Y-74663959D01*
X87041527Y-74684603D01*
X86957289Y-74768840D01*
X86903157Y-74856601D01*
X86880539Y-74883700D01*
X86860482Y-74901739D01*
X86809659Y-74929316D01*
X86768224Y-74940419D01*
X86768221Y-74940420D01*
X86768207Y-74940427D01*
X86768204Y-74940428D01*
X86631298Y-75019470D01*
X86631294Y-75019472D01*
X86631290Y-75019475D01*
X86631282Y-75019481D01*
X86631278Y-75019484D01*
X86631276Y-75019485D01*
X86132899Y-75517863D01*
X86092875Y-75557886D01*
X86092867Y-75557896D01*
X86019475Y-75631288D01*
X85992151Y-75678614D01*
X85992152Y-75678615D01*
X85987566Y-75686560D01*
X85984030Y-75692686D01*
X85959419Y-75735314D01*
X85946044Y-75758481D01*
X85941684Y-75766032D01*
X85941670Y-75766056D01*
X85940423Y-75768213D01*
X85926686Y-75819480D01*
X85899499Y-75920943D01*
X85899499Y-75920945D01*
X85899499Y-76091400D01*
X85899500Y-76091451D01*
X85899500Y-83413330D01*
X85899499Y-83413348D01*
X85899499Y-83497370D01*
X85899499Y-83536960D01*
X85893601Y-83557046D01*
X85500500Y-83557046D01*
X85500500Y-64881941D01*
X93000000Y-64881941D01*
X93000000Y-65118057D01*
X93036281Y-65347125D01*
X93036934Y-65351247D01*
X93109897Y-65575802D01*
X93212727Y-65777618D01*
X93217086Y-65786172D01*
X93217087Y-65786174D01*
X93277337Y-65869103D01*
X93277339Y-65869105D01*
X93277339Y-65869104D01*
X93277340Y-65869105D01*
X93853695Y-65292749D01*
X93915016Y-65259266D01*
X93984707Y-65264250D01*
X94040641Y-65306121D01*
X94048762Y-65318433D01*
X94059887Y-65337704D01*
X94059890Y-65337708D01*
X94162292Y-65440110D01*
X94162293Y-65440111D01*
X94162295Y-65440112D01*
X94181563Y-65451236D01*
X94229780Y-65501802D01*
X94243004Y-65570409D01*
X94217037Y-65635274D01*
X94207246Y-65646305D01*
X93630892Y-66222657D01*
X93630893Y-66222657D01*
X93630893Y-66222658D01*
X93713828Y-66282914D01*
X93924197Y-66390102D01*
X94055782Y-66432857D01*
X94085252Y-66453007D01*
X94148749Y-66463064D01*
X94148752Y-66463065D01*
X94148751Y-66463065D01*
X94381948Y-66500000D01*
X94618051Y-66500000D01*
X94618052Y-66500000D01*
X94851247Y-66463065D01*
X95075802Y-66390102D01*
X95286163Y-66282918D01*
X95286169Y-66282914D01*
X95331872Y-66249709D01*
X95336509Y-66246340D01*
X95363247Y-66236799D01*
X95369105Y-66222657D01*
X94792752Y-65646306D01*
X94759267Y-65584983D01*
X94764251Y-65515292D01*
X94806122Y-65459358D01*
X94818429Y-65451240D01*
X94837708Y-65440110D01*
X94940110Y-65337708D01*
X94951235Y-65318437D01*
X95001800Y-65270220D01*
X95070407Y-65256995D01*
X95135272Y-65282961D01*
X95146305Y-65292753D01*
X95722657Y-65869105D01*
X95722657Y-65869104D01*
X95722658Y-65869105D01*
X95722658Y-65869104D01*
X95736126Y-65863525D01*
X95742343Y-65842355D01*
X95746340Y-65836509D01*
X95756783Y-65822135D01*
X95782914Y-65786169D01*
X95782918Y-65786163D01*
X95890102Y-65575802D01*
X95963065Y-65351247D01*
X96000000Y-65118052D01*
X96000000Y-64881947D01*
X95999999Y-64881941D01*
X99500000Y-64881941D01*
X99500000Y-65118057D01*
X99536281Y-65347125D01*
X99536934Y-65351247D01*
X99609897Y-65575802D01*
X99712727Y-65777618D01*
X99717086Y-65786172D01*
X99717087Y-65786174D01*
X99773284Y-65863525D01*
X99777338Y-65869104D01*
X99777340Y-65869105D01*
X100353695Y-65292749D01*
X100415016Y-65259266D01*
X100484707Y-65264250D01*
X100540641Y-65306121D01*
X100548762Y-65318433D01*
X100559887Y-65337704D01*
X100559890Y-65337708D01*
X100662292Y-65440110D01*
X100662293Y-65440111D01*
X100662295Y-65440112D01*
X100681563Y-65451236D01*
X100729780Y-65501802D01*
X100743004Y-65570409D01*
X100717037Y-65635274D01*
X100707246Y-65646305D01*
X100130892Y-66222657D01*
X100130893Y-66222657D01*
X100130893Y-66222658D01*
X100213828Y-66282914D01*
X100424197Y-66390102D01*
X100555782Y-66432857D01*
X100585252Y-66453007D01*
X100648749Y-66463064D01*
X100648752Y-66463065D01*
X100648751Y-66463065D01*
X100881948Y-66500000D01*
X101118051Y-66500000D01*
X101118052Y-66500000D01*
X101351247Y-66463065D01*
X101575802Y-66390102D01*
X101786163Y-66282918D01*
X101786169Y-66282914D01*
X101831872Y-66249709D01*
X101836509Y-66246340D01*
X101863247Y-66236799D01*
X101869105Y-66222657D01*
X101292752Y-65646306D01*
X101259267Y-65584983D01*
X101264251Y-65515292D01*
X101306122Y-65459358D01*
X101318429Y-65451240D01*
X101337708Y-65440110D01*
X101440110Y-65337708D01*
X101451235Y-65318437D01*
X101501800Y-65270220D01*
X101570407Y-65256995D01*
X101635272Y-65282961D01*
X101646305Y-65292753D01*
X102222657Y-65869105D01*
X102222657Y-65869104D01*
X102222658Y-65869105D01*
X102222658Y-65869104D01*
X102236126Y-65863525D01*
X102242343Y-65842355D01*
X102246340Y-65836509D01*
X102256783Y-65822135D01*
X102282914Y-65786169D01*
X102282918Y-65786163D01*
X102390102Y-65575802D01*
X102463065Y-65351247D01*
X102500000Y-65118052D01*
X102500000Y-64881947D01*
X102463065Y-64648752D01*
X102390102Y-64424197D01*
X102282914Y-64213828D01*
X102246338Y-64163487D01*
X102236799Y-64136750D01*
X102222657Y-64130892D01*
X101646305Y-64707246D01*
X101584982Y-64740731D01*
X101515291Y-64735747D01*
X101459357Y-64693876D01*
X101451236Y-64681563D01*
X101440112Y-64662295D01*
X101440108Y-64662290D01*
X101337707Y-64559889D01*
X101318432Y-64548761D01*
X101270217Y-64498194D01*
X101256995Y-64429586D01*
X101282963Y-64364722D01*
X101292745Y-64353700D01*
X101869105Y-63777340D01*
X101869104Y-63777338D01*
X101786174Y-63717087D01*
X101782380Y-63715154D01*
X101575806Y-63609898D01*
X101494872Y-63583601D01*
X101444215Y-63567141D01*
X101414746Y-63546991D01*
X101118057Y-63500000D01*
X101118052Y-63500000D01*
X100881948Y-63500000D01*
X100881943Y-63500000D01*
X100648755Y-63536933D01*
X100424194Y-63609898D01*
X100213825Y-63717086D01*
X100130894Y-63777339D01*
X100130893Y-63777340D01*
X100707247Y-64353693D01*
X100740732Y-64415016D01*
X100735748Y-64484707D01*
X100693877Y-64540641D01*
X100681568Y-64548760D01*
X100662295Y-64559887D01*
X100662290Y-64559891D01*
X100559891Y-64662290D01*
X100559887Y-64662295D01*
X100548760Y-64681568D01*
X100498192Y-64729783D01*
X100429584Y-64743004D01*
X100364720Y-64717035D01*
X100353693Y-64707247D01*
X99777340Y-64130893D01*
X99777339Y-64130894D01*
X99717086Y-64213825D01*
X99609898Y-64424194D01*
X99536933Y-64648755D01*
X99500000Y-64881941D01*
X95999999Y-64881941D01*
X95963065Y-64648752D01*
X95890102Y-64424197D01*
X95782914Y-64213828D01*
X95746338Y-64163487D01*
X95736799Y-64136750D01*
X95722657Y-64130892D01*
X95146305Y-64707246D01*
X95084982Y-64740731D01*
X95015291Y-64735747D01*
X94959357Y-64693876D01*
X94951236Y-64681563D01*
X94940112Y-64662295D01*
X94940108Y-64662290D01*
X94837707Y-64559889D01*
X94818432Y-64548761D01*
X94770217Y-64498194D01*
X94756995Y-64429586D01*
X94782963Y-64364722D01*
X94792745Y-64353700D01*
X95369105Y-63777340D01*
X95369104Y-63777339D01*
X95369103Y-63777338D01*
X95369102Y-63777337D01*
X95369097Y-63777333D01*
X95286177Y-63717089D01*
X95286176Y-63717088D01*
X95286174Y-63717087D01*
X95220478Y-63683613D01*
X95075806Y-63609898D01*
X94994872Y-63583601D01*
X94944215Y-63567141D01*
X94914746Y-63546991D01*
X94618057Y-63500000D01*
X94618052Y-63500000D01*
X94381948Y-63500000D01*
X94381943Y-63500000D01*
X94148755Y-63536933D01*
X93924194Y-63609898D01*
X93713825Y-63717086D01*
X93630894Y-63777339D01*
X93630893Y-63777340D01*
X94207247Y-64353693D01*
X94240732Y-64415016D01*
X94235748Y-64484707D01*
X94193877Y-64540641D01*
X94181568Y-64548760D01*
X94162295Y-64559887D01*
X94162290Y-64559891D01*
X94059891Y-64662290D01*
X94059887Y-64662295D01*
X94048760Y-64681568D01*
X93998192Y-64729783D01*
X93929584Y-64743004D01*
X93864720Y-64717035D01*
X93853693Y-64707247D01*
X93277340Y-64130893D01*
X93277339Y-64130894D01*
X93217086Y-64213825D01*
X93109898Y-64424194D01*
X93036933Y-64648755D01*
X93000000Y-64881941D01*
X85500500Y-64881941D01*
X85500500Y-55881896D01*
X95499500Y-55881896D01*
X95499500Y-56118102D01*
X95530600Y-56314458D01*
X95536446Y-56351368D01*
X95609433Y-56575996D01*
X95656331Y-56668037D01*
X95709975Y-56773320D01*
X95711463Y-56776239D01*
X95716657Y-56786433D01*
X95855483Y-56977510D01*
X96022490Y-57144517D01*
X96213567Y-57283343D01*
X96308987Y-57331962D01*
X96308986Y-57331962D01*
X96361832Y-57358888D01*
X96424003Y-57390566D01*
X96424004Y-57390566D01*
X96424879Y-57391012D01*
X96428627Y-57392069D01*
X96535512Y-57426798D01*
X96648631Y-57463553D01*
X96881903Y-57500500D01*
X96881908Y-57500500D01*
X97118096Y-57500500D01*
X97118097Y-57500500D01*
X97351368Y-57463553D01*
X97575992Y-57390568D01*
X97786433Y-57283343D01*
X97977510Y-57144517D01*
X98144517Y-56977510D01*
X98283343Y-56786433D01*
X98390568Y-56575992D01*
X98460677Y-56360220D01*
X103014500Y-56360220D01*
X103014500Y-57639789D01*
X103017393Y-57693809D01*
X103017394Y-57693811D01*
X103017406Y-57693860D01*
X103042675Y-57792861D01*
X103052976Y-57833221D01*
X103052980Y-57833232D01*
X103052982Y-57833240D01*
X103083419Y-57906720D01*
X103083432Y-57906751D01*
X103106778Y-57955547D01*
X103106778Y-57955548D01*
X103106781Y-57955552D01*
X103149892Y-58013141D01*
X103193006Y-58070733D01*
X103193011Y-58070739D01*
X103193014Y-58070742D01*
X103193015Y-58070743D01*
X103249252Y-58126980D01*
X103249260Y-58126987D01*
X103249273Y-58127000D01*
X103249370Y-58127087D01*
X103251790Y-58129260D01*
X103262167Y-58138581D01*
X103289519Y-58163152D01*
X103289521Y-58163154D01*
X103289524Y-58163156D01*
X103289532Y-58163162D01*
X103413263Y-58236573D01*
X103413262Y-58236573D01*
X103427615Y-58242518D01*
X103486774Y-58267022D01*
X103486779Y-58267024D01*
X103497844Y-58270927D01*
X103529121Y-58287287D01*
X103539730Y-58294937D01*
X103582593Y-58350113D01*
X103588822Y-58419705D01*
X103560357Y-58477359D01*
X103554365Y-58484179D01*
X103532335Y-58503910D01*
X103480853Y-58539957D01*
X103319955Y-58700855D01*
X103189433Y-58887262D01*
X103189432Y-58887264D01*
X103093263Y-59093496D01*
X103093258Y-59093507D01*
X103034366Y-59313300D01*
X103034364Y-59313309D01*
X103034362Y-59313320D01*
X103019500Y-59483209D01*
X103019500Y-59596789D01*
X103034362Y-59766678D01*
X103034364Y-59766689D01*
X103034366Y-59766698D01*
X103093258Y-59986491D01*
X103093263Y-59986502D01*
X103189432Y-60192734D01*
X103189433Y-60192736D01*
X103319955Y-60379143D01*
X103480852Y-60540040D01*
X103480999Y-60540160D01*
X103482006Y-60540849D01*
X103667266Y-60670568D01*
X103703063Y-60687260D01*
X103732604Y-60706579D01*
X103742117Y-60714956D01*
X103779420Y-60774033D01*
X103778862Y-60843901D01*
X103743902Y-60899475D01*
X103736786Y-60905990D01*
X103711507Y-60923890D01*
X103660483Y-60951163D01*
X103529577Y-61038632D01*
X103529457Y-61038712D01*
X103452930Y-61101517D01*
X103341517Y-61212930D01*
X103278712Y-61289457D01*
X103278632Y-61289577D01*
X103191169Y-61420474D01*
X103191166Y-61420478D01*
X103191148Y-61420510D01*
X103144490Y-61507800D01*
X103084185Y-61653385D01*
X103055443Y-61748139D01*
X103055440Y-61748150D01*
X103039160Y-61829999D01*
X103039161Y-61830000D01*
X107225000Y-61830000D01*
X107225000Y-61440224D01*
X107225000Y-61440219D01*
X122395000Y-61440219D01*
X122395000Y-61830000D01*
X126580839Y-61830000D01*
X126580839Y-61829999D01*
X126564559Y-61748150D01*
X126564556Y-61748139D01*
X126535814Y-61653387D01*
X126475509Y-61507801D01*
X126428844Y-61420498D01*
X126428832Y-61420478D01*
X126341364Y-61289573D01*
X126341358Y-61289554D01*
X126341288Y-61289459D01*
X126278481Y-61212930D01*
X126167068Y-61101517D01*
X126090798Y-61038922D01*
X126090792Y-61038918D01*
X126090536Y-61038708D01*
X126090530Y-61038704D01*
X125959521Y-60951167D01*
X125959501Y-60951155D01*
X125906554Y-60922854D01*
X125902814Y-60920498D01*
X125899869Y-60917161D01*
X125882013Y-60904041D01*
X125872970Y-60895158D01*
X125860119Y-60872115D01*
X125856584Y-60868109D01*
X125856091Y-60864893D01*
X125838939Y-60834136D01*
X125843301Y-60764403D01*
X125881245Y-60710808D01*
X125888712Y-60704686D01*
X125914919Y-60688200D01*
X125952734Y-60670568D01*
X126139139Y-60540047D01*
X126300047Y-60379139D01*
X126419893Y-60207976D01*
X126444041Y-60182245D01*
X126460994Y-60168694D01*
X126514471Y-60143890D01*
X126519837Y-60142834D01*
X126543780Y-60140500D01*
X127222073Y-60140500D01*
X127257005Y-60145521D01*
X127282249Y-60152934D01*
X127334995Y-60184230D01*
X127652817Y-60502052D01*
X127673967Y-60530305D01*
X127689854Y-60559399D01*
X127702640Y-60594635D01*
X127730259Y-60733484D01*
X127730260Y-60733488D01*
X127730261Y-60733491D01*
X127730264Y-60733501D01*
X127730267Y-60733509D01*
X127730272Y-60733523D01*
X127790598Y-60879165D01*
X127790602Y-60879172D01*
X127790609Y-60879185D01*
X127868697Y-60996050D01*
X127883928Y-61027886D01*
X127893834Y-61059522D01*
X127899500Y-61096575D01*
X127899500Y-63413330D01*
X127899499Y-63413348D01*
X127899499Y-63589046D01*
X127899500Y-63589059D01*
X127899500Y-64595614D01*
X127894475Y-64630555D01*
X127890564Y-64643872D01*
X127852787Y-64702648D01*
X127789229Y-64731670D01*
X127783287Y-64732524D01*
X127733052Y-64729424D01*
X127713384Y-64724065D01*
X127710727Y-64724659D01*
X127694702Y-64722545D01*
X127595636Y-64702839D01*
X127562354Y-64691098D01*
X127532980Y-64675733D01*
X127502773Y-64653538D01*
X127111928Y-64262693D01*
X127111919Y-64262683D01*
X127063061Y-64213825D01*
X126988717Y-64139481D01*
X126988716Y-64139480D01*
X126920714Y-64100220D01*
X126918653Y-64098920D01*
X126914489Y-64094197D01*
X126909430Y-64089798D01*
X126886842Y-64080663D01*
X126851786Y-64060423D01*
X126813603Y-64050192D01*
X126699057Y-64019499D01*
X126699054Y-64019499D01*
X126549518Y-64019499D01*
X126514582Y-64014476D01*
X126493764Y-64008363D01*
X126442760Y-63978774D01*
X126438819Y-63974985D01*
X126423184Y-63956720D01*
X126300859Y-63782021D01*
X126300160Y-63780999D01*
X126300040Y-63780852D01*
X126139143Y-63619955D01*
X125952736Y-63489433D01*
X125952735Y-63489432D01*
X125916938Y-63472740D01*
X125887394Y-63453419D01*
X125877881Y-63445042D01*
X125840578Y-63385965D01*
X125841136Y-63316097D01*
X125876100Y-63260519D01*
X125883226Y-63253996D01*
X125908491Y-63236109D01*
X125959500Y-63208844D01*
X125959503Y-63208842D01*
X125959511Y-63208838D01*
X125959513Y-63208836D01*
X125959521Y-63208832D01*
X126090426Y-63121364D01*
X126090445Y-63121358D01*
X126090530Y-63121295D01*
X126090536Y-63121291D01*
X126167064Y-63058485D01*
X126278485Y-62947064D01*
X126341291Y-62870536D01*
X126341295Y-62870530D01*
X126341299Y-62870523D01*
X126341340Y-62870468D01*
X126341355Y-62870439D01*
X126428832Y-62739521D01*
X126428844Y-62739501D01*
X126475509Y-62652198D01*
X126535814Y-62506612D01*
X126564556Y-62411860D01*
X126564559Y-62411849D01*
X126580839Y-62330000D01*
X122395000Y-62330000D01*
X122395000Y-62719787D01*
X122397715Y-62770440D01*
X122397780Y-62772863D01*
X122397893Y-62773769D01*
X122423554Y-62874306D01*
X122433438Y-62913030D01*
X122433442Y-62913041D01*
X122433444Y-62913049D01*
X122463881Y-62986529D01*
X122463894Y-62986560D01*
X122487216Y-63035306D01*
X122487217Y-63035308D01*
X122487218Y-63035309D01*
X122487221Y-63035314D01*
X122551634Y-63121358D01*
X122573322Y-63150330D01*
X122573356Y-63150376D01*
X122573366Y-63150387D01*
X122629609Y-63206630D01*
X122629621Y-63206641D01*
X122629623Y-63206643D01*
X122629640Y-63206659D01*
X122669842Y-63242770D01*
X122793454Y-63316111D01*
X122793461Y-63316115D01*
X122866932Y-63346547D01*
X122866956Y-63346556D01*
X122878352Y-63350576D01*
X122909622Y-63366934D01*
X122920234Y-63374586D01*
X122963097Y-63429763D01*
X122969324Y-63499355D01*
X122940855Y-63557013D01*
X122936836Y-63561588D01*
X122934863Y-63563833D01*
X122912839Y-63583557D01*
X122860852Y-63619958D01*
X122860852Y-63619959D01*
X122699955Y-63780855D01*
X122569433Y-63967262D01*
X122569432Y-63967264D01*
X122473263Y-64173496D01*
X122473258Y-64173507D01*
X122414366Y-64393300D01*
X122414364Y-64393309D01*
X122414362Y-64393320D01*
X122399500Y-64563209D01*
X122399500Y-64676789D01*
X122414362Y-64846678D01*
X122414364Y-64846689D01*
X122414366Y-64846698D01*
X122473258Y-65066491D01*
X122473263Y-65066502D01*
X122569432Y-65272734D01*
X122569433Y-65272736D01*
X122699955Y-65459143D01*
X122860852Y-65620040D01*
X122860999Y-65620160D01*
X122862006Y-65620849D01*
X123047266Y-65750568D01*
X123089114Y-65770082D01*
X123118656Y-65789400D01*
X123127387Y-65797088D01*
X123164692Y-65856165D01*
X123164136Y-65926033D01*
X123126641Y-65983868D01*
X123118367Y-65991037D01*
X123089573Y-66009703D01*
X123047264Y-66029432D01*
X123047262Y-66029433D01*
X122860855Y-66159955D01*
X122699955Y-66320855D01*
X122569433Y-66507262D01*
X122569432Y-66507264D01*
X122473263Y-66713496D01*
X122473258Y-66713507D01*
X122414366Y-66933300D01*
X122414364Y-66933309D01*
X122414362Y-66933320D01*
X122399500Y-67103209D01*
X122399500Y-67216789D01*
X122414362Y-67386678D01*
X122414364Y-67386689D01*
X122414366Y-67386698D01*
X122473258Y-67606491D01*
X122473263Y-67606502D01*
X122569432Y-67812734D01*
X122569433Y-67812736D01*
X122699955Y-67999143D01*
X122860854Y-68160042D01*
X122860857Y-68160044D01*
X122860858Y-68160045D01*
X122879344Y-68172989D01*
X123047266Y-68290568D01*
X123075535Y-68303750D01*
X123089114Y-68310082D01*
X123118650Y-68329396D01*
X123127382Y-68337084D01*
X123164691Y-68396159D01*
X123164138Y-68466026D01*
X123126641Y-68523868D01*
X123118367Y-68531037D01*
X123089573Y-68549703D01*
X123047264Y-68569432D01*
X123047262Y-68569433D01*
X122860855Y-68699955D01*
X122699955Y-68860855D01*
X122569433Y-69047262D01*
X122569432Y-69047264D01*
X122473263Y-69253496D01*
X122473258Y-69253507D01*
X122414366Y-69473300D01*
X122414364Y-69473309D01*
X122414362Y-69473320D01*
X122399500Y-69643209D01*
X122399500Y-69756789D01*
X122414362Y-69926678D01*
X122414364Y-69926689D01*
X122414366Y-69926698D01*
X122473258Y-70146491D01*
X122473263Y-70146502D01*
X122569432Y-70352734D01*
X122569433Y-70352736D01*
X122699955Y-70539143D01*
X122860852Y-70700040D01*
X122860999Y-70700160D01*
X122862006Y-70700849D01*
X123047266Y-70830568D01*
X123089114Y-70850082D01*
X123118656Y-70869400D01*
X123127387Y-70877088D01*
X123164692Y-70936165D01*
X123164136Y-71006033D01*
X123126641Y-71063868D01*
X123118367Y-71071037D01*
X123089573Y-71089703D01*
X123047264Y-71109432D01*
X123047262Y-71109433D01*
X122860855Y-71239955D01*
X122699955Y-71400855D01*
X122569433Y-71587262D01*
X122569432Y-71587264D01*
X122473263Y-71793496D01*
X122473258Y-71793507D01*
X122414366Y-72013300D01*
X122414364Y-72013309D01*
X122414362Y-72013320D01*
X122399500Y-72183209D01*
X122399500Y-72296789D01*
X122414362Y-72466678D01*
X122414364Y-72466689D01*
X122414366Y-72466698D01*
X122473258Y-72686491D01*
X122473263Y-72686502D01*
X122569432Y-72892734D01*
X122569433Y-72892736D01*
X122699955Y-73079143D01*
X122860855Y-73240043D01*
X122912774Y-73276397D01*
X122938508Y-73300547D01*
X122945620Y-73309444D01*
X122972104Y-73374100D01*
X122959427Y-73442810D01*
X122911828Y-73493634D01*
X122902168Y-73499340D01*
X122869781Y-73512720D01*
X122866986Y-73513433D01*
X122866966Y-73513439D01*
X122866955Y-73513442D01*
X122793469Y-73543881D01*
X122793438Y-73543894D01*
X122744692Y-73567216D01*
X122744682Y-73567223D01*
X122629622Y-73653357D01*
X122629618Y-73653360D01*
X122573341Y-73709638D01*
X122537232Y-73749838D01*
X122537227Y-73749844D01*
X122463884Y-73873460D01*
X122463882Y-73873465D01*
X122433450Y-73946936D01*
X122433329Y-73947261D01*
X122433086Y-73947970D01*
X122415454Y-73997947D01*
X122395001Y-74140212D01*
X122395000Y-74140219D01*
X122395000Y-74530000D01*
X126580839Y-74530000D01*
X126580839Y-74529999D01*
X126564559Y-74448150D01*
X126564556Y-74448139D01*
X126535814Y-74353387D01*
X126475509Y-74207801D01*
X126428844Y-74120498D01*
X126428832Y-74120478D01*
X126341364Y-73989573D01*
X126341358Y-73989554D01*
X126341288Y-73989459D01*
X126278481Y-73912930D01*
X126167068Y-73801517D01*
X126090798Y-73738922D01*
X126090792Y-73738918D01*
X126090536Y-73738708D01*
X126090530Y-73738704D01*
X125959521Y-73651167D01*
X125959501Y-73651155D01*
X125906554Y-73622854D01*
X125902814Y-73620498D01*
X125899869Y-73617161D01*
X125882013Y-73604041D01*
X125872970Y-73595158D01*
X125860119Y-73572115D01*
X125856584Y-73568109D01*
X125856091Y-73564893D01*
X125838939Y-73534136D01*
X125843301Y-73464403D01*
X125881245Y-73410808D01*
X125888712Y-73404686D01*
X125914919Y-73388200D01*
X125952734Y-73370568D01*
X125953900Y-73369752D01*
X126052735Y-73300547D01*
X126139139Y-73240047D01*
X126300047Y-73079139D01*
X126430568Y-72892734D01*
X126526739Y-72686496D01*
X126585635Y-72466692D01*
X126600500Y-72296784D01*
X126600500Y-72183216D01*
X126585635Y-72013308D01*
X126526739Y-71793504D01*
X126430568Y-71587266D01*
X126300849Y-71402006D01*
X126300160Y-71400999D01*
X126300040Y-71400852D01*
X126139143Y-71239955D01*
X125952739Y-71109435D01*
X125952735Y-71109433D01*
X125952736Y-71109433D01*
X125952734Y-71109432D01*
X125952728Y-71109429D01*
X125910880Y-71089915D01*
X125881348Y-71070603D01*
X125872616Y-71062915D01*
X125835307Y-71003840D01*
X125835860Y-70933973D01*
X125873354Y-70876135D01*
X125881638Y-70868957D01*
X125910427Y-70850296D01*
X125910886Y-70850082D01*
X125952734Y-70830568D01*
X126139139Y-70700047D01*
X126300047Y-70539139D01*
X126430568Y-70352734D01*
X126526739Y-70146496D01*
X126585635Y-69926692D01*
X126600500Y-69756784D01*
X126600500Y-69643216D01*
X126585635Y-69473308D01*
X126526739Y-69253504D01*
X126430568Y-69047266D01*
X126300849Y-68862006D01*
X126300160Y-68860999D01*
X126300040Y-68860852D01*
X126139143Y-68699955D01*
X125952739Y-68569435D01*
X125952735Y-68569433D01*
X125952734Y-68569432D01*
X125952728Y-68569429D01*
X125910880Y-68549915D01*
X125881348Y-68530603D01*
X125872616Y-68522915D01*
X125835307Y-68463840D01*
X125835860Y-68393973D01*
X125873349Y-68336139D01*
X125881633Y-68328961D01*
X125910422Y-68310298D01*
X125952734Y-68290568D01*
X126139139Y-68160047D01*
X126300047Y-67999139D01*
X126419893Y-67827976D01*
X126444041Y-67802245D01*
X126460994Y-67788694D01*
X126514471Y-67763890D01*
X126519837Y-67762834D01*
X126543780Y-67760500D01*
X126842073Y-67760500D01*
X126877005Y-67765521D01*
X126902249Y-67772934D01*
X126954995Y-67804230D01*
X127250573Y-68099808D01*
X127271723Y-68128060D01*
X127284331Y-68151149D01*
X127299500Y-68210578D01*
X127299500Y-71402404D01*
X127294476Y-71437341D01*
X127285136Y-71469148D01*
X127269262Y-71503102D01*
X127190613Y-71620807D01*
X127190603Y-71620824D01*
X127190598Y-71620833D01*
X127130264Y-71766496D01*
X127130257Y-71766527D01*
X127099500Y-71921150D01*
X127099500Y-71921153D01*
X127099500Y-72078846D01*
X127099500Y-72078848D01*
X127099499Y-72078848D01*
X127130257Y-72233471D01*
X127130264Y-72233502D01*
X127190598Y-72379165D01*
X127190603Y-72379174D01*
X127190613Y-72379191D01*
X127278211Y-72510290D01*
X127278212Y-72510291D01*
X127278217Y-72510297D01*
X127389701Y-72621781D01*
X127389707Y-72621786D01*
X127389711Y-72621789D01*
X127520814Y-72709390D01*
X127520827Y-72709397D01*
X127564979Y-72727685D01*
X127608466Y-72745698D01*
X127608468Y-72745698D01*
X127615799Y-72748735D01*
X127666503Y-72769737D01*
X127776987Y-72791713D01*
X127782205Y-72792751D01*
X127783131Y-72793077D01*
X127785259Y-72793655D01*
X127785923Y-72794062D01*
X127815480Y-72804490D01*
X127829337Y-72811738D01*
X127879613Y-72860245D01*
X127883248Y-72866627D01*
X127899500Y-72927997D01*
X127899500Y-94413330D01*
X127899499Y-94413348D01*
X127899499Y-94536961D01*
X127893601Y-94557046D01*
X127899498Y-94579054D01*
X127916835Y-94643757D01*
X127940425Y-94731792D01*
X127948579Y-94745915D01*
X127948584Y-94745922D01*
X127960535Y-94766621D01*
X127960559Y-94766664D01*
X127995944Y-94827952D01*
X128019475Y-94868709D01*
X128019478Y-94868713D01*
X128019480Y-94868716D01*
X128131284Y-94980520D01*
X128631287Y-95480523D01*
X128631969Y-95481014D01*
X128634475Y-95482363D01*
X128768209Y-95559573D01*
X128768216Y-95559577D01*
X128920943Y-95600501D01*
X128920945Y-95600501D01*
X129086654Y-95600501D01*
X129088558Y-95600501D01*
X129088621Y-95600500D01*
X129551112Y-95600500D01*
X129586047Y-95605523D01*
X129605027Y-95611096D01*
X129658574Y-95643199D01*
X129664730Y-95649470D01*
X129681781Y-95671240D01*
X129757288Y-95793656D01*
X129881344Y-95917712D01*
X130030666Y-96009814D01*
X130197203Y-96064999D01*
X130299991Y-96075500D01*
X131700008Y-96075499D01*
X131802797Y-96064999D01*
X131969334Y-96009814D01*
X132118656Y-95917712D01*
X132242712Y-95793656D01*
X132329724Y-95652586D01*
X132333312Y-95647100D01*
X132339296Y-95638458D01*
X132339297Y-95638459D01*
X132353482Y-95617974D01*
X132407829Y-95574070D01*
X132408386Y-95573838D01*
X132417633Y-95569996D01*
X132465222Y-95560500D01*
X133696451Y-95560500D01*
X133731383Y-95565521D01*
X133747764Y-95570331D01*
X133804779Y-95606115D01*
X133813712Y-95615988D01*
X133832242Y-95642880D01*
X133844947Y-95667814D01*
X133844948Y-95667815D01*
X133969890Y-95839786D01*
X133969892Y-95839788D01*
X134071210Y-95941106D01*
X134092361Y-95969359D01*
X134099013Y-95981541D01*
X134113865Y-96049814D01*
X134089449Y-96115279D01*
X134089433Y-96115300D01*
X134086683Y-96118972D01*
X134030766Y-96160822D01*
X133907917Y-96206643D01*
X133907909Y-96206647D01*
X133907906Y-96206648D01*
X133907906Y-96206649D01*
X133898312Y-96213831D01*
X133792813Y-96292808D01*
X133792810Y-96292810D01*
X133792807Y-96292813D01*
X133706648Y-96407907D01*
X133706646Y-96407910D01*
X133656402Y-96542621D01*
X133656400Y-96542628D01*
X133650000Y-96602146D01*
X133650000Y-96602155D01*
X133650000Y-97250000D01*
X134387750Y-97250000D01*
X134454789Y-97269685D01*
X134500544Y-97322489D01*
X134510488Y-97391647D01*
X134507524Y-97406095D01*
X134500000Y-97434171D01*
X134500000Y-97565828D01*
X134507524Y-97593905D01*
X134505863Y-97663755D01*
X134466701Y-97721618D01*
X134402473Y-97749123D01*
X134387750Y-97750000D01*
X133650000Y-97750000D01*
X133650000Y-98397852D01*
X133656400Y-98457370D01*
X133656402Y-98457377D01*
X133664520Y-98479143D01*
X133706645Y-98592086D01*
X133706649Y-98592093D01*
X133749487Y-98649317D01*
X133792807Y-98707185D01*
X133792809Y-98707187D01*
X133792812Y-98707190D01*
X133907906Y-98793350D01*
X133907913Y-98793354D01*
X134042620Y-98843596D01*
X134042627Y-98843598D01*
X134049468Y-98844333D01*
X134102138Y-98849998D01*
X134102155Y-98849999D01*
X134102172Y-98850000D01*
X134750000Y-98850000D01*
X134750000Y-98112250D01*
X134769685Y-98045211D01*
X134822489Y-97999456D01*
X134891647Y-97989512D01*
X134906093Y-97992475D01*
X134934174Y-98000000D01*
X135065825Y-98000000D01*
X135065826Y-98000000D01*
X135093905Y-97992476D01*
X135163755Y-97994137D01*
X135221618Y-98033299D01*
X135249123Y-98097527D01*
X135250000Y-98112250D01*
X135250000Y-98850000D01*
X135897828Y-98850000D01*
X135897836Y-98850000D01*
X135897847Y-98849999D01*
X135933560Y-98846158D01*
X135957372Y-98843598D01*
X135957379Y-98843596D01*
X136092086Y-98793354D01*
X136092093Y-98793350D01*
X136207187Y-98707190D01*
X136207190Y-98707187D01*
X136293350Y-98592093D01*
X136293354Y-98592086D01*
X136343596Y-98457379D01*
X136343598Y-98457372D01*
X136346789Y-98427696D01*
X136349998Y-98397860D01*
X136350000Y-98397827D01*
X136350000Y-97750000D01*
X135612250Y-97750000D01*
X135545211Y-97730315D01*
X135499456Y-97677511D01*
X135489512Y-97608353D01*
X135492476Y-97593905D01*
X135494867Y-97584983D01*
X135500000Y-97565826D01*
X135500000Y-97434174D01*
X135492476Y-97406094D01*
X135494137Y-97336245D01*
X135533299Y-97278382D01*
X135597527Y-97250877D01*
X135612250Y-97250000D01*
X136350000Y-97250000D01*
X136350000Y-96602172D01*
X136349998Y-96602138D01*
X136343598Y-96542628D01*
X136343596Y-96542621D01*
X136342858Y-96540641D01*
X136293354Y-96407913D01*
X136293350Y-96407906D01*
X136207190Y-96292812D01*
X136207187Y-96292809D01*
X136207186Y-96292808D01*
X136207185Y-96292807D01*
X136101692Y-96213835D01*
X136092093Y-96206649D01*
X136092088Y-96206646D01*
X136020607Y-96179985D01*
X135977232Y-96163807D01*
X135946255Y-96146891D01*
X135935145Y-96138574D01*
X135893274Y-96082640D01*
X135888290Y-96012949D01*
X135889266Y-96008462D01*
X135922750Y-95947145D01*
X135969397Y-95900498D01*
X136030104Y-95839792D01*
X136075479Y-95777339D01*
X136155048Y-95667820D01*
X136155047Y-95667820D01*
X136155051Y-95667816D01*
X136155053Y-95667810D01*
X136160784Y-95659923D01*
X136160786Y-95659920D01*
X136160787Y-95659920D01*
X136175446Y-95639743D01*
X136183730Y-95611529D01*
X136251557Y-95478412D01*
X136317246Y-95276243D01*
X136350500Y-95066287D01*
X136350500Y-94853713D01*
X136317246Y-94643757D01*
X136251557Y-94441588D01*
X136155051Y-94252184D01*
X136155049Y-94252181D01*
X136155048Y-94252179D01*
X136154702Y-94251703D01*
X136154700Y-94251699D01*
X136030112Y-94080216D01*
X135879788Y-93929892D01*
X135879786Y-93929890D01*
X135707820Y-93804951D01*
X135650019Y-93775500D01*
X135540245Y-93719567D01*
X135540240Y-93719565D01*
X135518414Y-93708444D01*
X135518413Y-93708443D01*
X135518412Y-93708443D01*
X135416046Y-93675182D01*
X135325074Y-93645623D01*
X135320552Y-93643770D01*
X135311362Y-93641600D01*
X135306599Y-93641226D01*
X135154957Y-93617208D01*
X135135489Y-93614124D01*
X135106290Y-93609500D01*
X135106287Y-93609500D01*
X134893713Y-93609500D01*
X134893709Y-93609500D01*
X134854776Y-93615666D01*
X134845042Y-93617208D01*
X134807654Y-93623129D01*
X134683763Y-93642752D01*
X134481582Y-93708445D01*
X134292182Y-93804949D01*
X134120210Y-93929892D01*
X133969892Y-94080210D01*
X133863783Y-94226260D01*
X133844948Y-94252184D01*
X133844947Y-94252185D01*
X133831737Y-94278110D01*
X133830497Y-94280320D01*
X133828095Y-94282665D01*
X133812521Y-94304758D01*
X133800801Y-94317167D01*
X133743041Y-94351719D01*
X133730195Y-94355195D01*
X133697807Y-94359500D01*
X132424216Y-94359500D01*
X132389277Y-94354476D01*
X132370296Y-94348902D01*
X132316753Y-94316799D01*
X132310599Y-94310531D01*
X132293542Y-94288754D01*
X132289786Y-94282665D01*
X132276336Y-94260858D01*
X132270687Y-94251699D01*
X132242713Y-94206345D01*
X132118657Y-94082289D01*
X132118656Y-94082288D01*
X131969334Y-93990186D01*
X131885530Y-93962416D01*
X131811265Y-93937807D01*
X131808445Y-93936641D01*
X131802792Y-93934999D01*
X131700019Y-93924500D01*
X131700010Y-93924500D01*
X130299998Y-93924500D01*
X130299981Y-93924501D01*
X130285959Y-93925933D01*
X130197198Y-93935000D01*
X130197193Y-93935001D01*
X130197032Y-93935056D01*
X130030667Y-93990185D01*
X130030665Y-93990186D01*
X130030663Y-93990187D01*
X129931115Y-94051588D01*
X129881340Y-94082290D01*
X129757287Y-94206343D01*
X129683840Y-94325422D01*
X129661224Y-94352521D01*
X129646518Y-94365748D01*
X129591078Y-94394469D01*
X129582512Y-94396416D01*
X129555029Y-94399500D01*
X129317928Y-94399500D01*
X129282992Y-94394477D01*
X129257750Y-94387065D01*
X129205005Y-94355769D01*
X129149426Y-94300190D01*
X129128274Y-94271934D01*
X129115667Y-94248845D01*
X129100500Y-94189420D01*
X129100500Y-87881896D01*
X134499500Y-87881896D01*
X134499500Y-88118102D01*
X134523644Y-88270539D01*
X134536446Y-88351368D01*
X134609433Y-88575996D01*
X134668939Y-88692782D01*
X134711578Y-88776466D01*
X134716655Y-88786430D01*
X134716657Y-88786433D01*
X134855483Y-88977510D01*
X135022490Y-89144517D01*
X135213567Y-89283343D01*
X135312991Y-89334002D01*
X135424003Y-89390566D01*
X135424876Y-89391011D01*
X135428630Y-89392070D01*
X135476335Y-89407569D01*
X135544410Y-89429688D01*
X135544411Y-89429689D01*
X135544412Y-89429689D01*
X135648631Y-89463553D01*
X135881903Y-89500500D01*
X135881908Y-89500500D01*
X136118096Y-89500500D01*
X136118097Y-89500500D01*
X136351368Y-89463553D01*
X136575992Y-89390568D01*
X136786433Y-89283343D01*
X136977510Y-89144517D01*
X137144517Y-88977510D01*
X137283343Y-88786433D01*
X137390568Y-88575992D01*
X137463553Y-88351368D01*
X137469625Y-88313030D01*
X137500500Y-88118097D01*
X137500500Y-87881902D01*
X137463553Y-87648631D01*
X137418946Y-87511346D01*
X137418085Y-87508697D01*
X137392070Y-87428630D01*
X137391009Y-87424867D01*
X137390006Y-87422849D01*
X137388212Y-87419146D01*
X137387282Y-87417556D01*
X137325306Y-87295925D01*
X137325305Y-87295923D01*
X137323846Y-87293059D01*
X137283343Y-87213567D01*
X137144517Y-87022490D01*
X136977510Y-86855483D01*
X136786433Y-86716657D01*
X136733062Y-86689463D01*
X136575996Y-86609433D01*
X136351368Y-86536446D01*
X136351362Y-86536445D01*
X136118102Y-86499500D01*
X136118097Y-86499500D01*
X136118092Y-86499500D01*
X135881908Y-86499500D01*
X135881903Y-86499500D01*
X135881898Y-86499500D01*
X135648636Y-86536445D01*
X135648634Y-86536445D01*
X135648631Y-86536446D01*
X135424003Y-86609433D01*
X135350359Y-86646957D01*
X135213573Y-86716653D01*
X135213560Y-86716661D01*
X135117800Y-86786234D01*
X135117801Y-86786235D01*
X135034361Y-86846858D01*
X135026980Y-86850991D01*
X134850990Y-87026981D01*
X134846858Y-87034360D01*
X134716661Y-87213560D01*
X134716657Y-87213566D01*
X134716655Y-87213568D01*
X134716653Y-87213573D01*
X134675061Y-87295202D01*
X134609433Y-87424003D01*
X134536446Y-87648631D01*
X134536446Y-87648633D01*
X134536445Y-87648636D01*
X134499500Y-87881896D01*
X129100500Y-87881896D01*
X129100500Y-83404384D01*
X129105522Y-83369451D01*
X129109433Y-83356132D01*
X129147206Y-83297355D01*
X129210758Y-83268330D01*
X129216560Y-83267496D01*
X129267082Y-83270674D01*
X129286426Y-83275994D01*
X129289392Y-83275337D01*
X129305205Y-83277435D01*
X129413517Y-83298980D01*
X129416249Y-83299704D01*
X129421155Y-83300500D01*
X129578844Y-83300500D01*
X129582964Y-83300500D01*
X129590814Y-83298118D01*
X129733497Y-83269737D01*
X129879179Y-83209394D01*
X130010289Y-83121789D01*
X130121789Y-83010289D01*
X130209394Y-82879179D01*
X130269737Y-82733497D01*
X130269838Y-82732993D01*
X130273770Y-82713220D01*
X130277750Y-82693216D01*
X130290983Y-82626687D01*
X130300500Y-82578842D01*
X130300500Y-82421158D01*
X130300500Y-82421155D01*
X130300500Y-82420973D01*
X130300065Y-82418972D01*
X130299148Y-82414361D01*
X130270395Y-82269815D01*
X130269983Y-82267403D01*
X130269737Y-82266504D01*
X130248209Y-82214529D01*
X130209397Y-82120827D01*
X130209390Y-82120814D01*
X130208220Y-82119063D01*
X130131304Y-82003949D01*
X130116071Y-81972111D01*
X130106165Y-81940474D01*
X130100500Y-81903422D01*
X130100500Y-79893708D01*
X133649500Y-79893708D01*
X133649500Y-80106286D01*
X133682754Y-80316244D01*
X133682754Y-80316247D01*
X133746592Y-80512718D01*
X133748441Y-80518406D01*
X133748444Y-80518414D01*
X133844951Y-80707820D01*
X133969890Y-80879786D01*
X133969891Y-80879787D01*
X133969892Y-80879788D01*
X134071210Y-80981106D01*
X134092360Y-81009358D01*
X134092872Y-81010296D01*
X134099013Y-81021541D01*
X134113865Y-81089814D01*
X134089449Y-81155279D01*
X134089433Y-81155300D01*
X134086683Y-81158972D01*
X134030766Y-81200822D01*
X133907917Y-81246643D01*
X133907909Y-81246647D01*
X133907906Y-81246648D01*
X133907906Y-81246649D01*
X133877472Y-81269432D01*
X133792813Y-81332808D01*
X133792810Y-81332810D01*
X133792807Y-81332813D01*
X133706648Y-81447907D01*
X133706646Y-81447910D01*
X133656402Y-81582621D01*
X133656400Y-81582628D01*
X133650000Y-81642146D01*
X133650000Y-81642155D01*
X133650000Y-82290000D01*
X134387750Y-82290000D01*
X134454789Y-82309685D01*
X134500544Y-82362489D01*
X134510488Y-82431647D01*
X134507524Y-82446095D01*
X134500000Y-82474171D01*
X134500000Y-82605828D01*
X134507524Y-82633905D01*
X134505863Y-82703755D01*
X134466701Y-82761618D01*
X134402473Y-82789123D01*
X134387750Y-82790000D01*
X133650000Y-82790000D01*
X133650000Y-83437852D01*
X133656400Y-83497370D01*
X133656402Y-83497377D01*
X133668782Y-83530570D01*
X133706645Y-83632086D01*
X133706649Y-83632093D01*
X133742537Y-83680033D01*
X133792807Y-83747185D01*
X133792809Y-83747187D01*
X133792812Y-83747190D01*
X133907906Y-83833350D01*
X133907913Y-83833354D01*
X134042620Y-83883596D01*
X134042627Y-83883598D01*
X134045687Y-83883927D01*
X134102138Y-83889998D01*
X134102155Y-83889999D01*
X134102172Y-83890000D01*
X134750000Y-83890000D01*
X134750000Y-83152250D01*
X134769685Y-83085211D01*
X134822489Y-83039456D01*
X134891647Y-83029512D01*
X134906093Y-83032475D01*
X134934174Y-83040000D01*
X135065825Y-83040000D01*
X135065826Y-83040000D01*
X135093905Y-83032476D01*
X135163755Y-83034137D01*
X135221618Y-83073299D01*
X135249123Y-83137527D01*
X135250000Y-83152250D01*
X135250000Y-83890000D01*
X135897828Y-83890000D01*
X135897836Y-83890000D01*
X135897847Y-83889999D01*
X135933560Y-83886158D01*
X135957372Y-83883598D01*
X135957379Y-83883596D01*
X136092086Y-83833354D01*
X136092093Y-83833350D01*
X136207187Y-83747190D01*
X136207190Y-83747187D01*
X136293350Y-83632093D01*
X136293354Y-83632086D01*
X136343596Y-83497379D01*
X136343598Y-83497372D01*
X136348339Y-83453282D01*
X136349998Y-83437860D01*
X136350000Y-83437827D01*
X136350000Y-82790000D01*
X135612250Y-82790000D01*
X135545211Y-82770315D01*
X135499456Y-82717511D01*
X135489512Y-82648353D01*
X135492476Y-82633905D01*
X135493179Y-82631282D01*
X135500000Y-82605826D01*
X135500000Y-82474174D01*
X135492476Y-82446094D01*
X135494137Y-82376245D01*
X135533299Y-82318382D01*
X135597527Y-82290877D01*
X135612250Y-82290000D01*
X136350000Y-82290000D01*
X136350000Y-81642172D01*
X136349998Y-81642138D01*
X136343598Y-81582628D01*
X136343596Y-81582621D01*
X136341997Y-81578333D01*
X136293354Y-81447913D01*
X136293350Y-81447906D01*
X136215351Y-81343714D01*
X136207191Y-81332813D01*
X136207185Y-81332807D01*
X136149640Y-81289729D01*
X136092093Y-81246649D01*
X136092088Y-81246646D01*
X136020607Y-81219985D01*
X135977232Y-81203807D01*
X135946255Y-81186891D01*
X135935145Y-81178574D01*
X135893274Y-81122640D01*
X135888290Y-81052950D01*
X135889265Y-81048468D01*
X135922750Y-80987145D01*
X136030104Y-80879792D01*
X136038151Y-80868717D01*
X136044450Y-80860047D01*
X136153381Y-80710115D01*
X136155048Y-80707820D01*
X136155049Y-80707817D01*
X136155051Y-80707816D01*
X136251557Y-80518412D01*
X136317246Y-80316243D01*
X136350500Y-80106287D01*
X136350500Y-79893713D01*
X136317246Y-79683757D01*
X136251557Y-79481588D01*
X136155051Y-79292184D01*
X136155049Y-79292181D01*
X136155048Y-79292179D01*
X136154702Y-79291703D01*
X136154700Y-79291699D01*
X136030112Y-79120216D01*
X135879788Y-78969892D01*
X135879786Y-78969890D01*
X135707820Y-78844951D01*
X135619571Y-78799986D01*
X135540245Y-78759567D01*
X135540240Y-78759565D01*
X135518414Y-78748444D01*
X135518413Y-78748443D01*
X135518412Y-78748443D01*
X135399183Y-78709703D01*
X135325074Y-78685623D01*
X135320552Y-78683770D01*
X135311362Y-78681600D01*
X135306599Y-78681226D01*
X135148652Y-78656210D01*
X135106287Y-78649500D01*
X135106286Y-78649500D01*
X134893714Y-78649500D01*
X134893713Y-78649500D01*
X134851348Y-78656210D01*
X134683758Y-78682753D01*
X134582671Y-78715598D01*
X134527615Y-78733488D01*
X134527611Y-78733489D01*
X134481590Y-78748441D01*
X134481584Y-78748443D01*
X134292182Y-78844949D01*
X134292179Y-78844950D01*
X134292179Y-78844951D01*
X134212707Y-78902690D01*
X134120210Y-78969892D01*
X133969892Y-79120210D01*
X133937812Y-79164365D01*
X133852509Y-79281777D01*
X133844949Y-79292182D01*
X133748445Y-79481582D01*
X133682752Y-79683763D01*
X133663833Y-79803216D01*
X133663833Y-79803217D01*
X133649500Y-79893708D01*
X130100500Y-79893708D01*
X130100500Y-75831486D01*
X146999500Y-75831486D01*
X146999500Y-86168510D01*
X147037231Y-86503382D01*
X147037231Y-86503389D01*
X147044776Y-86536445D01*
X147109608Y-86820498D01*
X147112223Y-86831952D01*
X147112227Y-86831968D01*
X147112234Y-86831989D01*
X147223529Y-87150047D01*
X147223535Y-87150061D01*
X147369752Y-87453684D01*
X147369753Y-87453685D01*
X147390444Y-87486616D01*
X147390445Y-87486616D01*
X147549054Y-87739039D01*
X147619785Y-87827733D01*
X147710796Y-87941858D01*
X147711138Y-87942287D01*
X147754313Y-87996427D01*
X147759175Y-88002523D01*
X147997477Y-88240825D01*
X148260961Y-88450946D01*
X148546314Y-88630246D01*
X148546316Y-88630247D01*
X148546326Y-88630251D01*
X148546334Y-88630256D01*
X148647525Y-88678987D01*
X148849942Y-88776466D01*
X148849944Y-88776466D01*
X148849949Y-88776469D01*
X148917743Y-88800191D01*
X148992188Y-88826241D01*
X148992198Y-88826244D01*
X149168009Y-88887764D01*
X149168030Y-88887771D01*
X149168034Y-88887772D01*
X149168046Y-88887776D01*
X149496606Y-88962767D01*
X149496611Y-88962767D01*
X149496613Y-88962768D01*
X149496612Y-88962768D01*
X149605347Y-88975019D01*
X149814095Y-88998538D01*
X149821698Y-89000500D01*
X150168507Y-89000500D01*
X150194005Y-89000500D01*
X150199139Y-88997696D01*
X150211608Y-88995642D01*
X150445768Y-88969259D01*
X150503387Y-88962768D01*
X150503388Y-88962767D01*
X150503394Y-88962767D01*
X150831954Y-88887776D01*
X151150051Y-88776469D01*
X151150056Y-88776466D01*
X151150058Y-88776466D01*
X151309042Y-88699903D01*
X151453686Y-88630246D01*
X151739039Y-88450946D01*
X152002523Y-88240825D01*
X152240825Y-88002523D01*
X152450946Y-87739039D01*
X152630246Y-87453686D01*
X152776469Y-87150051D01*
X152887776Y-86831954D01*
X152962767Y-86503394D01*
X153000500Y-86168504D01*
X153000500Y-86000000D01*
X153000500Y-85934108D01*
X153000500Y-75934108D01*
X153000500Y-75831496D01*
X152962767Y-75496606D01*
X152887776Y-75168046D01*
X152887770Y-75168030D01*
X152860063Y-75088848D01*
X152776469Y-74849949D01*
X152670949Y-74630834D01*
X152630247Y-74546316D01*
X152625457Y-74538693D01*
X152450946Y-74260961D01*
X152240825Y-73997477D01*
X152002523Y-73759175D01*
X151977126Y-73738922D01*
X151863911Y-73648636D01*
X151739039Y-73549054D01*
X151493535Y-73394793D01*
X151493535Y-73394792D01*
X151493532Y-73394791D01*
X151467155Y-73378217D01*
X151453689Y-73369755D01*
X151453679Y-73369750D01*
X151150061Y-73223535D01*
X151150047Y-73223529D01*
X150831989Y-73112234D01*
X150831968Y-73112227D01*
X150831956Y-73112224D01*
X150831953Y-73112223D01*
X150687010Y-73079141D01*
X150503391Y-73037231D01*
X150168512Y-72999500D01*
X150168508Y-72999500D01*
X150168504Y-72999500D01*
X149831496Y-72999500D01*
X149831491Y-72999500D01*
X149831486Y-72999500D01*
X149496607Y-73037231D01*
X149168046Y-73112223D01*
X149168030Y-73112227D01*
X149168009Y-73112234D01*
X148849951Y-73223529D01*
X148849937Y-73223535D01*
X148546318Y-73369750D01*
X148260959Y-73549054D01*
X148260957Y-73549055D01*
X147997483Y-73759167D01*
X147759167Y-73997483D01*
X147549055Y-74260957D01*
X147549054Y-74260959D01*
X147369750Y-74546318D01*
X147223535Y-74849937D01*
X147223529Y-74849951D01*
X147112234Y-75168009D01*
X147112227Y-75168030D01*
X147112223Y-75168046D01*
X147037231Y-75496607D01*
X146999500Y-75831486D01*
X130100500Y-75831486D01*
X130100500Y-74597594D01*
X130105522Y-74562661D01*
X130105968Y-74561142D01*
X130114864Y-74530845D01*
X130130733Y-74496902D01*
X130206450Y-74383584D01*
X130208468Y-74380827D01*
X130209978Y-74378426D01*
X130211710Y-74373585D01*
X130269737Y-74233497D01*
X130300500Y-74078842D01*
X130300500Y-73921158D01*
X130300500Y-73921155D01*
X130296536Y-73901228D01*
X130296536Y-73901227D01*
X130292691Y-73881896D01*
X134499500Y-73881896D01*
X134499500Y-74118102D01*
X134528340Y-74300191D01*
X134536446Y-74351368D01*
X134609433Y-74575996D01*
X134609434Y-74575997D01*
X134609435Y-74576001D01*
X134637374Y-74630832D01*
X134637374Y-74630834D01*
X134637375Y-74630834D01*
X134716657Y-74786433D01*
X134855483Y-74977510D01*
X135022490Y-75144517D01*
X135213567Y-75283343D01*
X135267068Y-75310603D01*
X135417560Y-75387283D01*
X135424875Y-75391011D01*
X135428630Y-75392070D01*
X135518154Y-75421158D01*
X135648631Y-75463553D01*
X135881903Y-75500500D01*
X135881908Y-75500500D01*
X136118096Y-75500500D01*
X136118097Y-75500500D01*
X136351368Y-75463553D01*
X136392264Y-75450265D01*
X136575992Y-75390568D01*
X136786433Y-75283343D01*
X136977510Y-75144517D01*
X137144517Y-74977510D01*
X137283343Y-74786433D01*
X137390568Y-74575992D01*
X137463553Y-74351368D01*
X137500500Y-74118097D01*
X137500500Y-73881902D01*
X137463553Y-73648631D01*
X137437099Y-73567216D01*
X137429521Y-73543892D01*
X137393180Y-73432046D01*
X137393178Y-73432041D01*
X137390568Y-73424008D01*
X137390566Y-73424005D01*
X137390566Y-73424003D01*
X137388327Y-73419609D01*
X137388017Y-73418814D01*
X137387283Y-73417560D01*
X137296834Y-73240045D01*
X137283343Y-73213567D01*
X137144517Y-73022490D01*
X136977510Y-72855483D01*
X136786433Y-72716657D01*
X136778108Y-72712415D01*
X136778107Y-72712414D01*
X136712437Y-72678953D01*
X136575996Y-72609433D01*
X136351368Y-72536446D01*
X136351362Y-72536445D01*
X136118102Y-72499500D01*
X136118097Y-72499500D01*
X136118092Y-72499500D01*
X135881908Y-72499500D01*
X135881903Y-72499500D01*
X135881898Y-72499500D01*
X135648636Y-72536445D01*
X135648634Y-72536445D01*
X135648631Y-72536446D01*
X135424003Y-72609433D01*
X135345882Y-72649238D01*
X135213565Y-72716657D01*
X135173595Y-72745698D01*
X135140509Y-72769737D01*
X135034360Y-72846858D01*
X135026981Y-72850990D01*
X134850989Y-73026982D01*
X134846858Y-73034359D01*
X134723678Y-73203902D01*
X134716657Y-73213566D01*
X134716655Y-73213568D01*
X134716653Y-73213573D01*
X134684643Y-73276397D01*
X134609433Y-73424003D01*
X134536446Y-73648631D01*
X134536446Y-73648633D01*
X134536445Y-73648636D01*
X134499500Y-73881896D01*
X130292691Y-73881896D01*
X130270394Y-73769809D01*
X130269983Y-73767402D01*
X130269738Y-73766508D01*
X130269737Y-73766506D01*
X130269737Y-73766503D01*
X130258224Y-73738708D01*
X130258222Y-73738704D01*
X130239340Y-73693118D01*
X130209397Y-73620827D01*
X130209390Y-73620814D01*
X130121789Y-73489711D01*
X130121786Y-73489707D01*
X130121781Y-73489701D01*
X130010297Y-73378217D01*
X130010291Y-73378212D01*
X130010290Y-73378211D01*
X129879191Y-73290613D01*
X129879190Y-73290612D01*
X129879185Y-73290609D01*
X129879172Y-73290602D01*
X129879165Y-73290598D01*
X129733502Y-73230264D01*
X129733471Y-73230257D01*
X129578847Y-73199500D01*
X129578845Y-73199500D01*
X129578842Y-73199500D01*
X129421158Y-73199500D01*
X129421155Y-73199500D01*
X129421150Y-73199500D01*
X129288645Y-73225857D01*
X129277276Y-73227575D01*
X129240013Y-73231449D01*
X129171298Y-73218803D01*
X129120328Y-73171013D01*
X129117635Y-73166438D01*
X129100500Y-73103542D01*
X129100500Y-64822329D01*
X129105523Y-64787393D01*
X129109927Y-64772395D01*
X129147672Y-64713644D01*
X129149041Y-64712457D01*
X129203920Y-64684977D01*
X129211479Y-64683333D01*
X129237832Y-64680500D01*
X133696451Y-64680500D01*
X133731383Y-64685521D01*
X133747764Y-64690331D01*
X133804779Y-64726115D01*
X133813712Y-64735988D01*
X133832242Y-64762880D01*
X133844947Y-64787814D01*
X133844948Y-64787815D01*
X133969890Y-64959786D01*
X133969892Y-64959788D01*
X134071210Y-65061106D01*
X134092361Y-65089359D01*
X134099013Y-65101541D01*
X134113865Y-65169814D01*
X134089449Y-65235279D01*
X134089433Y-65235300D01*
X134086683Y-65238972D01*
X134030766Y-65280822D01*
X133907917Y-65326643D01*
X133907909Y-65326647D01*
X133907906Y-65326648D01*
X133907906Y-65326649D01*
X133893139Y-65337704D01*
X133792813Y-65412808D01*
X133792810Y-65412810D01*
X133792807Y-65412813D01*
X133706648Y-65527907D01*
X133706646Y-65527910D01*
X133656402Y-65662621D01*
X133656400Y-65662628D01*
X133650000Y-65722146D01*
X133650000Y-65722155D01*
X133650000Y-66370000D01*
X134387750Y-66370000D01*
X134454789Y-66389685D01*
X134500544Y-66442489D01*
X134510488Y-66511647D01*
X134507524Y-66526095D01*
X134500000Y-66554171D01*
X134500000Y-66685828D01*
X134506351Y-66709528D01*
X134507416Y-66713504D01*
X134507524Y-66713905D01*
X134505863Y-66783755D01*
X134466701Y-66841618D01*
X134402473Y-66869123D01*
X134387750Y-66870000D01*
X133650000Y-66870000D01*
X133650000Y-67517852D01*
X133656400Y-67577370D01*
X133656402Y-67577377D01*
X133706646Y-67712088D01*
X133706648Y-67712091D01*
X133792807Y-67827185D01*
X133792813Y-67827191D01*
X133821747Y-67848850D01*
X133907906Y-67913350D01*
X133907913Y-67913354D01*
X134042620Y-67963596D01*
X134042627Y-67963598D01*
X134049468Y-67964333D01*
X134102138Y-67969998D01*
X134102155Y-67969999D01*
X134102172Y-67970000D01*
X134750000Y-67970000D01*
X134750000Y-67232250D01*
X134769685Y-67165211D01*
X134822489Y-67119456D01*
X134891647Y-67109512D01*
X134906093Y-67112475D01*
X134934174Y-67120000D01*
X135065825Y-67120000D01*
X135065826Y-67120000D01*
X135093905Y-67112476D01*
X135163755Y-67114137D01*
X135221618Y-67153299D01*
X135249123Y-67217527D01*
X135250000Y-67232250D01*
X135250000Y-67970000D01*
X135897828Y-67970000D01*
X135897836Y-67970000D01*
X135897847Y-67969999D01*
X135933560Y-67966158D01*
X135957372Y-67963598D01*
X135957379Y-67963596D01*
X136092086Y-67913354D01*
X136092093Y-67913350D01*
X136207187Y-67827190D01*
X136207190Y-67827187D01*
X136293350Y-67712093D01*
X136293354Y-67712086D01*
X136343596Y-67577379D01*
X136343598Y-67577372D01*
X136345069Y-67563689D01*
X136349998Y-67517860D01*
X136350000Y-67517827D01*
X136350000Y-66870000D01*
X135612250Y-66870000D01*
X135545211Y-66850315D01*
X135499456Y-66797511D01*
X135489512Y-66728353D01*
X135492476Y-66713905D01*
X135492583Y-66713507D01*
X135500000Y-66685826D01*
X135500000Y-66554174D01*
X135492476Y-66526094D01*
X135494137Y-66456245D01*
X135533299Y-66398382D01*
X135597527Y-66370877D01*
X135612250Y-66370000D01*
X136350000Y-66370000D01*
X136350000Y-65722172D01*
X136349998Y-65722138D01*
X136343598Y-65662628D01*
X136343596Y-65662621D01*
X136337511Y-65646305D01*
X136293354Y-65527913D01*
X136293350Y-65527906D01*
X136207190Y-65412812D01*
X136207187Y-65412809D01*
X136207186Y-65412808D01*
X136207185Y-65412807D01*
X136106867Y-65337709D01*
X136092093Y-65326649D01*
X136092088Y-65326646D01*
X136001217Y-65292753D01*
X135977232Y-65283807D01*
X135946255Y-65266891D01*
X135935145Y-65258574D01*
X135893274Y-65202640D01*
X135888290Y-65132950D01*
X135889265Y-65128468D01*
X135922750Y-65067145D01*
X136030104Y-64959792D01*
X136155051Y-64787816D01*
X136251557Y-64598412D01*
X136317246Y-64396243D01*
X136350500Y-64186287D01*
X136350500Y-63973713D01*
X136317246Y-63763757D01*
X136251557Y-63561588D01*
X136155051Y-63372184D01*
X136155049Y-63372181D01*
X136155048Y-63372179D01*
X136154702Y-63371703D01*
X136154700Y-63371699D01*
X136030112Y-63200216D01*
X135879782Y-63049886D01*
X135707824Y-62924953D01*
X135707258Y-62924606D01*
X135705627Y-62923357D01*
X135703901Y-62922103D01*
X135703932Y-62922059D01*
X135686960Y-62909062D01*
X135676683Y-62899357D01*
X135641457Y-62839017D01*
X135644445Y-62769212D01*
X135680612Y-62715495D01*
X135687783Y-62709281D01*
X135704194Y-62697269D01*
X135707792Y-62695063D01*
X135707816Y-62695051D01*
X135766799Y-62652198D01*
X135879786Y-62570109D01*
X135879788Y-62570106D01*
X135879792Y-62570104D01*
X135879794Y-62570101D01*
X135879845Y-62570065D01*
X135880592Y-62569303D01*
X136030104Y-62419792D01*
X136030106Y-62419788D01*
X136030109Y-62419786D01*
X136155048Y-62247820D01*
X136155047Y-62247820D01*
X136155051Y-62247816D01*
X136155053Y-62247810D01*
X136175445Y-62219744D01*
X136183730Y-62191529D01*
X136251557Y-62058412D01*
X136317246Y-61856243D01*
X136350500Y-61646287D01*
X136350500Y-61433713D01*
X136317246Y-61223757D01*
X136251557Y-61021588D01*
X136155051Y-60832184D01*
X136155049Y-60832181D01*
X136155048Y-60832179D01*
X136154702Y-60831703D01*
X136154700Y-60831699D01*
X136030112Y-60660216D01*
X135879782Y-60509886D01*
X135707824Y-60384953D01*
X135707258Y-60384606D01*
X135705627Y-60383357D01*
X135703901Y-60382103D01*
X135703932Y-60382059D01*
X135686960Y-60369062D01*
X135676683Y-60359357D01*
X135641457Y-60299017D01*
X135644445Y-60229212D01*
X135680612Y-60175495D01*
X135687783Y-60169281D01*
X135704194Y-60157269D01*
X135707797Y-60155060D01*
X135707816Y-60155051D01*
X135754940Y-60120814D01*
X135879786Y-60030109D01*
X135879788Y-60030106D01*
X135879792Y-60030104D01*
X135879796Y-60030099D01*
X135879848Y-60030062D01*
X135880592Y-60029303D01*
X136030104Y-59879792D01*
X136030106Y-59879788D01*
X136030109Y-59879786D01*
X136155048Y-59707820D01*
X136155047Y-59707820D01*
X136155051Y-59707816D01*
X136155053Y-59707810D01*
X136175445Y-59679744D01*
X136183730Y-59651529D01*
X136251557Y-59518412D01*
X136317246Y-59316243D01*
X136350500Y-59106287D01*
X136350500Y-58893713D01*
X136317246Y-58683757D01*
X136251557Y-58481588D01*
X136155051Y-58292184D01*
X136155049Y-58292181D01*
X136155048Y-58292179D01*
X136154702Y-58291703D01*
X136154700Y-58291699D01*
X136030112Y-58120216D01*
X135879782Y-57969886D01*
X135707824Y-57844953D01*
X135707258Y-57844606D01*
X135705627Y-57843357D01*
X135703901Y-57842103D01*
X135703932Y-57842059D01*
X135686960Y-57829062D01*
X135676683Y-57819357D01*
X135641457Y-57759017D01*
X135644445Y-57689212D01*
X135680612Y-57635495D01*
X135687783Y-57629281D01*
X135704194Y-57617269D01*
X135707792Y-57615063D01*
X135707816Y-57615051D01*
X135748226Y-57585692D01*
X135766537Y-57572389D01*
X135810468Y-57540470D01*
X135879786Y-57490109D01*
X135879788Y-57490106D01*
X135879792Y-57490104D01*
X135879800Y-57490095D01*
X135879852Y-57490058D01*
X135880593Y-57489302D01*
X136030104Y-57339792D01*
X136030106Y-57339788D01*
X136030109Y-57339786D01*
X136155048Y-57167820D01*
X136155047Y-57167820D01*
X136155051Y-57167816D01*
X136155053Y-57167810D01*
X136175445Y-57139744D01*
X136183730Y-57111529D01*
X136251557Y-56978412D01*
X136317246Y-56776243D01*
X136350500Y-56566287D01*
X136350500Y-56353713D01*
X136317246Y-56143757D01*
X136251557Y-55941588D01*
X136155051Y-55752184D01*
X136155049Y-55752181D01*
X136155048Y-55752179D01*
X136154702Y-55751703D01*
X136154700Y-55751699D01*
X136030112Y-55580216D01*
X135879788Y-55429892D01*
X135879786Y-55429890D01*
X135707820Y-55304951D01*
X135694167Y-55297994D01*
X135540245Y-55219567D01*
X135540240Y-55219565D01*
X135518414Y-55208444D01*
X135518413Y-55208443D01*
X135518412Y-55208443D01*
X135421496Y-55176953D01*
X135325074Y-55145623D01*
X135320552Y-55143770D01*
X135311362Y-55141600D01*
X135306599Y-55141226D01*
X135154957Y-55117208D01*
X135135489Y-55114124D01*
X135106290Y-55109500D01*
X135106287Y-55109500D01*
X134893713Y-55109500D01*
X134893709Y-55109500D01*
X134854776Y-55115666D01*
X134845042Y-55117208D01*
X134807654Y-55123129D01*
X134683763Y-55142752D01*
X134481582Y-55208445D01*
X134292182Y-55304949D01*
X134292179Y-55304950D01*
X134292179Y-55304951D01*
X134206196Y-55367420D01*
X134120210Y-55429892D01*
X133969892Y-55580210D01*
X133969890Y-55580213D01*
X133879528Y-55704588D01*
X133844949Y-55752182D01*
X133748445Y-55941580D01*
X133682752Y-56143759D01*
X133649500Y-56353707D01*
X133649500Y-56566291D01*
X133682285Y-56773291D01*
X133682286Y-56773291D01*
X133682289Y-56773312D01*
X133682525Y-56774800D01*
X133682754Y-56776245D01*
X133748140Y-56977481D01*
X133748150Y-56977511D01*
X133748444Y-56978414D01*
X133844951Y-57167820D01*
X133969890Y-57339786D01*
X134120213Y-57490109D01*
X134292182Y-57615050D01*
X134292190Y-57615054D01*
X134292693Y-57615363D01*
X134294174Y-57616496D01*
X134296122Y-57617912D01*
X134296086Y-57617960D01*
X134313034Y-57630934D01*
X134323315Y-57640643D01*
X134358541Y-57700983D01*
X134355552Y-57770789D01*
X134319383Y-57824507D01*
X134312227Y-57830708D01*
X134295814Y-57842723D01*
X134292190Y-57844943D01*
X134120210Y-57969892D01*
X133969892Y-58120210D01*
X133964968Y-58126988D01*
X133863229Y-58267022D01*
X133844949Y-58292182D01*
X133748445Y-58481580D01*
X133682752Y-58683759D01*
X133649500Y-58893707D01*
X133649500Y-59106291D01*
X133682285Y-59313291D01*
X133682286Y-59313291D01*
X133682289Y-59313312D01*
X133682753Y-59316239D01*
X133682754Y-59316243D01*
X133682755Y-59316246D01*
X133737005Y-59483212D01*
X133748442Y-59518410D01*
X133748443Y-59518412D01*
X133836430Y-59691098D01*
X133844951Y-59707820D01*
X133969890Y-59879786D01*
X134120213Y-60030109D01*
X134292182Y-60155050D01*
X134292190Y-60155054D01*
X134292693Y-60155363D01*
X134294174Y-60156496D01*
X134296122Y-60157912D01*
X134296086Y-60157960D01*
X134313034Y-60170934D01*
X134323315Y-60180643D01*
X134358541Y-60240983D01*
X134355552Y-60310789D01*
X134319383Y-60364507D01*
X134312227Y-60370708D01*
X134295814Y-60382723D01*
X134292190Y-60384943D01*
X134120210Y-60509892D01*
X133969892Y-60660210D01*
X133930117Y-60714956D01*
X133862267Y-60808346D01*
X133844949Y-60832182D01*
X133748445Y-61021580D01*
X133682752Y-61223759D01*
X133649500Y-61433707D01*
X133649500Y-61646291D01*
X133682752Y-61856239D01*
X133748445Y-62058418D01*
X133841532Y-62241111D01*
X133844951Y-62247820D01*
X133969890Y-62419786D01*
X134120213Y-62570109D01*
X134292182Y-62695050D01*
X134292190Y-62695054D01*
X134292693Y-62695363D01*
X134294174Y-62696496D01*
X134296122Y-62697912D01*
X134296086Y-62697960D01*
X134313034Y-62710934D01*
X134323315Y-62720643D01*
X134358541Y-62780983D01*
X134355552Y-62850789D01*
X134319383Y-62904507D01*
X134312227Y-62910708D01*
X134295814Y-62922723D01*
X134292190Y-62924943D01*
X134120210Y-63049892D01*
X133969892Y-63200210D01*
X133849466Y-63365964D01*
X133849462Y-63365969D01*
X133844948Y-63372184D01*
X133844947Y-63372185D01*
X133831938Y-63397716D01*
X133830930Y-63399543D01*
X133828829Y-63401623D01*
X133812521Y-63424758D01*
X133800801Y-63437167D01*
X133743041Y-63471719D01*
X133730195Y-63475195D01*
X133697807Y-63479500D01*
X129397927Y-63479500D01*
X129362991Y-63474477D01*
X129337749Y-63467065D01*
X129285004Y-63435769D01*
X129149426Y-63300191D01*
X129128274Y-63271935D01*
X129115667Y-63248846D01*
X129100500Y-63189421D01*
X129100500Y-61097594D01*
X129105522Y-61062661D01*
X129106444Y-61059522D01*
X129114864Y-61030845D01*
X129130733Y-60996902D01*
X129206450Y-60883584D01*
X129208468Y-60880827D01*
X129209978Y-60878426D01*
X129211710Y-60873585D01*
X129269737Y-60733497D01*
X129300500Y-60578842D01*
X129300500Y-60421158D01*
X129300500Y-60421155D01*
X129300500Y-60420971D01*
X129300064Y-60418966D01*
X129293298Y-60384951D01*
X129269739Y-60266510D01*
X129269736Y-60266501D01*
X129241593Y-60198556D01*
X129209397Y-60120827D01*
X129209390Y-60120814D01*
X129121789Y-59989711D01*
X129121786Y-59989707D01*
X129121781Y-59989701D01*
X129010297Y-59878217D01*
X129010291Y-59878212D01*
X129010290Y-59878211D01*
X128879191Y-59790613D01*
X128879190Y-59790612D01*
X128879185Y-59790609D01*
X128879172Y-59790602D01*
X128879165Y-59790598D01*
X128733523Y-59730272D01*
X128733509Y-59730267D01*
X128733501Y-59730264D01*
X128733491Y-59730261D01*
X128733486Y-59730260D01*
X128733483Y-59730259D01*
X128595636Y-59702839D01*
X128562354Y-59691098D01*
X128532980Y-59675733D01*
X128502773Y-59653538D01*
X128031928Y-59182693D01*
X128031919Y-59182683D01*
X128027588Y-59178352D01*
X127908717Y-59059481D01*
X127908716Y-59059480D01*
X127840714Y-59020220D01*
X127838653Y-59018920D01*
X127834489Y-59014197D01*
X127829430Y-59009798D01*
X127806842Y-59000663D01*
X127771786Y-58980423D01*
X127733603Y-58970192D01*
X127619057Y-58939499D01*
X127619054Y-58939499D01*
X127451443Y-58939499D01*
X127451380Y-58939500D01*
X126549522Y-58939500D01*
X126514587Y-58934477D01*
X126493765Y-58928363D01*
X126442760Y-58898774D01*
X126438819Y-58894985D01*
X126423184Y-58876720D01*
X126300859Y-58702021D01*
X126300160Y-58700999D01*
X126300040Y-58700852D01*
X126139143Y-58539955D01*
X125952739Y-58409435D01*
X125952736Y-58409433D01*
X125952734Y-58409432D01*
X125952728Y-58409429D01*
X125910882Y-58389916D01*
X125881348Y-58370604D01*
X125875330Y-58365305D01*
X125872614Y-58362914D01*
X125835307Y-58303839D01*
X125835860Y-58233972D01*
X125873354Y-58176135D01*
X125881638Y-58168957D01*
X125910427Y-58150296D01*
X125910886Y-58150082D01*
X125952734Y-58130568D01*
X126139139Y-58000047D01*
X126300047Y-57839139D01*
X126430568Y-57652734D01*
X126526739Y-57446496D01*
X126585635Y-57226692D01*
X126600500Y-57056784D01*
X126600500Y-56943216D01*
X126585635Y-56773308D01*
X126526739Y-56553504D01*
X126430568Y-56347266D01*
X126300849Y-56162006D01*
X126300160Y-56160999D01*
X126300040Y-56160852D01*
X126139143Y-55999955D01*
X126131485Y-55994593D01*
X126108661Y-55978611D01*
X126108651Y-55978605D01*
X126095696Y-55969534D01*
X126019337Y-55916067D01*
X125970535Y-55881896D01*
X128499500Y-55881896D01*
X128499500Y-56118102D01*
X128530600Y-56314458D01*
X128536446Y-56351368D01*
X128609433Y-56575996D01*
X128656331Y-56668037D01*
X128709975Y-56773320D01*
X128711463Y-56776239D01*
X128716657Y-56786433D01*
X128855483Y-56977510D01*
X129022490Y-57144517D01*
X129213567Y-57283343D01*
X129308987Y-57331962D01*
X129308986Y-57331962D01*
X129361832Y-57358888D01*
X129424003Y-57390566D01*
X129424004Y-57390566D01*
X129424879Y-57391012D01*
X129428627Y-57392069D01*
X129535512Y-57426798D01*
X129648631Y-57463553D01*
X129881903Y-57500500D01*
X129881908Y-57500500D01*
X130118096Y-57500500D01*
X130118097Y-57500500D01*
X130351368Y-57463553D01*
X130575992Y-57390568D01*
X130786433Y-57283343D01*
X130977510Y-57144517D01*
X131144517Y-56977510D01*
X131283343Y-56786433D01*
X131390568Y-56575992D01*
X131463553Y-56351368D01*
X131483700Y-56224162D01*
X131484708Y-56217801D01*
X131493705Y-56160999D01*
X131500500Y-56118097D01*
X131500500Y-55881902D01*
X131463553Y-55648631D01*
X131390566Y-55424003D01*
X131283342Y-55213566D01*
X131279620Y-55208443D01*
X131144517Y-55022490D01*
X130977510Y-54855483D01*
X130786433Y-54716657D01*
X130575996Y-54609433D01*
X130351368Y-54536446D01*
X130351362Y-54536445D01*
X130118102Y-54499500D01*
X130118097Y-54499500D01*
X130118092Y-54499500D01*
X129881908Y-54499500D01*
X129881903Y-54499500D01*
X129881898Y-54499500D01*
X129648636Y-54536445D01*
X129648634Y-54536445D01*
X129648631Y-54536446D01*
X129424003Y-54609433D01*
X129228210Y-54709195D01*
X129213562Y-54716659D01*
X129104549Y-54795861D01*
X129104550Y-54795862D01*
X129034361Y-54846858D01*
X129026980Y-54850991D01*
X128850991Y-55026980D01*
X128846858Y-55034361D01*
X128795862Y-55104550D01*
X128795861Y-55104549D01*
X128716659Y-55213562D01*
X128716657Y-55213566D01*
X128609433Y-55424003D01*
X128536446Y-55648631D01*
X128536445Y-55648634D01*
X128536445Y-55648636D01*
X128499500Y-55881896D01*
X125970535Y-55881896D01*
X125952736Y-55869433D01*
X125952734Y-55869432D01*
X125746502Y-55773263D01*
X125746491Y-55773258D01*
X125526698Y-55714366D01*
X125526689Y-55714364D01*
X125526678Y-55714362D01*
X125356789Y-55699500D01*
X125356785Y-55699500D01*
X125356784Y-55699500D01*
X123643216Y-55699500D01*
X123643215Y-55699500D01*
X123643210Y-55699500D01*
X123473320Y-55714362D01*
X123473309Y-55714364D01*
X123473300Y-55714366D01*
X123253507Y-55773258D01*
X123253496Y-55773263D01*
X123047264Y-55869432D01*
X123047262Y-55869433D01*
X122860855Y-55999955D01*
X122699955Y-56160855D01*
X122569433Y-56347262D01*
X122569432Y-56347264D01*
X122473263Y-56553496D01*
X122473258Y-56553507D01*
X122414366Y-56773300D01*
X122414364Y-56773309D01*
X122414362Y-56773320D01*
X122399500Y-56943209D01*
X122399500Y-57056789D01*
X122414362Y-57226678D01*
X122414364Y-57226689D01*
X122414366Y-57226698D01*
X122473258Y-57446491D01*
X122473263Y-57446502D01*
X122569432Y-57652734D01*
X122569433Y-57652736D01*
X122699955Y-57839143D01*
X122860852Y-58000040D01*
X122860999Y-58000160D01*
X122862006Y-58000849D01*
X123047266Y-58130568D01*
X123089114Y-58150082D01*
X123118655Y-58169400D01*
X123127385Y-58177087D01*
X123164691Y-58236164D01*
X123164136Y-58306031D01*
X123126647Y-58363860D01*
X123118372Y-58371031D01*
X123089571Y-58389704D01*
X123047264Y-58409432D01*
X123047262Y-58409433D01*
X122860855Y-58539955D01*
X122699955Y-58700855D01*
X122569433Y-58887262D01*
X122569432Y-58887264D01*
X122473263Y-59093496D01*
X122473258Y-59093507D01*
X122414366Y-59313300D01*
X122414364Y-59313309D01*
X122414362Y-59313320D01*
X122399500Y-59483209D01*
X122399500Y-59596789D01*
X122414362Y-59766678D01*
X122414364Y-59766689D01*
X122414366Y-59766698D01*
X122473258Y-59986491D01*
X122473263Y-59986502D01*
X122569432Y-60192734D01*
X122569433Y-60192736D01*
X122699955Y-60379143D01*
X122860855Y-60540043D01*
X122912774Y-60576397D01*
X122938508Y-60600547D01*
X122945620Y-60609444D01*
X122972104Y-60674100D01*
X122959427Y-60742810D01*
X122911828Y-60793634D01*
X122902168Y-60799340D01*
X122869781Y-60812720D01*
X122866986Y-60813433D01*
X122866966Y-60813439D01*
X122866955Y-60813442D01*
X122793469Y-60843881D01*
X122793438Y-60843894D01*
X122744692Y-60867216D01*
X122744682Y-60867223D01*
X122707366Y-60895158D01*
X122629635Y-60953348D01*
X122629620Y-60953359D01*
X122629611Y-60953366D01*
X122573368Y-61009609D01*
X122573348Y-61009630D01*
X122537232Y-61049838D01*
X122537227Y-61049844D01*
X122463884Y-61173460D01*
X122463882Y-61173465D01*
X122433450Y-61246936D01*
X122433329Y-61247261D01*
X122433086Y-61247970D01*
X122415454Y-61297947D01*
X122395936Y-61433707D01*
X122395000Y-61440219D01*
X107225000Y-61440219D01*
X107224999Y-61440204D01*
X107222282Y-61389526D01*
X107222283Y-61389523D01*
X107222219Y-61387135D01*
X107222105Y-61386229D01*
X107199572Y-61297946D01*
X107186561Y-61246969D01*
X107186557Y-61246957D01*
X107186548Y-61246936D01*
X107156117Y-61173469D01*
X107156104Y-61173438D01*
X107132782Y-61124692D01*
X107132781Y-61124690D01*
X107132778Y-61124685D01*
X107046641Y-61009621D01*
X107046638Y-61009617D01*
X107033069Y-60996048D01*
X106990389Y-60953368D01*
X106990368Y-60953348D01*
X106981679Y-60945543D01*
X106950157Y-60917229D01*
X106950042Y-60917161D01*
X106826538Y-60843884D01*
X106826526Y-60843878D01*
X106756063Y-60814692D01*
X106756043Y-60814684D01*
X106753067Y-60813452D01*
X106753065Y-60813451D01*
X106741059Y-60809215D01*
X106740384Y-60808969D01*
X106739416Y-60808254D01*
X106710374Y-60793063D01*
X106699763Y-60785411D01*
X106688102Y-60770400D01*
X106684159Y-60767491D01*
X106682538Y-60763236D01*
X106656901Y-60730233D01*
X106650675Y-60660641D01*
X106679144Y-60602985D01*
X106685135Y-60596167D01*
X106707157Y-60576444D01*
X106759139Y-60540047D01*
X106920047Y-60379139D01*
X107050568Y-60192734D01*
X107146739Y-59986496D01*
X107205635Y-59766692D01*
X107213220Y-59679999D01*
X113860000Y-59679999D01*
X113860000Y-60580000D01*
X113862138Y-60645541D01*
X113862138Y-60645544D01*
X113862139Y-60645545D01*
X113896068Y-60772167D01*
X113961612Y-60885694D01*
X114054306Y-60978388D01*
X114167833Y-61043932D01*
X114294455Y-61077861D01*
X114360000Y-61080000D01*
X114810000Y-61080000D01*
X115260000Y-61080000D01*
X115325545Y-61077861D01*
X115452167Y-61043933D01*
X115565694Y-60978388D01*
X115658388Y-60885694D01*
X115723933Y-60772167D01*
X115757861Y-60645545D01*
X115760000Y-60580000D01*
X115760000Y-59680000D01*
X115757861Y-59614455D01*
X115723933Y-59487833D01*
X115658388Y-59374306D01*
X115565694Y-59281612D01*
X115452167Y-59216067D01*
X115325545Y-59182139D01*
X115260000Y-59180000D01*
X114360000Y-59180000D01*
X114294458Y-59182138D01*
X114167832Y-59216068D01*
X114054307Y-59281611D01*
X114054304Y-59281613D01*
X113961613Y-59374304D01*
X113961611Y-59374307D01*
X113896068Y-59487832D01*
X113862138Y-59614458D01*
X113860000Y-59679999D01*
X107213220Y-59679999D01*
X107220500Y-59596784D01*
X107220500Y-59483216D01*
X107220499Y-59483209D01*
X107205892Y-59316246D01*
X107205635Y-59313308D01*
X107146739Y-59093504D01*
X107050568Y-58887266D01*
X106920849Y-58702006D01*
X106920160Y-58700999D01*
X106920040Y-58700852D01*
X106759143Y-58539955D01*
X106572736Y-58409433D01*
X106572735Y-58409432D01*
X106537502Y-58393003D01*
X106507958Y-58373682D01*
X106498445Y-58365305D01*
X106461142Y-58306228D01*
X106461700Y-58236360D01*
X106496661Y-58180785D01*
X106503781Y-58174267D01*
X106529052Y-58156374D01*
X106579783Y-58129259D01*
X106710811Y-58041709D01*
X106787412Y-57978843D01*
X106898843Y-57867412D01*
X106961709Y-57790811D01*
X107049259Y-57659783D01*
X107095972Y-57572389D01*
X107156278Y-57426798D01*
X107185044Y-57331968D01*
X107215787Y-57177410D01*
X107225500Y-57078793D01*
X107225500Y-56921207D01*
X107215787Y-56822590D01*
X107185044Y-56668032D01*
X107156278Y-56573202D01*
X107095972Y-56427611D01*
X107095970Y-56427608D01*
X107095968Y-56427602D01*
X107070523Y-56379999D01*
X112860000Y-56379999D01*
X112860000Y-57280000D01*
X112862138Y-57345541D01*
X112862138Y-57345544D01*
X112862139Y-57345545D01*
X112896068Y-57472167D01*
X112961612Y-57585694D01*
X113054306Y-57678388D01*
X113167833Y-57743932D01*
X113294455Y-57777861D01*
X113360000Y-57780000D01*
X113810000Y-57780000D01*
X114260000Y-57780000D01*
X114325545Y-57777861D01*
X114452167Y-57743933D01*
X114565694Y-57678388D01*
X114658388Y-57585694D01*
X114698283Y-57516594D01*
X114748850Y-57468378D01*
X114817457Y-57455155D01*
X114882322Y-57481124D01*
X114913057Y-57516594D01*
X114961609Y-57600690D01*
X114961611Y-57600693D01*
X114961612Y-57600694D01*
X115054306Y-57693388D01*
X115167833Y-57758932D01*
X115294455Y-57792861D01*
X115360000Y-57795000D01*
X115810000Y-57795000D01*
X116260000Y-57795000D01*
X116325545Y-57792861D01*
X116452167Y-57758933D01*
X116565694Y-57693388D01*
X116658388Y-57600694D01*
X116723933Y-57487167D01*
X116757861Y-57360545D01*
X116760000Y-57295000D01*
X116760000Y-56395000D01*
X116757861Y-56329455D01*
X116723933Y-56202833D01*
X116658388Y-56089306D01*
X116565694Y-55996612D01*
X116452167Y-55931067D01*
X116325545Y-55897139D01*
X116260000Y-55895000D01*
X115360000Y-55895000D01*
X115294458Y-55897138D01*
X115167832Y-55931068D01*
X115054307Y-55996611D01*
X115054304Y-55996613D01*
X114961613Y-56089304D01*
X114961609Y-56089309D01*
X114921717Y-56158405D01*
X114871150Y-56206621D01*
X114802543Y-56219843D01*
X114737678Y-56193875D01*
X114706943Y-56158405D01*
X114683671Y-56118097D01*
X114658388Y-56074306D01*
X114565694Y-55981612D01*
X114452167Y-55916067D01*
X114325545Y-55882139D01*
X114260000Y-55880000D01*
X113360000Y-55880000D01*
X113294458Y-55882138D01*
X113167832Y-55916068D01*
X113054307Y-55981611D01*
X113054304Y-55981613D01*
X112961613Y-56074304D01*
X112961611Y-56074307D01*
X112896068Y-56187832D01*
X112862138Y-56314458D01*
X112860000Y-56379999D01*
X107070523Y-56379999D01*
X107049263Y-56340224D01*
X107049261Y-56340222D01*
X107049259Y-56340217D01*
X107046702Y-56336390D01*
X106961721Y-56209206D01*
X106961712Y-56209194D01*
X106961709Y-56209189D01*
X106898843Y-56132588D01*
X106787412Y-56021157D01*
X106757504Y-55996612D01*
X106724498Y-55969524D01*
X106710811Y-55958291D01*
X106710804Y-55958286D01*
X106710793Y-55958278D01*
X106579799Y-55870751D01*
X106579786Y-55870743D01*
X106579770Y-55870733D01*
X106579763Y-55870729D01*
X106528069Y-55843098D01*
X106492396Y-55824031D01*
X106492391Y-55824029D01*
X106346799Y-55763722D01*
X106321190Y-55755954D01*
X106316333Y-55754480D01*
X106316329Y-55754479D01*
X106277872Y-55742813D01*
X106251968Y-55734956D01*
X106251963Y-55734955D01*
X106251948Y-55734951D01*
X106100379Y-55704803D01*
X106099419Y-55704588D01*
X106097411Y-55704212D01*
X106097382Y-55704209D01*
X106028171Y-55697393D01*
X106017926Y-55696384D01*
X106017925Y-55696383D01*
X105998793Y-55694500D01*
X103680218Y-55694500D01*
X103680216Y-55694500D01*
X103680211Y-55694500D01*
X103626198Y-55697393D01*
X103626177Y-55697396D01*
X103626138Y-55697406D01*
X103486793Y-55732972D01*
X103486788Y-55732973D01*
X103486778Y-55732976D01*
X103486766Y-55732980D01*
X103486758Y-55732982D01*
X103413278Y-55763419D01*
X103413247Y-55763432D01*
X103364453Y-55786777D01*
X103364430Y-55786793D01*
X103249292Y-55872986D01*
X103249270Y-55873003D01*
X103249252Y-55873017D01*
X103193022Y-55929247D01*
X103156846Y-55969520D01*
X103156844Y-55969521D01*
X103156835Y-55969534D01*
X103156829Y-55969543D01*
X103083425Y-56093264D01*
X103052977Y-56166775D01*
X103034976Y-56217798D01*
X103033886Y-56224162D01*
X103033714Y-56226579D01*
X103015774Y-56351361D01*
X103015773Y-56351371D01*
X103014500Y-56360220D01*
X98460677Y-56360220D01*
X98463553Y-56351368D01*
X98486072Y-56209189D01*
X98500500Y-56118097D01*
X98500500Y-55881902D01*
X98463553Y-55648631D01*
X98390566Y-55424003D01*
X98283342Y-55213566D01*
X98279620Y-55208443D01*
X98144517Y-55022490D01*
X97977510Y-54855483D01*
X97786433Y-54716657D01*
X97575996Y-54609433D01*
X97351368Y-54536446D01*
X97351362Y-54536445D01*
X97118102Y-54499500D01*
X97118097Y-54499500D01*
X97118092Y-54499500D01*
X96881908Y-54499500D01*
X96881903Y-54499500D01*
X96881898Y-54499500D01*
X96648636Y-54536445D01*
X96648634Y-54536445D01*
X96648631Y-54536446D01*
X96424003Y-54609433D01*
X96228210Y-54709195D01*
X96213562Y-54716659D01*
X96104549Y-54795861D01*
X96104550Y-54795862D01*
X96034361Y-54846858D01*
X96026980Y-54850991D01*
X95850991Y-55026980D01*
X95846858Y-55034361D01*
X95795862Y-55104550D01*
X95795861Y-55104549D01*
X95716659Y-55213562D01*
X95716657Y-55213566D01*
X95609433Y-55424003D01*
X95536446Y-55648631D01*
X95536445Y-55648634D01*
X95536445Y-55648636D01*
X95499500Y-55881896D01*
X85500500Y-55881896D01*
X85500500Y-55642329D01*
X85505523Y-55607393D01*
X85509927Y-55592395D01*
X85519569Y-55577386D01*
X85520185Y-55575290D01*
X85521834Y-55573860D01*
X85547672Y-55533644D01*
X85549041Y-55532457D01*
X85603920Y-55504977D01*
X85611479Y-55503333D01*
X85637832Y-55500500D01*
X86657245Y-55500500D01*
X86657250Y-55500500D01*
X86970026Y-55467626D01*
X87277652Y-55402238D01*
X87576759Y-55305053D01*
X87864068Y-55177134D01*
X88136432Y-55019885D01*
X88390867Y-54835027D01*
X88624586Y-54624586D01*
X88835027Y-54390867D01*
X89019885Y-54136432D01*
X89177134Y-53864068D01*
X89305053Y-53576759D01*
X89402238Y-53277652D01*
X89467626Y-52970026D01*
X89500500Y-52657250D01*
X89500500Y-52500000D01*
X89500500Y-52434108D01*
X89500500Y-51642329D01*
X89505523Y-51607393D01*
X89509927Y-51592395D01*
X89547672Y-51533644D01*
X89549041Y-51532457D01*
X89603920Y-51504977D01*
X89611479Y-51503333D01*
X89637832Y-51500500D01*
X160357670Y-51500500D01*
X160392606Y-51505523D01*
G37*
%TD.AperFunction*%
%TD*%
M02*
